<?xml version="1.0" encoding="UTF-8" standalone="no"?>
<!-- Created with Inkscape (http://www.inkscape.org/) -->
<svg
   xmlns:dc="http://purl.org/dc/elements/1.1/"
   xmlns:cc="http://creativecommons.org/ns#"
   xmlns:rdf="http://www.w3.org/1999/02/22-rdf-syntax-ns#"
   xmlns:svg="http://www.w3.org/2000/svg"
   xmlns="http://www.w3.org/2000/svg"
   xmlns:sodipodi="http://sodipodi.sourceforge.net/DTD/sodipodi-0.dtd"
   xmlns:inkscape="http://www.inkscape.org/namespaces/inkscape"
   width="300"
   height="300"
   id="svg46348"
   sodipodi:version="0.32"
   inkscape:version="0.46+devel r20539"
   sodipodi:docname="RensselaerCountyNY.svg"
   inkscape:output_extension="org.inkscape.output.svg.inkscape"
   version="1.0">
  <defs
     id="defs46350">
    <marker
       inkscape:stockid="Arrow2Sstart"
       orient="auto"
       refY="0"
       refX="0"
       id="Arrow2Sstart"
       style="overflow:visible">
      <path
         id="path47794"
         style="font-size:12px;fill-rule:evenodd;stroke-width:0.625;stroke-linejoin:round"
         d="M 8.7185878,4.0337352 -2.2072895,0.01601326 8.7185884,-4.0017078 c -1.7454984,2.3720609 -1.7354408,5.6174519 -6e-7,8.035443 z"
         transform="matrix(0.3,0,0,0.3,-0.69,0)" />
    </marker>
    <marker
       inkscape:stockid="Arrow2Mstart"
       orient="auto"
       refY="0"
       refX="0"
       id="Arrow2Mstart"
       style="overflow:visible">
      <path
         id="path47788"
         style="font-size:12px;fill-rule:evenodd;stroke-width:0.625;stroke-linejoin:round"
         d="M 8.7185878,4.0337352 -2.2072895,0.01601326 8.7185884,-4.0017078 c -1.7454984,2.3720609 -1.7354408,5.6174519 -6e-7,8.035443 z"
         transform="scale(0.6,0.6)" />
    </marker>
    <marker
       inkscape:stockid="Arrow1Lstart"
       orient="auto"
       refY="0"
       refX="0"
       id="Arrow1Lstart"
       style="overflow:visible">
      <path
         id="path47764"
         d="M 0,0 5,-5 -12.5,0 5,5 0,0 z"
         style="fill-rule:evenodd;stroke:#000000;stroke-width:1pt;marker-start:none"
         transform="matrix(0.8,0,0,0.8,10,0)" />
    </marker>
    <marker
       inkscape:stockid="Arrow1Mstart"
       orient="auto"
       refY="0"
       refX="0"
       id="Arrow1Mstart"
       style="overflow:visible">
      <path
         id="path47770"
         d="M 0,0 5,-5 -12.5,0 5,5 0,0 z"
         style="fill-rule:evenodd;stroke:#000000;stroke-width:1pt;marker-start:none"
         transform="matrix(0.4,0,0,0.4,4,0)" />
    </marker>
    <marker
       inkscape:stockid="Arrow1Lend"
       orient="auto"
       refY="0"
       refX="0"
       id="Arrow1Lend"
       style="overflow:visible">
      <path
         id="path47767"
         d="M 0,0 5,-5 -12.5,0 5,5 0,0 z"
         style="fill-rule:evenodd;stroke:#000000;stroke-width:1pt;marker-start:none"
         transform="matrix(-0.8,0,0,-0.8,-10,0)" />
    </marker>
    <inkscape:perspective
       sodipodi:type="inkscape:persp3d"
       inkscape:vp_x="0 : 526.18109 : 1"
       inkscape:vp_y="0 : 1000 : 0"
       inkscape:vp_z="744.09448 : 526.18109 : 1"
       inkscape:persp3d-origin="372.04724 : 350.78739 : 1"
       id="perspective46356" />
    <inkscape:perspective
       id="perspective2454"
       inkscape:persp3d-origin="24 : 16 : 1"
       inkscape:vp_z="48 : 24 : 1"
       inkscape:vp_y="0 : 1000 : 0"
       inkscape:vp_x="0 : 24 : 1"
       sodipodi:type="inkscape:persp3d" />
  </defs>
  <sodipodi:namedview
     id="base"
     pagecolor="#ffffff"
     bordercolor="#666666"
     borderopacity="1.0"
     gridtolerance="10000"
     guidetolerance="10"
     objecttolerance="10"
     inkscape:pageopacity="0.0"
     inkscape:pageshadow="2"
     inkscape:zoom="1.5744911"
     inkscape:cx="49.237289"
     inkscape:cy="94.118382"
     inkscape:document-units="px"
     inkscape:current-layer="text2991"
     showgrid="true"
     inkscape:window-width="1399"
     inkscape:window-height="874"
     inkscape:window-x="37"
     inkscape:window-y="-4">
    <inkscape:grid
       type="xygrid"
       id="grid2998"
       empspacing="5"
       visible="true"
       enabled="true" />
  </sodipodi:namedview>
  <metadata
     id="metadata46353">
    <rdf:RDF>
      <cc:Work
         rdf:about="">
        <dc:format>image/svg+xml</dc:format>
        <dc:type
           rdf:resource="http://purl.org/dc/dcmitype/StillImage" />
      </cc:Work>
    </rdf:RDF>
  </metadata>
  <g
     inkscape:groupmode="layer"
     id="layer1"
     inkscape:label="Surround"
     style="display:inline">
    <path
       transform="matrix(0.54207709,0,0,0.54207709,-28.62077,-48.805763)"
       d="m 582.65598,366.74814 a 253.14423,253.14423 0 1 1 -506.288457,0 253.14423,253.14423 0 1 1 506.288457,0 z"
       sodipodi:ry="253.14423"
       sodipodi:rx="253.14423"
       sodipodi:cy="366.74814"
       sodipodi:cx="329.51175"
       id="path2987"
       style="fill:#ffffff;fill-opacity:1;stroke:#000000;stroke-width:7.37902403;stroke-linecap:round;stroke-linejoin:round;stroke-miterlimit:4;stroke-opacity:1;stroke-dasharray:none;stroke-dashoffset:0;display:inline"
       sodipodi:type="arc" />
    <path
       sodipodi:type="arc"
       style="fill:none;stroke:#000000;stroke-width:10.10591507;stroke-linecap:round;stroke-linejoin:round;stroke-miterlimit:4;stroke-opacity:1;stroke-dasharray:none;stroke-dashoffset:0;display:inline"
       id="path2985"
       sodipodi:cx="329.51175"
       sodipodi:cy="366.74814"
       sodipodi:rx="253.14423"
       sodipodi:ry="253.14423"
       d="m 582.65598,366.74814 a 253.14423,253.14423 0 1 1 -506.288457,0 253.14423,253.14423 0 1 1 506.288457,0 z"
       transform="matrix(0.39580779,0,0,0.39580779,19.576678,4.838225)" />
    <g
       transform="matrix(-0.42587259,-0.06428158,0.06428158,-0.42587259,253.21168,329.04275)"
       inkscape:transform-center-x="0.9792032"
       inkscape:transform-center-y="-75.158736"
       style="font-size:56px;font-style:normal;font-variant:normal;font-weight:bold;font-stretch:normal;text-align:start;line-height:100%;writing-mode:lr-tb;text-anchor:start;fill:#000000;fill-opacity:1;stroke:none;display:inline;font-family:DejaVu Sans;-inkscape-font-specification:DejaVu Sans"
       id="text2991">
      <path
         d="m 571.84716,397.01738 c -0.18836,2.19765 0.0853,3.80828 0.8209,4.83188 0.73557,1.02355 2.03875,1.6155 3.90952,1.77585 1.85255,0.15873 3.21928,-0.20441 4.10018,-1.08943 0.88084,-0.88508 1.41544,-2.42644 1.60381,-4.62409 l 0.37823,-4.41351 -10.43441,-0.89421 z m -6.86865,-5.03455 -15.3928,-1.31913 0.89888,-10.4889 40.67513,3.48577 -1.37283,16.01941 c -0.4592,5.35794 -1.69484,9.20855 -3.70692,11.55185 -2.01215,2.34322 -4.9616,3.34831 -8.84837,3.01526 -2.68809,-0.2304 -4.83919,-1.06883 -6.45333,-2.51529 -1.61417,-1.44652 -2.71784,-3.5125 -3.31101,-6.19792 -0.4499,1.4068 -1.30015,2.62837 -2.55074,3.66473 -1.25062,1.03629 -3.09721,2.03526 -5.53979,2.99691 l -12.03938,4.70405 0.95725,-11.17 10.53241,-4.0922 c 2.1198,-0.82464 3.59602,-1.71813 4.42864,-2.68048 0.83259,-0.96239 1.32205,-2.29721 1.46838,-4.00448 z"
         id="path3005" />
      <path
         d="m 584.97173,434.89894 -7.17403,27.48946 -7.69917,-2.00928 4.51571,-17.30328 -7.35522,-1.91952 -4.24642,16.27143 -7.69916,-2.00928 4.24642,-16.27143 -9.0485,-2.36143 -4.66762,17.88535 -7.69916,-2.00929 7.32594,-28.07152 z"
         id="path3007" />
      <path
         d="m 571.77549,480.19884 -4.93915,10.67009 -31.64684,1.712 25.40971,11.76209 -4.19254,9.05717 -37.04755,-17.14922 4.93916,-10.67009 31.64683,-1.712 -25.40971,-11.76209 4.19254,-9.05717 z"
         id="path3009" />
      <path
         d="m 529.00342,552.50329 -7.05819,-4.98422 c 2.11235,-1.25326 3.99214,-2.60376 5.63937,-4.0515 1.64721,-1.44782 3.01761,-2.94603 4.11121,-4.49462 1.45108,-2.05495 2.24071,-3.77359 2.36888,-5.15592 0.12814,-1.3824 -0.4034,-2.49419 -1.59464,-3.33537 -0.89346,-0.63095 -1.82356,-0.79121 -2.79031,-0.48081 -0.96678,0.31035 -2.24399,1.21046 -3.83164,2.70033 l -3.32383,3.14261 c -3.36283,3.18198 -6.35571,5.01847 -8.97866,5.50948 -2.62294,0.49093 -5.33414,-0.25201 -8.1336,-2.22884 -3.67798,-2.59729 -5.6439,-5.6202 -5.89777,-9.06874 -0.25383,-3.44859 1.20179,-7.41392 4.36685,-11.896 1.49317,-2.11449 3.19262,-4.09446 5.09833,-5.93991 1.90573,-1.84546 4.00503,-3.55422 6.29791,-5.12627 l 7.25922,5.12617 c -2.63538,1.3302 -4.9416,2.78684 -6.91867,4.36992 -1.97707,1.58306 -3.61755,3.29781 -4.92144,5.14428 -1.32491,1.8762 -2.02692,3.53397 -2.10604,4.97331 -0.0791,1.43929 0.46207,2.56904 1.62354,3.38925 1.04235,0.73604 2.08567,0.9651 3.12996,0.68718 1.04429,-0.27798 2.50483,-1.27179 4.38162,-2.98144 l 3.08724,-2.80756 c 3.07015,-2.83081 5.93115,-4.46474 8.58301,-4.90181 2.65183,-0.43711 5.30303,0.2802 7.95359,2.15193 3.3206,2.34487 5.11725,5.22036 5.38997,8.62647 0.27266,3.40605 -1.01054,7.11934 -3.84963,11.13986 -1.29339,1.83151 -2.7613,3.61792 -4.40374,5.35922 -1.64247,1.74121 -3.46999,3.45221 -5.48254,5.133 z"
         id="path3011" />
      <path
         d="m 496.10753,588.2098 -6.13083,-6.08878 c 2.29138,-0.88445 4.36961,-1.90347 6.2347,-3.05706 1.86508,-1.15368 3.46559,-2.40307 4.80153,-3.7482 1.77267,-1.78496 2.83716,-3.34832 3.19348,-4.69007 0.35629,-1.34183 0.0171,-2.52654 -1.01766,-3.55415 -0.77607,-0.77077 -1.66656,-1.08351 -2.67147,-0.93823 -1.00493,0.14522 -2.41406,0.82035 -4.22741,2.0254 l -3.80024,2.54598 c -3.84525,2.57831 -7.1019,3.89142 -9.76999,3.93931 -2.66806,0.0478 -5.21791,-1.13574 -7.64957,-3.55066 -3.19474,-3.17288 -4.63047,-6.48067 -4.3072,-9.9234 0.32331,-3.44277 2.4182,-7.11075 6.28469,-11.00395 1.82407,-1.83667 3.82917,-3.50639 6.01529,-5.00915 2.18615,-1.50278 4.54042,-2.83855 7.06285,-4.00733 l 6.30545,6.26219 c -2.81992,0.87333 -5.3363,1.92608 -7.54914,3.15826 -2.21284,1.23216 -4.11569,2.65017 -5.70854,4.25403 -1.61853,1.6297 -2.5865,3.14761 -2.90392,4.55374 -0.3174,1.40608 0.0283,2.61011 1.03719,3.61209 0.90541,0.89916 1.89609,1.29856 2.97206,1.19821 1.07598,-0.10041 2.68147,-0.83744 4.81649,-2.21111 l 3.51122,-2.25495 c 3.49823,-2.28071 6.59116,-3.41602 9.27877,-3.40591 2.6876,0.0101 5.18255,1.15836 7.48486,3.44488 2.88432,2.86453 4.17767,5.9988 3.88004,9.40282 -0.29766,3.40396 -2.18063,6.85208 -5.6489,10.34437 -1.58001,1.59087 -3.32461,3.10823 -5.2338,4.55209 -1.90921,1.44376 -3.99586,2.82695 -6.25995,4.14958 z"
         id="path3013" />
      <path
         d="m 481.68011,602.30071 -23.02449,16.64361 -4.66149,-6.44863 14.4928,-10.47635 -4.45325,-6.16054 -13.62855,9.85161 -4.66149,-6.44863 13.62855,-9.85161 -5.47846,-7.5788 -14.98032,10.82876 -4.6615,-6.44863 23.51202,-16.99603 z"
         id="path3015" />
      <path
         d="m 443.40363,628.11867 -9.37857,4.78197 -14.9297,-29.28065 -16.46732,8.39641 -3.61442,-7.08875 25.84589,-13.17837 z"
         id="path3017" />
      <path
         d="m 349.73608,661.88328 -28.19786,3.46657 -0.9709,-7.89758 17.74918,-2.18203 -0.92753,-7.54477 -16.69075,2.05193 -0.97091,-7.89759 16.69074,-2.05191 -1.14106,-9.28169 -18.34626,2.25544 -0.9709,-7.89757 28.79494,-3.53997 z"
         id="path3019"
         inkscape:transform-center-x="-2.6897229"
         inkscape:transform-center-y="-116.35697" />
      <path
         d="m 367.56988,623.13221 15.74691,-4.79559 0.31819,-7.87166 10.12301,-3.08286 -2.5718,43.45859 -12.00636,3.65644 -26.35855,-34.64812 10.12301,-3.08287 z m 15.44238,3.21482 -10.69847,3.25813 10.06801,13.91255 z"
         id="path3021"
         inkscape:transform-center-y="-114.49997"
         inkscape:transform-center-x="16.093502" />
      <path
         d="m 292.81609,647.23176 c -2.20452,-0.0723 -3.7985,0.28574 -4.78194,1.07426 -0.98338,0.78847 -1.50587,2.12101 -1.56746,3.99763 -0.0609,1.85834 0.37368,3.20405 1.30387,4.03711 0.93025,0.833 2.49763,1.28567 4.70214,1.35803 l 4.42731,0.14524 0.34338,-10.46702 z m 4.66579,-7.12428 0.50656,-15.44091 10.52168,0.34517 -1.33857,40.80227 -16.06948,-0.52718 c -5.37468,-0.17636 -9.28503,-1.20747 -11.73105,-3.09333 -2.44595,-1.88594 -3.60499,-4.77836 -3.47712,-8.67727 0.0885,-2.69649 0.81246,-4.88878 2.17189,-6.57686 1.3595,-1.68812 3.36448,-2.89907 6.01493,-3.63285 -1.42854,-0.37519 -2.6932,-1.15992 -3.79399,-2.35419 -1.10072,-1.1943 -2.19557,-2.98571 -3.28454,-5.37425 l -5.33163,-11.7749 11.20491,0.36759 4.64126,10.30225 c 0.93515,2.07343 1.90516,3.50053 2.91002,4.28131 1.00491,0.78075 2.36366,1.19923 4.07626,1.25543 z"
         id="path3023" />
      <path
         d="m 211.50712,611.31182 c 2.13934,-0.4029 4.28623,-0.54652 6.44069,-0.43085 2.15453,0.11568 4.32271,0.50201 6.50457,1.15898 6.51075,1.96043 11.12079,5.33321 13.83015,10.11835 2.70937,4.78514 3.12588,10.29344 1.24955,16.5249 -1.88157,6.24889 -5.27288,10.62014 -10.17394,13.11378 -4.90101,2.49358 -10.60689,2.76017 -17.11766,0.79979 -2.18184,-0.65701 -4.20286,-1.53208 -6.06307,-2.62521 -1.86013,-1.09319 -3.57079,-2.39834 -5.132,-3.91546 l 2.43607,-8.09042 c 1.48406,1.83658 3.04438,3.32491 4.68096,4.46501 1.63667,1.14005 3.45865,2.0123 5.46594,2.61674 3.59577,1.08267 6.77037,0.78208 9.52381,-0.90177 2.75349,-1.6839 4.73989,-4.55063 5.95922,-8.60018 1.21411,-4.03213 1.1382,-7.51031 -0.22775,-10.43456 -1.36591,-2.92425 -3.84674,-4.92773 -7.4425,-6.01043 -2.0073,-0.60441 -4.00798,-0.88319 -6.00203,-0.83632 -1.99399,0.0469 -4.11668,0.42622 -6.36809,1.13807 z"
         id="path3025" />
      <path
         d="m 170.27582,626.95388 c 2.84935,1.4747 5.60383,1.56613 8.26344,0.27431 2.65967,-1.29186 4.97821,-3.84812 6.95565,-7.66878 1.9691,-3.8045 2.71309,-7.16543 2.23198,-10.08281 -0.48106,-2.91737 -2.14626,-5.11342 -4.99561,-6.58814 -2.86548,-1.48308 -5.62805,-1.57871 -8.28772,-0.28687 -2.65961,1.29185 -4.97396,3.84001 -6.94308,7.6445 -1.97741,3.82067 -2.7256,7.1897 -2.24455,10.10709 0.48113,2.91736 2.15442,5.11759 5.01989,6.6007 z m -3.50663,6.77523 c -5.82811,-3.01648 -9.53045,-7.04687 -11.10704,-12.09118 -1.57648,-5.04433 -0.84395,-10.50485 2.19759,-16.38157 3.03327,-5.86052 7.06423,-9.60362 12.09289,-11.22931 5.02874,-1.62565 10.45716,-0.93026 16.28529,2.08619 5.81198,3.00808 9.51027,7.03638 11.09489,12.08489 1.58464,5.04851 0.86035,10.50303 -2.17288,16.36357 -3.04158,5.8767 -7.08078,9.6258 -12.1176,11.24731 -5.03677,1.62145 -10.46114,0.92815 -16.27314,-2.0799 z"
         id="path3027" />
      <path
         d="m 133.96876,613.6552 -8.25072,-6.5384 15.19966,-19.18023 c 2.09458,-2.64308 3.15972,-4.87502 3.19543,-6.69581 0.0357,-1.82078 -0.92504,-3.50672 -2.88237,-5.05783 -1.97158,-1.56242 -3.8396,-2.11821 -5.60408,-1.66738 -1.76442,0.45085 -3.69392,1.99781 -5.78851,4.64088 l -15.19966,19.18023 -8.25071,-6.5384 15.19966,-19.18023 c 3.58908,-4.52894 7.39686,-7.00057 11.42335,-7.41488 4.02655,-0.41428 8.36857,1.22404 13.0261,4.91497 4.64327,3.67963 7.22326,7.52676 7.73998,11.54142 0.51674,4.01466 -1.01942,8.28646 -4.60847,12.81543 z"
         id="path3029" />
      <path
         d="m 92.100961,578.17111 -7.667574,-8.91373 11.544559,-29.51569 -21.2271,18.25953 -6.508522,-7.5663 30.949277,-26.62253 7.667579,8.91372 -11.544564,29.51569 21.227104,-18.25952 6.50852,7.5663 z"
         id="path3031" />
      <path
         d="m 59.846888,538.82447 -19.156425,-32.3832 6.848483,-4.05125 6.891301,11.64948 28.288237,-16.73403 5.359901,9.06071 -28.288237,16.73403 6.905223,11.67301 z"
         id="path3033" />
      <path
         d="M 36.990366,499.21113 32.833339,488.4762 43.041404,474.55359 26.118901,471.13711 21.952,460.37668 l 27.649242,5.97745 16.038654,-6.21086 3.801556,9.81698 -16.038653,6.21086 z"
         id="path3035" />
    </g>
    <g
       style="font-size:48px;font-style:normal;font-variant:normal;font-weight:bold;font-stretch:normal;text-align:start;line-height:100%;writing-mode:lr-tb;text-anchor:start;fill:#000000;fill-opacity:1;stroke:none;display:inline;font-family:Arial;-inkscape-font-specification:Arial Bold"
       id="text3000"
       transform="matrix(0.43069661,0,0,0.43069661,20.622477,-11.511234)">
      <path
         d="m 24.671081,478.84646 32.018238,-12.46591 2.516993,6.4648 -32.018238,12.46592 z"
         style="font-size:48px;font-style:normal;font-variant:normal;font-weight:bold;font-stretch:normal;text-align:start;line-height:100%;letter-spacing:13.80937672;writing-mode:lr-tb;text-anchor:start;font-family:Arial;-inkscape-font-specification:Arial Bold"
         id="path3050" />
      <path
         d="m 35.220137,504.15688 30.169693,-16.44252 3.23018,5.92693 -13.417885,23.32813 20.147427,-10.98037 3.084374,5.65939 -30.169693,16.44251 -3.331123,-6.11214 13.045498,-22.88495 -19.674097,10.72241 z"
         style="font-size:48px;font-style:normal;font-variant:normal;font-weight:bold;font-stretch:normal;text-align:start;line-height:100%;letter-spacing:13.80937672;writing-mode:lr-tb;text-anchor:start;font-family:Arial;-inkscape-font-specification:Arial Bold"
         id="path3052" />
      <path
         d="m 83.392331,555.34042 2.470163,6.61013 c -3.5878,1.50126 -6.837764,1.86936 -9.749903,1.10429 -2.912176,-0.76511 -5.505478,-2.59891 -7.779915,-5.50139 -2.814157,-3.59125 -3.900354,-7.50429 -3.258596,-11.73913 0.641743,-4.23484 3.090301,-8.01955 7.345679,-11.35412 4.501324,-3.52732 8.907983,-5.10454 13.21999,-4.73168 4.311952,0.37288 7.952115,2.45332 10.9205,6.24133 2.592445,3.30836 3.720491,6.76182 3.384127,10.36037 -0.192375,2.13579 -1.129893,4.35926 -2.812558,6.6704 l -5.527048,-4.39336 c 1.151447,-1.41845 1.7355,-2.95303 1.75216,-4.60375 0.01659,-1.65072 -0.543711,-3.2017 -1.680901,-4.65296 -1.570944,-2.00469 -3.564978,-3.0674 -5.982108,-3.18815 -2.417185,-0.12072 -5.236898,1.08142 -8.459149,3.60644 -3.419068,2.67922 -5.372344,5.20238 -5.859833,7.56948 -0.487516,2.3671 0.03973,4.53454 1.581745,6.50235 1.137208,1.45124 2.576616,2.33816 4.318227,2.66075 1.741572,0.32257 3.78071,-0.0644 6.11742,-1.161 z"
         style="font-size:48px;font-style:normal;font-variant:normal;font-weight:bold;font-stretch:normal;text-align:start;line-height:100%;letter-spacing:13.80937672;writing-mode:lr-tb;text-anchor:start;font-family:Arial;-inkscape-font-specification:Arial Bold"
         id="path3054" />
      <path
         d="m 101.44848,569.43833 c 2.34989,-2.59382 4.71004,-4.41935 7.08047,-5.47659 1.75391,-0.77237 3.59852,-1.22013 5.53385,-1.3433 1.93527,-0.12312 3.72482,0.10661 5.36865,0.6892 2.19483,0.76562 4.32863,2.08733 6.40142,3.96514 3.75175,3.39897 5.69945,7.28241 5.84311,11.65034 0.14357,4.36792 -1.66244,8.62463 -5.41804,12.77014 -3.72421,4.11074 -7.75541,6.31463 -12.09362,6.61167 -4.33826,0.297 -8.37748,-1.24873 -12.11767,-4.63718 -3.786542,-3.43045 -5.750798,-7.31308 -5.892773,-11.64789 -0.141991,-4.33482 1.622877,-8.52866 5.294603,-12.58153 z m 5.45503,4.62577 c -2.61218,2.88332 -3.92646,5.67218 -3.94283,8.36658 -0.0164,2.6944 1.00019,4.97002 3.04979,6.82687 2.04957,1.85683 4.40029,2.64239 7.05215,2.35669 2.65181,-0.28572 5.31529,-1.90498 7.99043,-4.85777 2.6436,-2.91806 3.97607,-5.67463 3.99739,-8.26972 0.0213,-2.59508 -1.02763,-4.85251 -3.14666,-6.7723 -2.1191,-1.91978 -4.48538,-2.74053 -7.09884,-2.46225 -2.61351,0.2783 -5.24732,1.88227 -7.90143,4.8119 z"
         style="font-size:48px;font-style:normal;font-variant:normal;font-weight:bold;font-stretch:normal;text-align:start;line-height:100%;letter-spacing:13.80937672;writing-mode:lr-tb;text-anchor:start;font-family:Arial;-inkscape-font-specification:Arial Bold"
         id="path3056" />
      <path
         d="m 130.23222,615.87849 18.46232,-28.97774 12.31455,7.84586 c 3.09672,1.97302 5.181,3.66686 6.25283,5.08152 1.07174,1.41468 1.60534,3.05615 1.60078,4.92441 -0.005,1.86829 -0.55267,3.65897 -1.64408,5.37207 -1.38534,2.17432 -3.16838,3.56258 -5.34913,4.16479 -2.18081,0.60221 -4.66039,0.27761 -7.43874,-0.9738 0.79487,1.54395 1.32286,3.01974 1.58398,4.42738 0.26106,1.40764 0.37218,3.68313 0.33336,6.82647 l -0.0636,7.9075 -6.99735,-4.45816 -0.21266,-9.00057 c -0.0666,-3.21051 -0.18981,-5.28527 -0.36964,-6.2243 -0.17987,-0.93903 -0.51021,-1.71456 -0.99101,-2.3266 -0.48084,-0.61203 -1.39331,-1.34623 -2.73742,-2.2026 l -1.18599,-0.75562 -7.70732,12.09712 z m 16.50514,-12.99476 4.32887,2.75801 c 2.80682,1.78831 4.63502,2.78635 5.48459,2.99412 0.84951,0.20779 1.65665,0.1477 2.42143,-0.18025 0.76471,-0.32794 1.42414,-0.92677 1.9783,-1.79651 0.62125,-0.97514 0.86264,-1.92832 0.72416,-2.85955 -0.13854,-0.9312 -0.63182,-1.77813 -1.47983,-2.54077 -0.43245,-0.36812 -1.83465,-1.30781 -4.2066,-2.81906 l -4.56607,-2.90914 z"
         style="font-size:48px;font-style:normal;font-variant:normal;font-weight:bold;font-stretch:normal;text-align:start;line-height:100%;letter-spacing:13.80937672;writing-mode:lr-tb;text-anchor:start;font-family:Arial;-inkscape-font-specification:Arial Bold"
         id="path3058" />
      <path
         d="m 172.02553,640.41765 13.63706,-31.53724 10.21841,4.41856 c 3.87221,1.67442 6.32811,2.92364 7.36773,3.74766 1.60236,1.25468 2.67044,2.93794 3.20425,5.0498 0.53374,2.11189 0.258,4.42272 -0.82722,6.93249 -0.83724,1.93613 -1.89248,3.41196 -3.16572,4.42752 -1.27331,1.01556 -2.61413,1.6657 -4.02247,1.95042 -1.4084,0.28472 -2.72462,0.30713 -3.94866,0.0672 -1.65047,-0.35618 -3.91702,-1.15752 -6.79967,-2.40402 l -4.1519,-1.79533 -5.14413,11.89638 z m 17.69779,-23.44869 -3.86973,8.94917 3.48502,1.50696 c 2.50976,1.08527 4.25905,1.64592 5.24786,1.68194 0.98876,0.036 1.87532,-0.19344 2.65966,-0.68844 0.78429,-0.49498 1.378,-1.20858 1.78112,-2.1408 0.49609,-1.14731 0.56836,-2.2396 0.21681,-3.27684 -0.35161,-1.03722 -1.00339,-1.87231 -1.95533,-2.50528 -0.69812,-0.47207 -2.1945,-1.20424 -4.48913,-2.1965 z"
         style="font-size:48px;font-style:normal;font-variant:normal;font-weight:bold;font-stretch:normal;text-align:start;line-height:100%;letter-spacing:13.80937672;writing-mode:lr-tb;text-anchor:start;font-family:Arial;-inkscape-font-specification:Arial Bold"
         id="path3060" />
      <path
         d="m 217.44843,640.4498 c 0.8468,-3.396 2.06539,-6.11958 3.65579,-8.17075 1.18143,-1.50897 2.59608,-2.77461 4.24396,-3.79695 1.64784,-1.02227 3.33383,-1.66469 5.05796,-1.92726 2.29627,-0.36138 4.80131,-0.20374 7.51511,0.47291 4.91206,1.22488 8.46256,3.7286 10.65151,7.51117 2.18888,3.78262 2.60665,8.3877 1.25331,13.81524 -1.34207,5.38208 -3.85508,9.22818 -7.53905,11.53831 -3.68402,2.31011 -7.97448,2.85464 -12.87139,1.63359 -4.95759,-1.23619 -8.5223,-3.73138 -10.69413,-7.48556 -2.17185,-3.75419 -2.59621,-8.28442 -1.27307,-13.5907 z m 6.99276,1.50211 c -0.94133,3.77505 -0.78313,6.85401 0.4746,9.23691 1.25769,2.38291 3.22828,3.90892 5.91175,4.57805 2.68344,0.66913 5.12654,0.25173 7.32931,-1.2522 2.20272,-1.50392 3.78609,-4.18888 4.75012,-8.05489 0.95262,-3.8205 0.8257,-6.87959 -0.38077,-9.17728 -1.20653,-2.29765 -3.19699,-3.79238 -5.97138,-4.48422 -2.77445,-0.69178 -5.24788,-0.29805 -7.42031,1.1812 -2.17246,1.4793 -3.7369,4.13677 -4.69332,7.97243 z"
         style="font-size:48px;font-style:normal;font-variant:normal;font-weight:bold;font-stretch:normal;text-align:start;line-height:100%;letter-spacing:13.80937672;writing-mode:lr-tb;text-anchor:start;font-family:Arial;-inkscape-font-specification:Arial Bold"
         id="path3062" />
      <path
         d="m 264.74739,667.80567 2.57757,-34.26256 14.56042,1.09538 c 3.6615,0.27549 6.2988,0.78336 7.9119,1.52361 1.61304,0.74031 2.85897,1.9348 3.7378,3.58347 0.87876,1.64872 1.24197,3.48583 1.08962,5.51133 -0.19344,2.57088 -1.10882,4.63694 -2.74615,6.19817 -1.63739,1.56127 -3.97604,2.44692 -7.01596,2.65695 1.43011,0.98507 2.59281,2.03619 3.48811,3.15337 0.89525,1.11719 2.06846,3.07008 3.51963,5.85867 l 3.68064,6.99896 -8.2735,-0.62242 -4.44061,-7.83175 c -1.57582,-2.79797 -2.66483,-4.56824 -3.26705,-5.31084 -0.60226,-0.74257 -1.25986,-1.26995 -1.97281,-1.58214 -0.71298,-0.31216 -1.86409,-0.52803 -3.45333,-0.6476 l -1.40229,-0.1055 -1.07604,14.30333 z m 8.40541,-19.25182 5.11835,0.38505 c 3.31873,0.24969 5.40155,0.26536 6.24846,0.047 0.84687,-0.21832 1.52981,-0.65268 2.04884,-1.3031 0.51898,-0.65038 0.81716,-1.48975 0.89455,-2.51811 0.0867,-1.15297 -0.15097,-2.10708 -0.71306,-2.86234 -0.56214,-0.75521 -1.39708,-1.26851 -2.50482,-1.5399 -0.55508,-0.12008 -2.23489,-0.28562 -5.03945,-0.49664 l -5.3988,-0.40615 z"
         style="font-size:48px;font-style:normal;font-variant:normal;font-weight:bold;font-stretch:normal;text-align:start;line-height:100%;letter-spacing:13.80937672;writing-mode:lr-tb;text-anchor:start;font-family:Arial;-inkscape-font-specification:Arial Bold"
         id="path3064" />
      <path
         d="m 344.03885,666.91492 -7.51585,0.68365 -3.69467,-7.50083 -13.67791,1.24417 -2.11726,8.0295 -7.32912,0.66668 10.21523,-35.43043 7.30578,-0.66455 z m -13.95235,-12.38074 -5.86991,-12.2687 -3.46655,13.11796 z"
         style="font-size:48px;font-style:normal;font-variant:normal;font-weight:bold;font-stretch:normal;text-align:start;line-height:100%;letter-spacing:13.80937672;writing-mode:lr-tb;text-anchor:start;font-family:Arial;-inkscape-font-specification:Arial Bold"
         id="path3066" />
      <path
         d="m 368.76212,661.61099 -6.97618,-27.68135 -9.88619,2.49149 -1.42044,-5.63627 26.47682,-6.67262 1.42044,5.63627 -9.86347,2.48577 6.97618,27.68134 z"
         style="font-size:48px;font-style:normal;font-variant:normal;font-weight:bold;font-stretch:normal;text-align:start;line-height:100%;letter-spacing:13.80937672;writing-mode:lr-tb;text-anchor:start;font-family:Arial;-inkscape-font-specification:Arial Bold"
         id="path3068" />
      <path
         d="m 402.71678,651.5263 -13.11907,-31.75621 23.54638,-9.72744 2.21933,5.37213 -17.13449,7.07857 2.90839,7.04008 15.94309,-6.58638 2.21037,5.35047 -15.94309,6.58638 3.57061,8.64306 17.74102,-7.32914 2.21037,5.35047 z"
         style="font-size:48px;font-style:normal;font-variant:normal;font-weight:bold;font-stretch:normal;text-align:start;line-height:100%;letter-spacing:13.80937672;writing-mode:lr-tb;text-anchor:start;font-family:Arial;-inkscape-font-specification:Arial Bold"
         id="path3070" />
      <path
         d="m 426.72714,603.3423 10.84292,-6.5731 c 2.44517,-1.48225 4.4225,-2.42513 5.93201,-2.82864 2.03144,-0.53711 4.05464,-0.53025 6.0696,0.0206 2.01495,0.55092 3.91213,1.57061 5.69154,3.05907 1.77938,1.48854 3.50337,3.60904 5.17197,6.36149 1.46607,2.41847 2.42902,4.68512 2.88887,6.79996 0.56108,2.58337 0.56113,4.94954 1.7e-4,7.09851 -0.42137,1.62582 -1.33712,3.24987 -2.74727,4.87213 -1.05836,1.20802 -2.68317,2.47621 -4.87445,3.80459 l -11.1636,6.7675 z m 8.94572,1.37413 11.79755,19.46113 4.42937,-2.68513 c 1.65682,-1.00437 2.79598,-1.82285 3.41748,-2.45542 0.81622,-0.82369 1.36752,-1.71519 1.65392,-2.6745 0.28636,-0.95928 0.23105,-2.21848 -0.16593,-3.77761 -0.39701,-1.55909 -1.284,-3.47438 -2.66098,-5.74587 -1.377,-2.27144 -2.63446,-3.89363 -3.7724,-4.86656 -1.13795,-0.97287 -2.27423,-1.58135 -3.40884,-1.82543 -1.13463,-0.244 -2.32934,-0.15013 -3.58415,0.28162 -0.94182,0.31517 -2.62194,1.20578 -5.04039,2.67183 z"
         style="font-size:48px;font-style:normal;font-variant:normal;font-weight:bold;font-stretch:normal;text-align:start;line-height:100%;letter-spacing:13.80937672;writing-mode:lr-tb;text-anchor:start;font-family:Arial;-inkscape-font-specification:Arial Bold"
         id="path3072" />
      <path
         d="m 516.19792,577.13341 -4.58626,4.7266 -17.81307,-17.28416 c -0.0609,3.29378 -0.84145,6.48788 -2.3418,9.58232 l -4.28927,-4.16191 c 0.79321,-1.6252 1.32813,-3.70786 1.60475,-6.24798 0.27666,-2.54007 -0.0752,-4.80826 -1.05559,-6.80458 l 3.72124,-3.83511 z"
         style="font-size:48px;font-style:normal;font-variant:normal;font-weight:bold;font-stretch:normal;text-align:start;line-height:100%;letter-spacing:13.80937672;writing-mode:lr-tb;text-anchor:start;font-family:Arial;-inkscape-font-specification:Arial Bold"
         id="path3074" />
      <path
         d="m 509.18344,543.00289 -4.96335,-3.57563 13.16546,-18.27501 3.8794,2.79475 c 0.39646,2.57727 1.42121,5.64564 3.07426,9.20514 1.65306,3.55956 3.74757,6.87384 6.28355,9.94286 2.53598,3.06905 5.03828,5.48315 7.50691,7.24229 l -3.71264,5.15352 c -3.79011,-2.86522 -7.14711,-6.49203 -10.07101,-10.88043 -2.92388,-4.38838 -5.06003,-8.97475 -6.40844,-13.75913 z"
         style="font-size:48px;font-style:normal;font-variant:normal;font-weight:bold;font-stretch:normal;text-align:start;line-height:100%;letter-spacing:13.80937672;writing-mode:lr-tb;text-anchor:start;font-family:Arial;-inkscape-font-specification:Arial Bold"
         id="path3076" />
      <path
         d="m 547.3911,521.79123 2.35277,-5.96654 c 1.21994,0.46695 2.25942,0.55603 3.11842,0.26722 0.859,-0.28879 1.54003,-0.90996 2.0431,-1.86354 0.6343,-1.2023 0.62103,-2.51659 -0.0398,-3.94287 -0.66084,-1.42625 -2.67057,-3.17549 -6.0292,-5.24773 0.92701,2.36168 0.81089,4.64117 -0.34835,6.83849 -1.26131,2.39083 -3.27192,3.96676 -6.03186,4.7278 -2.75992,0.76106 -5.61859,0.36147 -8.57603,-1.19877 -3.08177,-1.62584 -5.08285,-3.85191 -6.00323,-6.67824 -0.92034,-2.82628 -0.63321,-5.65596 0.86138,-8.48903 1.62587,-3.08176 4.15204,-4.98194 7.5785,-5.70053 3.42651,-0.71852 7.86914,0.36213 13.32792,3.24197 5.55553,2.93093 9.02008,6.07483 10.39367,9.43171 1.37357,3.35692 1.18911,6.68682 -0.55339,9.98972 -1.25402,2.377 -2.89969,3.96439 -4.93702,4.76217 -2.03733,0.79778 -4.42295,0.74051 -7.15687,-0.17183 z m -5.77253,-19.89885 c -1.87947,-0.99153 -3.56529,-1.32884 -5.05746,-1.01194 -1.49213,0.31695 -2.53713,1.04201 -3.135,2.17521 -0.56866,1.07796 -0.61578,2.19698 -0.14137,3.35705 0.47446,1.16012 1.67906,2.25053 3.6138,3.27122 1.96241,1.03532 3.60726,1.40843 4.93454,1.11935 1.32731,-0.28905 2.29717,-1.01401 2.90959,-2.17489 0.59056,-1.11938 0.64593,-2.29588 0.1661,-3.5295 -0.47981,-1.23359 -1.57655,-2.30242 -3.2902,-3.2065 z"
         style="font-size:48px;font-style:normal;font-variant:normal;font-weight:bold;font-stretch:normal;text-align:start;line-height:100%;letter-spacing:13.80937672;writing-mode:lr-tb;text-anchor:start;font-family:Arial;-inkscape-font-specification:Arial Bold"
         id="path3078" />
      <path
         d="m 578.10962,473.45935 -2.30854,6.16808 -23.24554,-8.70015 c 1.26381,3.04229 1.82822,6.28158 1.69324,9.71791 l -5.59737,-2.09493 c 0.0757,-1.80686 -0.26857,-3.92938 -1.03275,-6.36757 -0.76413,-2.43816 -1.99521,-4.3754 -3.69325,-5.81176 l 1.87312,-5.0047 z"
         style="font-size:48px;font-style:normal;font-variant:normal;font-weight:bold;font-stretch:normal;text-align:start;line-height:100%;letter-spacing:13.80937672;writing-mode:lr-tb;text-anchor:start;font-family:Arial;-inkscape-font-specification:Arial Bold"
         id="path3080" />
    </g>
    <path
       sodipodi:type="arc"
       style="fill:#000000;fill-opacity:1;stroke:#000000;stroke-width:3.48272991;stroke-linecap:round;stroke-linejoin:round;stroke-miterlimit:4;stroke-opacity:1;stroke-dasharray:none;stroke-dashoffset:0;display:inline"
       id="path3082"
       sodipodi:cx="30"
       sodipodi:cy="415"
       sodipodi:rx="5"
       sodipodi:ry="5"
       d="m 35,415 a 5,5 0 1 1 -10,0 5,5 0 1 1 10,0 z"
       transform="matrix(0.86139324,0,0,0.86139324,6.4094891,-190.25033)" />
    <path
       transform="matrix(0.86139324,0,0,0.86139324,241.56984,-190.25033)"
       d="m 35,415 a 5,5 0 1 1 -10,0 5,5 0 1 1 10,0 z"
       sodipodi:ry="5"
       sodipodi:rx="5"
       sodipodi:cy="415"
       sodipodi:cx="30"
       id="path3086"
       style="fill:#000000;fill-opacity:1;stroke:#000000;stroke-width:3.48272991;stroke-linecap:round;stroke-linejoin:round;stroke-miterlimit:4;stroke-opacity:1;stroke-dasharray:none;stroke-dashoffset:0;display:inline"
       sodipodi:type="arc" />
  </g>
  <g
     inkscape:groupmode="layer"
     id="layer3"
     inkscape:label="Regions"
     style="display:inline">
    <g
       id="g3088"
       transform="matrix(0.86139324,0,0,0.86139324,-21.554014,-6.1676454)"
       style="stroke:#000000;stroke-width:2.32181978;stroke-opacity:1">
      <path
         style="fill:none;stroke:#000000;stroke-width:2.32181978;stroke-linecap:round;stroke-miterlimit:4;stroke-opacity:1;stroke-dasharray:none"
         id="path225"
         d="m 212.82433,96.592541 -0.30987,0.40594 -0.69298,2.07651 -0.71792,0.62264 -3.48613,0.553419 -1.28061,0.40688 -0.45637,0.35482 0,0 -0.34945,0.50603 0,0 -0.29927,0.83496 -0.41554,0.52692 -0.79836,0.53877 -1.34232,0.59146 -0.43674,0.59427 -0.23349,0.60486 -0.9564,0.53098 -1.12754,0.12097 -2.09891,-0.8702 -0.457,0.23291 -0.0487,0.21357 0.24534,0.80316 -0.15868,0.25349 -0.534,-0.002 -0.95297,-0.42559 -0.46947,0.0964 -0.42988,0.46331 -0.0786,0.50416 0.5393,0.96124 0.0676,0.70713 -0.31111,0.36074 -0.51406,0.27063 -1.77719,-0.0271 -1.65188,0.33642 -1.22294,1.3067 -0.77466,0.087 -1.89502,-0.70308 -0.6933,-0.0474 -0.28119,0.25192 -0.57546,1.47475 -0.0455,0.57587 -0.44391,0.33455 -2.60298,10.24034 -1.1877,4.39527 -4.19096,15.27632 -1.35511,4.71889 0,0 -3.07869,0.84496 -2.74263,0.37975 -3.51262,0.96498 0,0 -0.26778,0.28154 0,0 -1.05927,0.53378 0,0 -1.21328,-0.42278 -0.12749,0.002 -1.12879,-0.43245 -1.1793,-0.3969 -0.51311,-0.19954 -0.2045,0.003 -0.28274,-0.16837 0,0 0.0976,-0.27842 1.20174,-1.40429 0.96481,-0.25785 0.54928,-0.73582 0.70577,-2.12389 -0.2921,-1.27084 0,0 -0.0686,-2.15228 0,0 -0.68519,-1.74507 -0.94705,-3.21421 -0.52402,-1.08533 -0.72323,-1.05603 0,0 -0.081,-0.2407 0,0 -0.30706,-1.22376 -0.14776,-2.07027 -0.38748,-1.96457 0,0 -0.55146,-1.04449 0.48755,-2.84287 0.11067,-2.88123 0,0 -0.78371,-1.45261 -0.82048,-0.98992 0,0 -0.33948,-1.09095 0,0 -0.60819,-1.47382 0,0 -0.0879,-0.3492 0,0 -0.28368,-0.42309 0.24628,-1.47726 -0.11535,-0.81407 0,0 -0.0106,-0.97153 0,0 0.30799,-1.4336 0,0 0.83919,-2.35866 0,0 1.83113,-2.51519 0.82205,-1.05696 0,0 1.0309,-1.3756 0,0 0.10599,-0.17305 0,0 0.1755,-0.60237 0,0 -0.001,-0.10476 0,0 0.0708,-0.19892 0,0 0.58201,-1.06818 0.43206,-0.42715 0,0 0.2017,-0.20484 0,0 1.09979,-0.86365 0,0 0.92773,-0.646959 2.48389,-0.34048 1.13098,-0.66628 0,0 10.10518,-0.37477 0,0 2.12758,-0.10227 0,0 0.59323,-0.0199 0,0 1.98761,-0.068 0,0 10.35551,-0.44648 0,0 2.27347,-0.10071 0,0 2.59208,-0.11193 0,0 0.90745,-0.0393 0,0 2.5369,-0.11411 0,0 1.05085,-0.0414 0,0 8.94272,-0.35918 z" />
      <path
         style="fill:none;stroke:#000000;stroke-width:2.32181978;stroke-linecap:round;stroke-miterlimit:4;stroke-opacity:1;stroke-dasharray:none"
         id="path1265"
         d="m 176.25104,147.58439 5.82663,-1.05009 10.26229,-1.78842 6.37372,-1.11432 2.98485,-0.52193 1.39221,-0.24475 0,0 -3.47709,14.03852 -0.20668,0.92383 -1.56864,6.28687 -0.47446,1.35908 -2.95742,11.99913 0,0 -4.6065,0.91042 -4.48118,0.80316 -1.24786,0.19394 -6.49157,1.25088 0,0 -5.15576,0.89047 -0.98165,0.17959 -4.68725,0.76793 -0.35662,0.0402 0,0 -0.0561,-0.31054 -0.029,-0.20734 -0.35661,-3.14593 -0.31579,-2.17658 -0.17395,-1.31325 -0.29023,-2.17752 0,0 -0.0592,-0.51819 0,0 -0.26964,-2.52392 -0.14153,-0.86334 0,0 -0.092,-0.96841 0,0 -0.10567,-0.2407 0,0 -0.0527,-0.10289 0,0 -0.4598,-1.62036 -0.15899,-0.37851 -0.10692,-0.30992 -0.78089,-2.55072 0.3376,-2.84475 0.61879,-2.81513 0.6453,-2.74591 2.12727,-0.96872 0.0389,-0.76263 -0.12968,-0.13656 -1.22574,-2.17036 0,0 1.05927,-0.53378 0,0 0.26778,-0.28154 0,0 3.51262,-0.96498 2.74264,-0.37976 3.07868,-0.84494 0,0 0.22851,-0.0673 z" />
      <path
         d="m 160.71235,149.04168 0.28273,0.16838 0.2045,-0.003 0.51312,0.19955 1.17929,0.3969 1.12879,0.43246 0.12749,-0.002 1.21328,0.42278 0,0 1.22574,2.17035 0.12968,0.13657 -0.0389,0.76263 -2.12728,0.96872 -0.64529,2.7459 -0.6188,2.81514 -0.3376,2.84474 0.78089,2.55073 0.10692,0.30991 0.15899,0.37851 0.4598,1.62036 0,0 0.0527,0.10289 0,0 0.10567,0.2407 0,0 0.092,0.96841 0,0 0.14152,0.86334 0.26966,2.52392 0,0 0.0592,0.51819 0,0 0.29022,2.17752 0.17394,1.31325 0.31579,2.17658 0.35663,3.14594 0.029,0.20733 0.0561,0.31055 0,0 -0.15306,0.0371 -1.70675,0.2697 -0.74629,0.11629 -6.41767,0.72334 -4.76704,0.59302 0,0 0.99007,-2.05842 0.0205,-0.31178 -0.30582,-1.62317 0,0 -0.0462,-1.34972 0.51125,-2.19997 0,0 0.15929,-0.68469 0,0 0.27869,-1.06132 0,0 0.0589,-0.22542 0.17925,-0.80472 0.24908,-1.21037 0,0 0.0181,-0.1378 0,0 0.0505,-0.38257 0,0 0.36815,-0.65693 0,0 0.27808,-0.49606 0,0 0.24221,-0.24132 0,0 0.35538,-0.35325 0,0 0.53368,-0.53098 0.33449,-1.4601 0.0119,-0.13906 0.15181,-1.74164 0.12033,-1.38465 0,0 0.0655,-0.7539 0,0 0.0184,-0.21139 -0.0549,-0.27593 0.55519,-1.47007 0,0 0.13966,-1.41521 0,0 0.0904,-1.82737 0,0 0.0308,-0.21733 0,0 0.10818,-0.40251 0.22538,-0.83903 0,0 0.12438,-0.46268 0,0 0.13436,-0.41126 0,0 0.69329,-2.1295 0,0 0.22976,-0.85835 0,0 0.17987,-0.6719 0,0 0.0234,-0.13906 0,0 0.47041,-1.24433 0,0 0.1649,-0.53192 0.34634,-2.29101 z"
         id="path2639"
         style="fill:none;stroke:#000000;stroke-width:2.32181978;stroke-linecap:round;stroke-miterlimit:4;stroke-opacity:1;stroke-dasharray:none" />
      <path
         style="fill:none;stroke:#000000;stroke-width:2.32181978;stroke-linecap:round;stroke-miterlimit:4;stroke-opacity:1;stroke-dasharray:none"
         id="path221"
         d="m 216.35005,96.416381 3.77104,-0.0165 1.01251,9.041829 0.76313,6.99993 0.90496,7.79936 0.27308,1.09749 2.94527,17.55206 0,0 -22.92931,3.97435 0,0 -1.3922,0.24476 -2.98486,0.52193 -6.37371,1.11432 -10.26229,1.78842 -5.82663,1.05009 0,0 -0.2285,0.0673 0,0 1.35511,-4.71889 4.19096,-15.27633 1.1877,-4.39526 2.60298,-10.24034 0.44391,-0.33455 0.0455,-0.57587 0.57546,-1.47475 0.28119,-0.25193 0.6933,0.0474 1.89503,0.70308 0.77465,-0.087 1.22294,-1.30671 1.65188,-0.33642 1.77719,0.0271 0.51406,-0.27063 0.31111,-0.36073 -0.0676,-0.70713 -0.5393,-0.96124 0.0786,-0.50416 0.42988,-0.46332 0.46947,-0.0964 0.95297,0.4256 0.534,0.002 0.15868,-0.25348 -0.24534,-0.80317 0.0487,-0.21357 0.457,-0.2329 2.09891,0.87019 1.12754,-0.12097 0.9564,-0.53097 0.23349,-0.60487 0.43674,-0.59427 1.34233,-0.59145 0.79836,-0.53878 0.41553,-0.52692 0.29927,-0.83496 0,0 0.34946,-0.50603 0,0 0.45637,-0.35482 1.28061,-0.40688 3.48612,-0.553419 0.71792,-0.62264 0.69299,-2.0765 0.30986,-0.40595 0,0 0.5471,-0.19954 2.97862,0.0234 z" />
      <path
         style="fill:none;stroke:#000000;stroke-width:2.32181978;stroke-linecap:round;stroke-miterlimit:4;stroke-opacity:1;stroke-dasharray:none"
         id="path405"
         d="m 260.87878,132.62796 -0.0181,1.42955 -1.44739,-0.50541 -0.26839,0.30399 -0.32857,4.83957 0.88875,2.15569 -0.61848,2.03067 -1.13128,2.14198 4.09743,19.27967 2.92563,-0.0327 0,0 -2.16812,8.61561 0,0 -1.1584,0.11754 -0.29365,0.98275 -0.52029,0.96094 -1.60325,-1.36905 -1.98169,-0.38133 -1.54901,1.13709 -0.71076,0.23915 -2.89663,-0.48639 -0.60133,-0.96904 -0.22788,-0.1297 -1.44457,0.0808 0,0 -0.0156,0.0487 0,0 -2.9995,-0.5793 -0.69704,1.17886 -1.06145,0.87239 -1.79372,0.2591 -1.35043,-0.1082 -3.35956,-2.07775 0,0 0.0181,-0.0356 0,0 -1.40156,-0.18551 -7.45731,-0.3255 0,0 2.71053,-13.19078 1.08047,-5.00232 2.36232,-10.94684 1.13846,-5.97977 0,0 9.53314,-1.71327 14.34913,-2.65549 z" />
      <path
         style="fill:none;stroke:#000000;stroke-width:2.32181978;stroke-linecap:round;stroke-miterlimit:4;stroke-opacity:1;stroke-dasharray:none"
         id="path749"
         d="m 226.02004,138.89052 10.97647,-1.8938 0,0 -1.13846,5.97977 -2.36231,10.94685 -1.08048,5.00232 -2.71052,13.19077 0,0 -7.52496,0.89358 0,0 -16.87604,2.64957 0,0 -0.65994,0.21357 0,0 -7.38467,1.16889 -2.85268,0.43028 0,0 2.95742,-11.99914 0.47446,-1.35908 1.56864,-6.28687 0.20668,-0.92383 3.47709,-14.03853 0,0 22.9293,-3.97435 z" />
      <path
         id="path2669"
         d="m 212.82422,96.590561 0.54715,-0.19985 2.97856,0.0222 0.31753,-0.26097 0.0563,-0.24412 -0.15072,-1.34256 0.0712,-0.45646 2.18457,-0.89483 1.87259,-1.61724 1.59788,-0.12159 0.50561,0.86552 1.09079,0.35575 1.08443,-0.63262 1.07501,-0.26689 0.99207,0.13749 0.95156,0.48172 0.24584,0.56963 0.58475,0.5316 0.82105,-0.30025 1.13879,-0.0299 1.097,1.13366 1.66802,0.75203 0.97187,1.05664 -0.11435,0.23166 2.9294,-0.15714 3.13034,-0.0434 0,0 5.73933,-0.0826 0,0 14.98302,-0.217 -0.0169,0.40564 -0.003,0.73487 -0.0314,13.609829 -0.003,1.32416 -0.16219,12.90985 -0.0982,7.77879 -34.88823,6.28565 -2.89444,-17.57271 -0.30468,-1.09195 -2.71474,-23.857409 -6.71453,0"
         style="fill:none;stroke:#000000;stroke-width:2.32181978;stroke-linecap:round;stroke-miterlimit:4;stroke-opacity:1" />
      <path
         style="fill:none;stroke:#000000;stroke-width:2.32181978;stroke-linecap:round;stroke-miterlimit:4;stroke-opacity:1;stroke-dasharray:none"
         id="path487"
         d="m 166.39806,182.50892 0.35662,-0.0402 4.68725,-0.76793 0.98165,-0.17958 5.15576,-0.89047 0,0 -0.23816,1.04292 0,0 -0.1674,0.69529 0,0 -0.51468,2.88279 -1.29712,6.60084 0,0 -0.0233,0.13874 0,0 -0.70545,3.75174 0,0 -1.2831,5.94329 -0.54834,2.46748 0,0 -9.43432,-1.64997 -4.40917,-0.79662 -0.82486,-0.17647 0.004,-0.18396 -0.5923,-0.352 -0.0602,0.40906 -1.13939,-0.2011 -1.21327,-0.76763 -0.29927,0.50199 -3.49765,-0.70932 -0.17863,0.0854 -4.03914,-0.67533 0,0 0.21759,-1.06849 0.0926,-0.39067 1.61446,-1.4096 0,0 0.15245,-0.0714 0.17924,0.0318 0,0 1.04587,0.41124 0.5446,0.44461 0.1063,-0.18895 2.33894,0.86459 0.23069,0.0312 -0.0321,-0.41499 0,0 0.20543,-3.2588 0,0 -0.15835,-0.79194 -2.04248,-1.00239 -0.85759,1.3544 -1.9474,-1.07691 0,0 -0.25033,-0.14747 0,0 -0.26528,-0.15621 0,0 -0.2843,-0.20329 0,0 0.42053,-0.94129 0,0 1.71267,-3.31554 2.46644,-4.0894 0,0 4.76703,-0.59302 6.41768,-0.72334 0.74629,-0.1163 1.70674,-0.2697 0.15307,-0.0371 z" />
      <path
         style="fill:none;stroke:#000000;stroke-width:2.32181978;stroke-linecap:round;stroke-miterlimit:4;stroke-opacity:1;stroke-dasharray:none"
         id="path937"
         d="m 171.97249,219.93211 12.54232,-2.01196 0,0 -2.23451,14.77497 -0.10288,0.67689 0,0 -0.32732,0.31647 0.0147,1.3226 -0.16491,0.56496 -0.76186,0.84463 0,0 -0.0602,0.12565 0,0 -0.62783,0.20328 -0.4433,0.65071 -0.0414,1.55706 0.46074,1.24558 0,0 0.0197,0.69623 -0.69423,1.56423 -0.42333,0.23697 -0.14683,0.67564 -1.07953,1.71358 -1.02655,0.0427 -0.75814,1.67461 0.50782,1.46696 0,0 -0.20574,1.26929 0,0 -1.71049,1.53866 0,0 -0.58138,0.31491 -0.59136,1.341 -0.2762,0.82405 0.20232,0.46238 0,0 0.0733,0.0496 0,0 0.24938,1.52402 -0.28367,0.0723 -0.31953,0.91666 0,0 -0.2257,1.61599 0,0 -4.79915,0.72491 0,0 -8.74196,1.35097 -1.33516,0.20547 -0.30799,0.0571 -6.93703,1.07161 0,0 -2.87356,0.44336 0,0 -2.1918,0.33767 0,0 -11.74678,1.72418 0,0 -0.54615,-2.55479 -0.13716,-2.13886 0,0 0.101,-3.25474 1.145,-3.51291 1.23914,-2.9651 2.29375,-4.26867 0.73039,-1.07941 0,0 0.64997,-1.80587 0,0 0.68113,-2.74311 0.30675,-2.69696 0,0 0.0389,-0.34047 0.002,-0.27998 0,0 0.0521,-1.69737 0.57296,-2.81357 0.43487,-3.44837 0,0 -0.10131,-3.44774 0,0 0.55052,-0.0798 7.74534,-1.29048 4.03229,-0.71929 0,0 0.25562,-0.004 0,0 1.26751,-0.19986 0,0 0.36567,-0.068 0,0 0.76499,-0.18458 2.83429,-0.39035 0.97012,-0.1534 5.66328,-1.05883 3.71867,-0.59427 0,0 1.11227,-0.18489 0,0 0.28648,-0.0356 0,0 0.3956,-0.0748 0,0 0.52433,-0.0998 z" />
      <path
         style="fill:none;stroke:#000000;stroke-width:2.32181978;stroke-linecap:round;stroke-miterlimit:4;stroke-opacity:1;stroke-dasharray:none"
         id="path1095"
         d="m 229.70474,172.11643 7.4573,0.32551 1.40156,0.18551 0,0 -0.018,0.0356 0,0 3.35955,2.07775 1.35043,0.10819 1.79372,-0.25909 1.06146,-0.87239 0.69704,-1.17886 2.9995,0.5793 0,0 0.0156,-0.0487 0,0 1.44457,-0.0807 0.22788,0.1297 0.60134,0.96903 2.89663,0.4864 0.71076,-0.23915 1.54901,-1.13709 1.98169,0.38132 1.60325,1.36906 0.52029,-0.96094 0.29365,-0.98275 1.1584,-0.11754 0,0 -9.0883,36.02732 0,0 -16.18835,1.98047 -23.28094,2.81731 0,0 0.91338,-4.07038 0,0 -0.002,-0.19923 0,0 3.00854,-16.85896 0,0 4.00704,-19.57306 0,0 7.52495,-0.89358 z" />
      <path
         style="fill:none;stroke:#000000;stroke-width:2.32181978;stroke-linecap:round;stroke-miterlimit:4;stroke-opacity:1;stroke-dasharray:none"
         id="path1097"
         d="m 205.30375,175.65958 16.87604,-2.64957 0,0 -4.00704,19.57307 0,0 -12.52548,2.39951 -5.79046,0.64634 -7.13279,1.37031 -4.4578,0.87237 -4.58811,-0.7539 -9.04497,-1.37467 0,0 0.70546,-3.75173 0,0 0.0234,-0.13875 0,0 1.29712,-6.60084 0.51468,-2.88279 0,0 0.1674,-0.69529 0,0 0.23816,-1.04292 0,0 6.49156,-1.25089 1.24787,-0.19394 4.48118,-0.80316 4.60649,-0.91042 0,0 2.85268,-0.43026 7.38467,-1.16889 0,0 0.65995,-0.21358 z" />
      <path
         style="fill:none;stroke:#000000;stroke-width:2.32181978;stroke-linecap:round;stroke-miterlimit:4;stroke-opacity:1;stroke-dasharray:none"
         id="path1165"
         d="m 214.25269,213.71164 23.28094,-2.8173 16.18836,-1.98047 0,0 -6.89931,27.25549 -2.59612,10.23692 0,0 -6.74156,0.95001 -4.48149,0.73083 0,0 -1.525,0.2485 0,0 -10.89917,1.74351 0,0 -0.33137,0.0798 0,0 -0.86756,0.14904 0,0 -0.0243,0.004 0,0 -14.96698,2.46748 0,0 2.1731,-8.9246 3.69281,-14.65119 1.83953,-6.7477 2.15814,-8.74376 z" />
      <path
         style="fill:none;stroke:#000000;stroke-width:2.32181978;stroke-linecap:round;stroke-miterlimit:4;stroke-opacity:1;stroke-dasharray:none"
         id="path1893"
         d="m 218.17275,192.58308 -3.00854,16.85896 0,0 0.002,0.19922 0,0 -0.91338,4.07038 0,0 -3.60271,0.43994 -5.00085,0.58803 -4.50081,0.28841 -12.9591,2.12701 -2.4652,0.51351 -1.20921,0.25162 0,0 -12.54232,2.01196 0,0 -0.52433,0.0998 0,0 -0.39559,0.0748 0,0 -0.28649,0.0356 0,0 -1.11226,0.1849 0,0 1.60325,-8.91057 1.25597,-6.15 0.28867,-1.11277 0,0 0.54834,-2.46749 1.2831,-5.94329 0,0 9.04496,1.37467 4.58811,0.75391 4.4578,-0.87239 7.13279,-1.3703 5.79046,-0.64634 12.52548,-2.39951 z" />
      <path
         style="fill:none;stroke:#000000;stroke-width:2.32181978;stroke-linecap:round;stroke-miterlimit:4;stroke-opacity:1;stroke-dasharray:none"
         id="path1953"
         d="m 184.51481,217.92015 1.20921,-0.25161 2.4652,-0.51352 12.9591,-2.12701 4.50082,-0.2884 5.00084,-0.58803 3.60271,-0.43994 0,0 -2.15813,8.74377 -1.83955,6.7477 -3.6928,14.65119 -2.1731,8.92459 0,0 -2.314,0.43433 0,0 -0.80895,0.15371 0,0 -0.56455,0.10725 0,0 -0.83389,0.1322 -1.90096,0.34328 0,0 -5.31195,0.96093 0,0 -5.68572,1.11931 0,0 -0.41648,0.0758 0,0 -11.98213,1.83143 -1.61478,0.26565 0,0 0.2257,-1.616 0,0 0.31953,-0.91665 0.28367,-0.0723 -0.24938,-1.52403 0,0 -0.0733,-0.0496 0,0 -0.20232,-0.46238 0.2762,-0.82405 0.59136,-1.341 0.58138,-0.31491 0,0 1.71049,-1.53867 0,0 0.20574,-1.26928 0,0 -0.50781,-1.46696 0.75813,-1.67461 1.02655,-0.0427 1.07954,-1.71358 0.14682,-0.67565 0.42333,-0.23696 0.69424,-1.56423 -0.0197,-0.69623 0,0 -0.46075,-1.24558 0.0414,-1.55707 0.44329,-0.6507 0.62783,-0.20329 0,0 0.0602,-0.12565 0,0 0.76187,-0.84462 0.16491,-0.56497 -0.0147,-1.3226 0.32732,-0.31646 0,0 0.10287,-0.67689 2.23452,-14.77497 z" />
      <path
         style="fill:none;stroke:#000000;stroke-width:2.32181978;stroke-linecap:round;stroke-miterlimit:4;stroke-opacity:1;stroke-dasharray:none"
         id="path2001"
         d="m 147.1173,199.63789 4.03914,0.67533 0.17862,-0.0854 3.49766,0.70931 0.29927,-0.50198 1.21327,0.76763 1.13939,0.2011 0.0602,-0.40906 0.5923,0.352 -0.004,0.18396 0.82486,0.17647 4.40916,0.79662 9.43433,1.64997 0,0 -0.28867,1.11277 -1.25598,6.15 -1.60324,8.91057 0,0 -3.71868,0.59426 -5.66328,1.05883 -0.97011,0.1534 -2.83429,0.39036 -0.76499,0.18458 0,0 -0.36567,0.068 0,0 -1.26751,0.19985 0,0 -0.25562,0.004 0,0 -4.03228,0.7193 -7.74536,1.29048 -0.55052,0.0798 0,0 -0.54179,-2.03503 -0.76499,-1.5817 -0.62784,-2.56881 0,0 -0.46448,-2.12452 -0.0907,-0.96811 0.0421,-2.35554 0.37284,-1.18666 0,0 0.0427,-0.13532 0,0 1.78966,-0.0262 1.95301,-1.10248 0.40058,-4.02299 0.11409,-0.93661 2.04311,-0.13438 0.15244,-0.0714 -0.27869,-1.51996 1.00971,-2.57754 0.21884,-0.73084 0.26123,-1.35409 z" />
      <path
         style="fill:none;stroke:#000000;stroke-width:2.32181978;stroke-linecap:round;stroke-miterlimit:4;stroke-opacity:1;stroke-dasharray:none"
         id="path1883"
         d="m 148.00761,192.59461 0.2843,0.20329 0,0 0.26529,0.15621 0,0 0.25032,0.14747 0,0 1.9474,1.07692 0.85759,-1.35441 2.04248,1.0024 0.15836,0.79193 0,0 -0.20543,3.2588 0,0 0.0321,0.41499 -0.23069,-0.0312 -2.33894,-0.86458 -0.1063,0.18894 -0.5446,-0.44461 -1.04587,-0.41124 0,0 -0.17924,-0.0318 -0.15244,0.0714 0,0 -1.61447,1.40959 -0.0926,0.39067 -0.21759,1.06849 0,0 -0.26123,1.35409 -0.21884,0.73084 -1.00971,2.57754 0.27869,1.51996 -0.15243,0.0714 -2.04311,0.13438 -0.11409,0.9366 -0.40059,4.02299 -1.95301,1.10249 -1.78966,0.0262 0,0 1.61354,-5.04503 0.54397,-2.89775 0.41928,-1.13335 0,0 0.12999,-0.41343 0,0 0.18736,-0.59551 0.2656,-1.04293 1.18458,-2.85722 0.5842,-0.84806 2.55497,-2.83508 0,0 1.0708,-1.85139 z" />
    </g>
  </g>
</svg>
