<?xml version="1.0" encoding="utf-8"?>
<!-- Generator: Adobe Illustrator 26.1.0, SVG Export Plug-In . SVG Version: 6.00 Build 0)  -->
<svg version="1.2" baseProfile="tiny" id="Layer_1" xmlns="http://www.w3.org/2000/svg" xmlns:xlink="http://www.w3.org/1999/xlink"
	 x="0px" y="0px" viewBox="-9.756 0 324.36 324.36" overflow="visible" xml:space="preserve">
<path fill="#FFFFFF" stroke="#231F20" stroke-width="8" stroke-miterlimit="10" d="M299.477,245.522l-35.826-32.354
	c41.411-61.46,25.157-144.854-36.303-186.265C205.219,11.993,179.146,4.019,152.463,4h-0.078
	C78.275,4.052,18.239,64.172,18.292,138.282c0.019,26.685,7.993,52.758,22.904,74.887L5.371,245.522
	c34.208,46.837,88.651,74.615,146.65,74.826v0.012c0.135,0,0.268-0.006,0.4-0.006c0.132,0,0.268,0.006,0.4,0.006v-0.012
	C210.822,320.14,265.267,292.361,299.477,245.522z"/>
<g>
	<polyline fill="#FFFFFF" stroke="#231F20" stroke-width="2" stroke-miterlimit="10" points="170.797,78.906 170.797,109.149 
		195.548,94.859 211.907,123.193 184.732,138.882 210.907,153.995 194.548,182.328 170.797,168.616 170.797,197.472 
		170.788,197.472 133.141,197.472 133.132,197.472 133.132,168.616 109.38,182.328 93.022,153.995 119.197,138.882 92.022,123.193 
		108.38,94.859 133.132,109.149 133.132,78.906 133.141,78.906 170.788,78.906 170.797,78.906 	"/>
	<g>
		<polygon fill="#206FB7" points="127.632,202.972 127.632,178.143 107.367,189.843 85.509,151.981 108.196,138.882 84.509,125.207 
			106.367,87.345 127.632,99.622 127.632,78.906 127.643,73.406 176.297,73.406 176.297,99.622 197.562,87.345 219.42,125.207 
			195.733,138.882 218.42,151.981 196.562,189.843 176.297,178.143 176.297,197.472 176.286,202.972 		"/>
		<path fill="#231F20" d="M175.297,74.402v26.949l18-10.392l3.9-2.25l2.25,3.9l16.358,28.335l2.25,3.9l-3.9,2.25l-20.424,11.792
			l19.424,11.215l3.9,2.25l-2.25,3.9l-16.361,28.328l-2.25,3.9l-3.9-2.25l-17-9.815v21.062l-0.009,4.5h-46.653V176.41l-17,9.815
			l-3.9,2.25l-2.25-3.9l-16.356-28.331l-2.25-3.9l3.9-2.25l19.424-11.215L89.772,127.09l-3.9-2.25l2.25-3.9l16.358-28.335l2.25-3.9
			l3.9,2.25l18,10.392V78.902l0.009-4.5H175.297 M177.296,72.402h-50.651v2l-0.009,4.5V97.89l-15-8.66l-3.9-2.25l-1.732-1l-1,1.732
			l-2.25,3.9l-16.36,28.331l-2.25,3.9l-1,1.732l1.732,1l3.9,2.25l17.424,10.06l-16.427,9.479l-3.9,2.25l-1.732,1l1,1.732l2.25,3.9
			l16.358,28.334l2.25,3.9l1,1.732l1.732-1l3.9-2.25l14-8.083v24.101h50.653v-2l0.009-4.5v-17.6l14,8.083l3.9,2.25l1.732,1l1-1.732
			l2.25-3.9l16.358-28.334l2.25-3.9l1-1.732l-1.732-1l-3.9-2.25l-16.424-9.482l17.424-10.06l3.9-2.25l1.732-1l-1-1.732l-2.25-3.9
			l-16.356-28.331l-2.25-3.9l-1-1.732l-1.732,1l-3.9,2.25l-15,8.66V72.402l0,0H177.296z"/>
	</g>
</g>
<g>
	<circle fill="none" stroke="#E21F26" stroke-width="39" stroke-miterlimit="10" cx="152.424" cy="138.188" r="92.557"/>
	<circle fill="none" stroke="#C7C8CA" stroke-width="5" stroke-miterlimit="10" cx="152.424" cy="138.188" r="121.785"/>
</g>
<g>
	<g>
		<polyline fill="#58595B" points="120.808,215.607 132.099,215.607 132.099,222.107 139.099,227.233 139.099,228.858 
			116.188,228.858 120.808,225.221 120.808,215.607 		"/>
		<path fill="#414042" d="M139.599,229.358h-23.843l0.085-1.279l4.466-3.119v-9.854H132.6v6.746l7,5.125v2.379L139.599,229.358z
			 M117.188,228.358h21.412v-0.871l-7-5.125v-6.256h-10.292v9.373L117.188,228.358z"/>
	</g>
	<path fill="#6D6E71" stroke="#414042" stroke-miterlimit="10" d="M31.639,244.2c0,0,17.292-35.964,89.419-34.839v15.734
		c0,0-57.751-4.833-77.835,30.418L31.639,244.2z"/>
	<g>
		<path fill="#58595B" d="M34.481,246.976l-8.342,10.787l7.958,0.417l2.875,11.667c0,0,7.792-13.25,9.833-13.958l-3.25,0.125
			L34.481,246.976z"/>
		<path fill="#414042" d="M36.781,271.159l-3.08-12.5l-8.542-0.447l9.272-11.99l9.322,9.283l4.462-0.172l-1.246,1.027
			c-1.049,0.784-6.59,8.678-9.566,13.739L36.781,271.159z M27.117,257.313l7.375,0.387l2.672,10.84
			c1.749-2.928,5.786-9.516,8.2-12.1l-2.006,0.077l-8.828-8.791L27.117,257.313z"/>
	</g>
	<polyline fill="#6D6E71" points="120.808,225.221 115.599,228.858 115.599,225.011 120.808,225.221 	"/>
	<path fill="#414042" d="M115.099,229.426v-4.936l6.017,0.243l0.446,0.88l-5.094,3.745L115.099,229.426z M116.099,225.531v2.368
		l3.205-2.239L116.099,225.531z"/>
	<g>
		<polygon fill="#6D6E71" points="139.099,227.233 139.099,222.232 132.27,222.232 		"/>
		<path fill="#414042" d="M139.599,228.219l-7.787-5.465l0.125-1.021h7.662V228.219L139.599,228.219z M133.799,222.733l4.8,3.515
			v-3.515H133.799z"/>
	</g>
	<g>
		<polyline fill="#58595B" points="184.1,215.607 172.809,215.607 172.809,222.107 165.809,227.233 165.809,228.858 188.72,228.858 
			184.1,225.221 184.1,215.607 		"/>
		<path fill="#414042" d="M165.308,226.98l7-5.125v-6.749H184.6v9.852l4.466,3.119l0.085,1.279h-23.844v-2.379V226.98z
			 M183.6,225.48v-9.374h-10.292v6.254l-7,5.125v0.871h21.412L183.6,225.48z"/>
	</g>
	<path fill="#6D6E71" stroke="#414042" stroke-miterlimit="10" d="M273.27,244.2c0,0-17.292-35.964-89.419-34.839v15.734
		c0,0,57.751-4.833,77.835,30.418L273.27,244.2z"/>
	<g>
		<path fill="#58595B" d="M270.427,246.976l8.342,10.787l-7.958,0.417l-2.875,11.666c0,0-7.792-13.25-9.833-13.958l3.25,0.125
			L270.427,246.976z"/>
		<path fill="#414042" d="M267.504,270.101c-2.976-5.062-8.517-12.955-9.566-13.739l-1.246-1.027l4.462,0.172l9.322-9.283
			l9.272,11.99l-8.542,0.447l-3.08,12.5L267.504,270.101z M270.378,247.73l-8.828,8.791l-2.006-0.077
			c2.412,2.581,6.449,9.169,8.2,12.1l2.672-10.84l7.375-0.387L270.378,247.73z"/>
	</g>
	<g>
		<polyline fill="#6D6E71" points="184.1,225.221 189.309,228.858 189.309,225.011 184.1,225.221 		"/>
		<path fill="#414042" d="M188.439,229.358l-5.094-3.745l0.446-0.88l6.017-0.243v4.936L188.439,229.358z M185.604,225.658
			l3.205,2.239v-2.368L185.604,225.658z"/>
	</g>
	<g>
		<polygon fill="#6D6E71" points="165.809,227.233 165.809,222.232 172.638,222.232 		"/>
		<path fill="#414042" d="M165.308,221.732h7.662l0.125,1.021l-7.787,5.465V221.732L165.308,221.732z M166.308,222.732v3.515
			l4.8-3.515H166.308z"/>
	</g>
	<rect x="131.641" y="206.232" fill="#6D6E71" stroke="#414042" stroke-miterlimit="10" width="41.626" height="16"/>
</g>
<path fill="none" stroke="#6D6E71" stroke-width="23" stroke-miterlimit="10" d="M250.585,255.492
	c-56.798,47.523-139.482,47.533-196.292,0.025"/>
</svg>
