<?xml version="1.0" encoding="utf-8"?>
<!-- Generator: Adobe Illustrator 17.0.0, SVG Export Plug-In . SVG Version: 6.00 Build 0)  -->
<!DOCTYPE svg PUBLIC "-//W3C//DTD SVG 1.1//EN" "http://www.w3.org/Graphics/SVG/1.1/DTD/svg11.dtd">
<svg version="1.1" id="Layer_1" xmlns="http://www.w3.org/2000/svg" xmlns:xlink="http://www.w3.org/1999/xlink" x="0px" y="0px"
	 width="420px" height="207.352px" viewBox="0 0 420 207.352" enable-background="new 0 0 420 207.352" xml:space="preserve">
<path fill="#FFFFFF" stroke="#000000" stroke-miterlimit="10" d="M108.401,5.29c-54.014,0.374-97.686,44.27-97.686,98.371
	s43.672,97.997,97.686,98.371v0.029h300.885V5.29H108.401z"/>
<g>
	<g>
		<path fill="none" stroke="#000000" stroke-width="0.9642" d="M109.724,192.704c49.334,0,89.332-39.999,89.332-89.333
			c0-49.336-39.999-89.333-89.332-89.333c-49.334,0-89.333,39.996-89.333,89.333C20.392,152.705,60.391,192.704,109.724,192.704z"/>
		<path fill="none" stroke="#000000" stroke-width="0.8999" d="M109.614,186.841c46.043,0,83.373-37.328,83.373-83.371
			c0-46.046-37.33-83.375-83.373-83.375c-46.043,0-83.373,37.329-83.373,83.375C26.241,149.514,63.571,186.841,109.614,186.841z"/>
		<path d="M146.761,146.741c0.996-0.858,1.967-1.755,2.911-2.69c10.761-10.672,16.724-24.893,16.79-40.046
			c0.066-15.156-5.775-29.43-16.445-40.194c-10.669-10.762-24.892-16.726-40.048-16.791c-15.153-0.066-29.426,5.773-40.19,16.444
			c-10.764,10.669-16.727,24.892-16.793,40.047c-0.066,15.153,5.772,29.426,16.441,40.189c1.043,1.051,2.12,2.058,3.227,3.015
			l2.535-1.354c-1.334-1.111-2.623-2.295-3.861-3.543c-10.165-10.256-15.73-23.858-15.665-38.296
			c0.062-14.439,5.745-27.991,16.001-38.158s23.855-15.73,38.295-15.666c14.441,0.062,27.993,5.744,38.16,15.999
			c10.167,10.256,15.731,23.856,15.668,38.299c-0.062,14.438-5.743,27.99-15.998,38.153c-1.142,1.133-2.325,2.206-3.545,3.219
			L146.761,146.741z M133.33,152.424c-7.336,3.565-15.446,5.431-23.841,5.392l0,0c-8.251-0.033-16.211-1.904-23.415-5.414
			l-3.307,1.309c8.112,4.391,17.228,6.74,26.711,6.784l0,0c9.625,0.039,18.893-2.3,27.133-6.746L133.33,152.424z"/>
		<path d="M148.491,62.062l-80.444,0.014l3.567,2.409c-0.037-0.026,1.395,1.059,1.395,1.059c1.685,1.281,3.489,4.4,3.713,8.479
			c0.352,6.384,0.193,16.874,0.077,24.535l-0.079,9.316c0.198,11.057,7.797,16.1,8.12,16.309
			c-0.088-0.063,16.469,14.383,16.469,14.383l2.289-0.352L85.91,122.767c-0.172-0.124-7.229-4.85-7.41-14.928l0.078-9.256
			c0.063-4.15,0.139-9.13,0.139-13.848c0-4.018-0.055-7.846-0.219-10.812c-0.272-4.964-2.548-8.381-4.413-9.798
			c0,0-0.224-0.169-0.356-0.27c4.967-0.001,67.001-0.012,71.98-0.012c-0.128,0.096-0.349,0.264-0.349,0.264
			c-1.867,1.42-4.141,4.838-4.411,9.801c-0.164,2.96-0.219,6.784-0.219,10.797c0,4.714,0.076,9.69,0.137,13.837l0.08,9.281
			c-0.183,10.08-7.24,14.807-7.311,14.851c-0.099,0.077-17.977,15.538-17.977,15.538l2.289,0.396l16.759-14.515
			c0.223-0.132,7.822-5.178,8.021-16.237l-0.078-9.341c-0.117-7.652-0.275-18.133,0.077-24.509c0.223-4.079,2.025-7.197,3.711-8.481
			l1.436-1.088c-0.039,0.028,1.114-0.747,1.114-0.747l2.428-1.63L148.491,62.062z"/>
		<line fill="none" stroke="#000000" stroke-width="0.2107" x1="141.643" y1="89.619" x2="77.792" y2="89.619"/>
		<path d="M117.723,89.619v48.61c0,0,14.274-12.154,18.905-16.586c4.63-4.438,5.403-10.036,5.209-13.893l-0.194-18.13H117.723z"/>
		<path d="M102.098,89.619v48.61c0,0-14.274-12.154-18.904-16.586c-4.63-4.438-5.402-10.036-5.208-13.893l0.194-18.13H102.098z"/>
		<polyline fill="none" stroke="#000000" stroke-width="0.316" points="112.352,101.982 112.352,93.861 107.528,93.861 
			107.528,102.072 		"/>
		<polyline fill="none" stroke="#000000" stroke-width="0.316" points="107.528,113.955 107.528,133.981 112.352,133.981 
			112.352,114.002 		"/>
		<circle fill="none" stroke="#000000" stroke-width="0.316" cx="110.024" cy="108.002" r="6.421"/>
		<path fill="none" stroke="#000000" stroke-width="0.316" d="M103.534,107.262c0,0-0.134,0-0.457,0
			c-0.89,0-0.828,1.384,0.078,1.384c0.345,0,0.406,0,0.406,0"/>
		<line fill="none" stroke="#000000" stroke-width="0.2107" x1="108.401" y1="94.007" x2="108.401" y2="101.768"/>
		<line fill="none" stroke="#000000" stroke-width="0.2107" x1="108.401" y1="114.131" x2="108.401" y2="133.981"/>
		<line fill="none" stroke="#000000" stroke-width="0.2107" x1="111.488" y1="94.007" x2="111.488" y2="101.641"/>
		<line fill="none" stroke="#000000" stroke-width="0.2107" x1="111.488" y1="114.178" x2="111.488" y2="133.981"/>
		<line fill="none" stroke="#000000" stroke-width="0.158" x1="111.358" y1="101.063" x2="110.197" y2="101.063"/>
		<line fill="none" stroke="#000000" stroke-width="0.158" x1="111.358" y1="96.689" x2="110.197" y2="96.689"/>
		<line fill="none" stroke="#000000" stroke-width="0.158" x1="111.358" y1="97.707" x2="110.585" y2="97.707"/>
		<line fill="none" stroke="#000000" stroke-width="0.158" x1="111.358" y1="98.499" x2="110.585" y2="98.499"/>
		<line fill="none" stroke="#000000" stroke-width="0.158" x1="111.358" y1="95.011" x2="110.585" y2="95.011"/>
		<line fill="none" stroke="#000000" stroke-width="0.158" x1="111.358" y1="94.235" x2="110.585" y2="94.235"/>
		<line fill="none" stroke="#000000" stroke-width="0.158" x1="111.358" y1="95.8" x2="110.585" y2="95.8"/>
		<line fill="none" stroke="#000000" stroke-width="0.158" x1="111.358" y1="99.261" x2="110.585" y2="99.261"/>
		<line fill="none" stroke="#000000" stroke-width="0.158" x1="111.358" y1="100.243" x2="110.585" y2="100.243"/>
		<line fill="none" stroke="#000000" stroke-width="0.158" x1="111.358" y1="116.982" x2="110.197" y2="116.982"/>
		<line fill="none" stroke="#000000" stroke-width="0.158" x1="111.358" y1="114.676" x2="110.585" y2="114.676"/>
		<line fill="none" stroke="#000000" stroke-width="0.158" x1="111.358" y1="115.463" x2="110.585" y2="115.463"/>
		<line fill="none" stroke="#000000" stroke-width="0.158" x1="111.358" y1="116.247" x2="110.585" y2="116.247"/>
		<line fill="none" stroke="#000000" stroke-width="0.158" x1="111.358" y1="120.69" x2="110.197" y2="120.69"/>
		<line fill="none" stroke="#000000" stroke-width="0.158" x1="111.358" y1="117.669" x2="110.585" y2="117.669"/>
		<line fill="none" stroke="#000000" stroke-width="0.158" x1="111.358" y1="118.379" x2="110.585" y2="118.379"/>
		<line fill="none" stroke="#000000" stroke-width="0.158" x1="111.358" y1="119.163" x2="110.585" y2="119.163"/>
		<line fill="none" stroke="#000000" stroke-width="0.158" x1="111.358" y1="119.95" x2="110.585" y2="119.95"/>
		<line fill="none" stroke="#000000" stroke-width="0.158" x1="111.358" y1="124.506" x2="110.197" y2="124.506"/>
		<line fill="none" stroke="#000000" stroke-width="0.158" x1="111.358" y1="121.488" x2="110.585" y2="121.488"/>
		<line fill="none" stroke="#000000" stroke-width="0.158" x1="111.358" y1="122.2" x2="110.585" y2="122.2"/>
		<line fill="none" stroke="#000000" stroke-width="0.158" x1="111.358" y1="122.987" x2="110.585" y2="122.987"/>
		<line fill="none" stroke="#000000" stroke-width="0.158" x1="111.358" y1="123.768" x2="110.585" y2="123.768"/>
		<line fill="none" stroke="#000000" stroke-width="0.158" x1="111.358" y1="128.443" x2="110.197" y2="128.443"/>
		<line fill="none" stroke="#000000" stroke-width="0.158" x1="111.358" y1="125.425" x2="110.585" y2="125.425"/>
		<line fill="none" stroke="#000000" stroke-width="0.158" x1="111.358" y1="126.135" x2="110.585" y2="126.135"/>
		<line fill="none" stroke="#000000" stroke-width="0.158" x1="111.358" y1="126.921" x2="110.585" y2="126.921"/>
		<line fill="none" stroke="#000000" stroke-width="0.158" x1="111.358" y1="127.705" x2="110.585" y2="127.705"/>
		<line fill="none" stroke="#000000" stroke-width="0.158" x1="111.358" y1="132.041" x2="110.197" y2="132.041"/>
		<line fill="none" stroke="#000000" stroke-width="0.158" x1="111.358" y1="129.136" x2="110.585" y2="129.136"/>
		<line fill="none" stroke="#000000" stroke-width="0.158" x1="111.358" y1="129.846" x2="110.585" y2="129.846"/>
		<line fill="none" stroke="#000000" stroke-width="0.158" x1="111.358" y1="130.52" x2="110.585" y2="130.52"/>
		<line fill="none" stroke="#000000" stroke-width="0.158" x1="111.358" y1="131.307" x2="110.585" y2="131.307"/>
		<line fill="none" stroke="#000000" stroke-width="0.158" x1="111.358" y1="132.578" x2="110.585" y2="132.578"/>
		<line fill="none" stroke="#000000" stroke-width="0.158" x1="111.358" y1="133.365" x2="110.585" y2="133.365"/>
		<path d="M109.493,97.756c-0.399,0-0.612-0.303-0.612-0.69c0-0.22,0.073-0.556,0.359-0.836c0.275-0.27,0.639-0.363,0.834-0.385
			c0.016,0.008,0.019,0.055,0.008,0.074c-0.172,0.058-0.416,0.151-0.586,0.338c-0.206,0.226-0.281,0.534-0.289,0.77
			c-0.006,0.336,0.102,0.622,0.319,0.622c0.182,0,0.253-0.168,0.253-0.344c0-0.261-0.113-0.49-0.311-0.49
			c-0.038,0-0.06,0.003-0.089,0.014c-0.018-0.005-0.026-0.033-0.018-0.055c0.08-0.072,0.19-0.102,0.286-0.102
			c0.254,0,0.435,0.214,0.429,0.514C110.065,97.525,109.829,97.756,109.493,97.756z"/>
		<path d="M109.954,99.652c0.015,0.003,0.025,0.014,0.025,0.028c-0.017,0.071-0.052,0.159-0.105,0.22l-0.56,0.074
			c-0.077,0.008-0.08,0.014-0.096,0.074l-0.028,0.096c-0.008,0.03,0.003,0.041,0.052,0.05l0.188,0.033
			c0.216,0.039,0.608,0.151,0.608,0.578c0,0.484-0.581,0.784-1.014,0.798c-0.033-0.014-0.044-0.066-0.019-0.091
			c0.382-0.047,0.769-0.236,0.769-0.611c0-0.379-0.392-0.459-0.695-0.47c-0.055,0-0.065-0.017-0.045-0.085l0.147-0.525
			c0.011-0.047,0.025-0.069,0.07-0.074L109.954,99.652z"/>
		<path d="M109.889,116.142c0.018,0,0.025,0.014,0.025,0.022c-0.016,0.072-0.052,0.16-0.105,0.226l-0.558,0.072
			c-0.078,0.014-0.084,0.016-0.099,0.074l-0.026,0.096c-0.007,0.03,0.001,0.044,0.052,0.052l0.191,0.033
			c0.215,0.036,0.605,0.151,0.605,0.575c0,0.484-0.578,0.784-1.014,0.801c-0.032-0.017-0.044-0.066-0.019-0.091
			c0.381-0.047,0.769-0.239,0.769-0.614c0-0.377-0.394-0.462-0.695-0.47c-0.055,0-0.062-0.011-0.045-0.085l0.148-0.525
			c0.008-0.044,0.025-0.072,0.069-0.074L109.889,116.142z"/>
		<path d="M109.449,119.909c0.19,0,0.338,0.091,0.438,0.209c0.097,0.127,0.146,0.3,0.14,0.52c-0.008,0.281-0.113,0.611-0.432,0.867
			c-0.216,0.173-0.481,0.267-0.658,0.297c-0.023-0.014-0.036-0.061-0.017-0.08c0.157-0.055,0.289-0.129,0.382-0.198
			c0.215-0.168,0.385-0.435,0.396-0.927c0.008-0.316-0.077-0.581-0.275-0.581c-0.121,0-0.237,0.113-0.242,0.344
			c-0.01,0.214,0.107,0.448,0.274,0.448c0.043,0,0.068-0.003,0.09-0.006c0.019,0.006,0.027,0.033,0.019,0.061
			c-0.069,0.05-0.154,0.074-0.256,0.074c-0.231,0-0.43-0.176-0.427-0.479C108.899,120.115,109.158,119.909,109.449,119.909z"/>
		<path d="M109.972,124.049c0,0.22-0.179,0.319-0.301,0.388c0.166,0.091,0.354,0.245,0.354,0.512c0,0.303-0.275,0.457-0.568,0.457
			c-0.265,0-0.55-0.113-0.55-0.427c0-0.226,0.165-0.368,0.356-0.448c-0.142-0.074-0.303-0.22-0.305-0.423
			c0.003-0.281,0.221-0.47,0.535-0.47C109.757,123.637,109.972,123.782,109.972,124.049z M109.735,125.034
			c0-0.212-0.15-0.347-0.377-0.457c-0.128,0.099-0.191,0.215-0.193,0.385c0.001,0.201,0.129,0.336,0.303,0.336
			C109.614,125.298,109.735,125.196,109.735,125.034z M109.222,124.025c0,0.184,0.202,0.281,0.356,0.355
			c0.099-0.083,0.151-0.187,0.151-0.33c0-0.154-0.091-0.303-0.259-0.303C109.309,123.746,109.222,123.876,109.222,124.025z"/>
		<path d="M109.738,127.405c0.149,0,0.322,0,0.355-0.005c0.014,0.003,0.019,0.011,0.019,0.03c-0.066,0.102-0.153,0.245-0.264,0.468
			l-0.704,1.367c-0.045,0.006-0.113-0.017-0.116-0.063l0.693-1.312c0.055-0.105,0.088-0.203,0.088-0.226
			c0-0.013-0.016-0.027-0.061-0.027h-0.55c-0.132,0-0.225,0.014-0.282,0.126c-0.018,0.011-0.058,0.006-0.067-0.019
			c0.041-0.127,0.067-0.245,0.092-0.344c0.054,0.003,0.139,0.005,0.288,0.005H109.738z"/>
		<path d="M109.493,132.864c-0.399,0-0.612-0.303-0.612-0.688c0-0.226,0.073-0.556,0.359-0.842c0.275-0.267,0.639-0.358,0.834-0.38
			c0.016,0.008,0.019,0.05,0.008,0.072c-0.172,0.061-0.416,0.151-0.586,0.338c-0.206,0.223-0.281,0.534-0.289,0.77
			c-0.006,0.333,0.102,0.622,0.319,0.622c0.182,0,0.253-0.165,0.253-0.344c0-0.261-0.113-0.495-0.311-0.495
			c-0.038,0-0.06,0.011-0.089,0.019c-0.018-0.003-0.026-0.03-0.018-0.052c0.08-0.072,0.19-0.102,0.286-0.102
			c0.254,0,0.435,0.212,0.429,0.512C110.065,132.633,109.829,132.864,109.493,132.864z"/>
		<line fill="none" stroke="#000000" stroke-width="0.316" x1="109.815" y1="89.619" x2="109.815" y2="63.271"/>
		<line fill="none" stroke="#000000" stroke-width="0.316" x1="141.451" y1="77.024" x2="77.792" y2="77.024"/>
		<polygon fill="none" stroke="#000000" stroke-width="0.2107" points="112.515,104.552 108.401,104.552 107.562,105.193 
			107.562,110.756 111.617,110.756 112.533,109.661 		"/>
		<polyline fill="none" stroke="#000000" stroke-width="0.2107" points="107.628,105.242 111.552,105.242 111.552,110.61 		"/>
		<line fill="none" stroke="#000000" stroke-width="0.2107" x1="111.552" y1="105.242" x2="112.386" y2="104.598"/>
		<line fill="none" stroke="#000000" stroke-width="0.158" x1="111.47" y1="107.955" x2="110.074" y2="107.955"/>
		<line fill="none" stroke="#000000" stroke-width="0.158" x1="111.47" y1="105.732" x2="110.457" y2="105.732"/>
		<line fill="none" stroke="#000000" stroke-width="0.158" x1="111.47" y1="106.433" x2="110.457" y2="106.433"/>
		<line fill="none" stroke="#000000" stroke-width="0.158" x1="111.47" y1="107.218" x2="110.457" y2="107.218"/>
		<line fill="none" stroke="#000000" stroke-width="0.158" x1="111.47" y1="108.755" x2="110.457" y2="108.755"/>
		<line fill="none" stroke="#000000" stroke-width="0.158" x1="111.47" y1="109.468" x2="110.457" y2="109.468"/>
		<line fill="none" stroke="#000000" stroke-width="0.158" x1="111.47" y1="110.197" x2="110.457" y2="110.197"/>
		<path d="M109.744,107.482c0,0.113-0.044,0.223-0.29,0.341c-0.017,0.022-0.004,0.044,0.033,0.044
			c0.205,0.017,0.392,0.157,0.392,0.424c0,0.438-0.469,0.768-0.872,0.768c-0.129,0-0.27-0.058-0.27-0.176
			c0-0.072,0.055-0.127,0.128-0.127c0.074,0,0.128,0.074,0.147,0.102c0.05,0.06,0.091,0.083,0.151,0.083
			c0.127,0,0.4-0.187,0.4-0.517c0-0.226-0.111-0.41-0.341-0.41c-0.102,0-0.201,0.052-0.263,0.113
			c-0.044-0.008-0.08-0.066-0.061-0.113c0.175-0.08,0.535-0.179,0.535-0.457c0-0.152-0.095-0.231-0.21-0.231
			c-0.132,0-0.242,0.085-0.333,0.223c-0.026,0.017-0.054-0.008-0.059-0.041c0.089-0.198,0.29-0.327,0.507-0.327
			C109.589,107.179,109.744,107.309,109.744,107.482z"/>
		<path d="M108.921,64.216l-0.041,11.947c0,0-29.84-0.018-29.845-0.018c0.033,0,0.055-0.518,0.055-1.193
			c0-2.231-0.602-7.409-4.238-10.736C75.408,64.216,108.921,64.216,108.921,64.216z M94.457,65.703
			c0.208,0.019,0.51-0.226,0.51-0.509c0,0,0.114-0.715-0.685-0.693c-0.532,0.011-0.721,0.561-0.721,0.561s-0.187-0.55-0.718-0.561
			c-0.801-0.022-0.687,0.693-0.687,0.693c0,0.283,0.304,0.528,0.51,0.509v3.61h-3.665c0.016-0.206-0.228-0.517-0.512-0.517
			c0,0-0.726-0.113-0.704,0.677c0.014,0.528,0.567,0.715,0.567,0.715s-0.553,0.184-0.567,0.715
			c-0.022,0.787,0.704,0.677,0.704,0.677c0.283,0,0.528-0.3,0.512-0.506h3.645l0.008,3.629c-0.209-0.016-0.531,0.226-0.531,0.509
			c0,0-0.113,0.715,0.686,0.696c0.532-0.017,0.722-0.561,0.722-0.561s0.184,0.545,0.718,0.561c0.798,0.019,0.685-0.696,0.685-0.696
			c0-0.283-0.248-0.525-0.458-0.509v-3.629l3.612,0.011c-0.018,0.206,0.227,0.525,0.513,0.525c0,0,0.723,0.11,0.701-0.677
			c-0.012-0.531-0.567-0.716-0.567-0.716s0.554-0.187,0.567-0.715c0.022-0.787-0.701-0.68-0.701-0.68
			c-0.286,0-0.531,0.303-0.513,0.512h-3.644L94.457,65.703z"/>
		<path fill="none" stroke="#000000" stroke-width="0.1406" stroke-linecap="round" d="M92.697,65.827
			c0.366,0.063,0.443-0.41,0.129-0.531"/>
		<path fill="none" stroke="#000000" stroke-width="0.1406" stroke-linecap="round" d="M89.152,69.332
			c0.065,0.36-0.411,0.435-0.535,0.129"/>
		<path fill="none" stroke="#000000" stroke-width="0.1406" stroke-linecap="round" d="M89.152,71.046
			c0.065-0.363-0.411-0.44-0.535-0.129"/>
		<path fill="none" stroke="#000000" stroke-width="0.1406" stroke-linecap="round" d="M92.667,74.578
			c0.363-0.063,0.44,0.41,0.129,0.534"/>
		<path fill="none" stroke="#000000" stroke-width="0.1406" stroke-linecap="round" d="M94.395,74.578
			c-0.363-0.063-0.44,0.41-0.126,0.534"/>
		<path fill="none" stroke="#000000" stroke-width="0.1406" stroke-linecap="round" d="M97.956,71.073
			c-0.065-0.361,0.414-0.438,0.535-0.129"/>
		<path fill="none" stroke="#000000" stroke-width="0.1406" stroke-linecap="round" d="M97.956,69.362
			c-0.065,0.361,0.414,0.435,0.535,0.129"/>
		<path fill="none" stroke="#000000" stroke-width="0.1406" stroke-linecap="round" d="M94.427,65.827
			c-0.363,0.063-0.442-0.41-0.128-0.531"/>
		
			<line fill="none" stroke="#000000" stroke-width="0.1391" stroke-linecap="round" x1="93.546" y1="64.668" x2="93.546" y2="75.83"/>
		
			<line fill="none" stroke="#000000" stroke-width="0.1391" stroke-linecap="round" x1="87.741" y1="70.201" x2="99.231" y2="70.201"/>
		<path d="M143.646,67.095c0,0,0.022,0.017-1.64,0.017h-4.96v1.596h-4.431v-1.596h-4.373v1.596h-4.316v-1.596h-4.372v1.596h-4.371
			v-1.596h-5.22l-0.055,2.941h5.275v1.673h4.371v-1.673h4.316v1.673h4.372v-1.673h4.431v1.673h4.373v-1.673h4.985h0.215
			L143.646,67.095z"/>
		<polygon fill="none" stroke="#000000" stroke-width="0.2107" points="117.312,63.835 117.872,64.809 118.996,64.806 
			118.435,65.782 118.996,66.754 117.872,66.754 117.312,67.728 116.749,66.754 115.623,66.754 116.189,65.782 115.623,64.806 
			116.749,64.809 		"/>
		<polygon fill="none" stroke="#000000" stroke-width="0.2107" points="134.782,63.835 135.343,64.809 136.468,64.806 
			135.904,65.782 136.468,66.754 135.343,66.754 134.782,67.728 134.221,66.754 133.095,66.754 133.659,65.782 133.095,64.806 
			134.221,64.809 		"/>
		<polygon fill="none" stroke="#000000" stroke-width="0.2107" points="126.096,72.341 126.658,73.318 127.781,73.315 
			127.219,74.289 127.781,75.263 126.658,75.26 126.096,76.237 125.535,75.26 124.411,75.263 124.974,74.289 124.411,73.315 
			125.535,73.318 		"/>
		<g>
			<path fill="none" stroke="#000000" stroke-width="0.1264" stroke-linejoin="round" d="M102.168,83.134
				c1.606,0,3.914-0.275,3.971-0.669c0.056-0.393,0.392-1.744,1.348-2.278c-0.421-0.308-0.759-0.336-1.292,0.168
				c-0.311-0.308-0.677-0.03-0.931,0.198c0.6,0.215,0.55,0.531,0.281,0.734c-0.267,0.206-0.56,0.256-1.01,0.091
				c-0.347-0.127-0.757-0.358-0.677-0.693c0.052-0.231,0.234-0.528,0.704-0.33c-0.393-1.321-1.743-0.845-1.743-0.845
				s-0.343-0.927-0.655-0.927c-0.308,0-0.655,0.927-0.655,0.927s-1.349-0.476-1.741,0.845c0.472-0.198,0.652,0.099,0.706,0.33
				c0.078,0.336-0.275,0.567-0.622,0.693c-0.452,0.165-0.798,0.116-1.067-0.091c-0.27-0.203-0.316-0.52,0.281-0.734
				c-0.253-0.228-0.619-0.506-0.929-0.198c-0.535-0.503-0.874-0.476-1.294-0.168c0.956,0.534,1.294,1.885,1.349,2.278
				C98.251,82.859,100.569,83.134,102.168,83.134z"/>
			<path fill="none" stroke="#000000" stroke-width="0.1896" d="M98.302,82.6c0-0.396,2.216-0.669,3.82-0.669
				c1.605,0,3.856,0.27,3.856,0.669"/>
			<g>
				
					<line fill="none" stroke="#000000" stroke-width="0.158" stroke-linejoin="round" x1="101.793" y1="82.023" x2="101.793" y2="83.03"/>
				
					<line fill="none" stroke="#000000" stroke-width="0.158" stroke-linejoin="round" x1="101.168" y1="82.086" x2="101.168" y2="82.98"/>
				
					<line fill="none" stroke="#000000" stroke-width="0.158" stroke-linejoin="round" x1="100.544" y1="82.111" x2="100.544" y2="82.928"/>
				
					<line fill="none" stroke="#000000" stroke-width="0.158" stroke-linejoin="round" x1="99.921" y1="82.179" x2="99.921" y2="82.875"/>
				
					<line fill="none" stroke="#000000" stroke-width="0.158" stroke-linejoin="round" x1="99.296" y1="82.243" x2="99.296" y2="82.826"/>
			</g>
			
				<line fill="none" stroke="#000000" stroke-width="0.158" stroke-linejoin="round" x1="98.673" y1="82.353" x2="98.673" y2="82.777"/>
			<g>
				
					<line fill="none" stroke="#000000" stroke-width="0.158" stroke-linejoin="round" x1="102.417" y1="82.023" x2="102.417" y2="83.03"/>
				
					<line fill="none" stroke="#000000" stroke-width="0.158" stroke-linejoin="round" x1="103.039" y1="82.086" x2="103.039" y2="83.12"/>
				
					<line fill="none" stroke="#000000" stroke-width="0.158" stroke-linejoin="round" x1="103.663" y1="82.155" x2="103.663" y2="82.958"/>
				
					<line fill="none" stroke="#000000" stroke-width="0.158" stroke-linejoin="round" x1="104.288" y1="82.221" x2="104.288" y2="82.875"/>
				
					<line fill="none" stroke="#000000" stroke-width="0.158" stroke-linejoin="round" x1="104.911" y1="82.287" x2="104.911" y2="82.826"/>
			</g>
			
				<line fill="none" stroke="#000000" stroke-width="0.158" stroke-linejoin="round" x1="105.535" y1="82.353" x2="105.535" y2="82.777"/>
			<path fill="none" stroke="#000000" stroke-width="0.1264" stroke-linejoin="round" d="M104.527,80.35
				c-0.253-0.11-0.932,0.539,0.077,1.045"/>
			<path fill="none" stroke="#000000" stroke-width="0.1264" stroke-linejoin="round" d="M99.795,80.344
				c0.255-0.116,0.967,0.545-0.044,1.051"/>
			<path fill="none" stroke="#000000" stroke-width="0.1264" stroke-linejoin="round" d="M99.109,80.521
				c0,0-0.615,0.385-0.356,0.718"/>
			<path fill="none" stroke="#000000" stroke-width="0.1264" stroke-linejoin="round" d="M105.155,80.534
				c0,0,0.688,0.371,0.427,0.704"/>
			<path d="M102.134,81.233c0.004,0.041,0.047,0.047,0.052-0.006c0.034-0.366,0.094-1.348,0.114-1.538
				c0.028-0.253-0.31-0.247-0.282-0.003C102.037,79.866,102.087,80.87,102.134,81.233z"/>
			<path d="M103.402,80.036c-0.286,0-0.677,0.305-0.539,0.993c0.017,0.055,0.095,0.044,0.089-0.014
				c-0.004-0.058,0.006-0.638,0.49-0.847C103.503,80.16,103.496,80.036,103.402,80.036z"/>
			<path d="M100.901,80.036c0.286,0,0.677,0.305,0.538,0.993c-0.015,0.055-0.095,0.044-0.089-0.014
				c0.004-0.058-0.006-0.638-0.492-0.847C100.802,80.16,100.806,80.036,100.901,80.036z"/>
			<circle cx="101.391" cy="81.348" r="0.074"/>
			<path d="M101.011,81.706c-0.036,0-0.066-0.03-0.066-0.066c0-0.036,0.03-0.061,0.066-0.061c0.034,0,0.062,0.025,0.062,0.061
				C101.073,81.676,101.046,81.706,101.011,81.706z"/>
			<path d="M100.475,81.767c-0.036,0-0.066-0.033-0.066-0.066c0-0.039,0.03-0.069,0.066-0.069c0.038,0,0.067,0.03,0.067,0.069
				C100.542,81.734,100.513,81.767,100.475,81.767z"/>
			<path d="M99.848,81.858c-0.044,0-0.078-0.033-0.078-0.077c0-0.038,0.034-0.072,0.078-0.072c0.039,0,0.073,0.033,0.073,0.072
				C99.921,81.825,99.886,81.858,99.848,81.858z"/>
			<path d="M99.229,81.954c-0.047,0-0.085-0.036-0.085-0.083c0-0.047,0.039-0.083,0.085-0.083c0.044,0,0.08,0.036,0.08,0.083
				C99.308,81.918,99.273,81.954,99.229,81.954z"/>
			<circle cx="98.596" cy="81.995" r="0.091"/>
			<circle cx="103.292" cy="81.643" r="0.063"/>
			<path d="M103.829,81.767c0.036,0,0.067-0.033,0.067-0.066c0-0.039-0.032-0.069-0.067-0.069c-0.036,0-0.067,0.03-0.067,0.069
				C103.761,81.734,103.793,81.767,103.829,81.767z"/>
			<path d="M104.458,81.858c0.04,0,0.074-0.033,0.074-0.077c0-0.038-0.034-0.072-0.074-0.072c-0.041,0-0.074,0.033-0.074,0.072
				C104.384,81.825,104.417,81.858,104.458,81.858z"/>
			<circle cx="105.075" cy="81.871" r="0.083"/>
			<path d="M105.708,82.086c0.047,0,0.089-0.041,0.089-0.091c0-0.052-0.043-0.091-0.089-0.091c-0.052,0-0.091,0.039-0.091,0.091
				C105.617,82.045,105.655,82.086,105.708,82.086z"/>
			<circle cx="102.91" cy="81.348" r="0.074"/>
			<path d="M98.384,80.622c-0.066,0.137-0.198,0.239-0.014,0.674c0.025,0.129-0.033,0.195-0.116,0.058
				c-0.14-0.239-0.198-0.605-0.041-0.787C98.367,80.383,98.42,80.548,98.384,80.622z"/>
			<path d="M98.004,80.735c-0.05-0.151-0.11-0.305-0.325-0.369c-0.11-0.033-0.135,0.036-0.054,0.063
				c0.081,0.028,0.186,0.072,0.286,0.248C98.011,80.851,98.021,80.793,98.004,80.735z"/>
			<path d="M105.917,80.622c0.066,0.137,0.199,0.239,0.019,0.674c-0.029,0.129,0.03,0.195,0.11,0.058
				c0.14-0.239,0.198-0.605,0.045-0.787C105.937,80.383,105.881,80.548,105.917,80.622z"/>
			<path d="M106.3,80.735c0.044-0.151,0.106-0.305,0.326-0.369c0.107-0.033,0.132,0.036,0.05,0.063
				c-0.08,0.028-0.184,0.072-0.286,0.248C106.291,80.851,106.28,80.793,106.3,80.735z"/>
			<path fill="none" stroke="#000000" stroke-width="0.1896" stroke-linejoin="round" d="M98.307,82.413
				c0.052,0.394,2.238,0.836,3.841,0.836c1.604,0,3.874-0.429,3.889-0.781"/>
		</g>
		<g>
			<path fill="none" stroke="#000000" stroke-width="0.1264" stroke-linejoin="round" d="M85.734,83.134
				c1.604,0,3.912-0.275,3.969-0.669c0.056-0.393,0.395-1.744,1.351-2.278c-0.422-0.308-0.758-0.336-1.294,0.168
				c-0.311-0.308-0.674-0.03-0.927,0.198c0.597,0.215,0.545,0.531,0.278,0.734c-0.267,0.206-0.559,0.256-1.01,0.091
				c-0.347-0.127-0.758-0.358-0.677-0.693c0.051-0.231,0.234-0.528,0.704-0.33c-0.393-1.321-1.743-0.845-1.743-0.845
				s-0.344-0.927-0.655-0.927c-0.31,0-0.655,0.927-0.655,0.927s-1.349-0.476-1.743,0.845c0.473-0.198,0.652,0.099,0.707,0.33
				c0.077,0.336-0.277,0.567-0.622,0.693c-0.454,0.165-0.799,0.116-1.067-0.091c-0.27-0.203-0.316-0.52,0.281-0.734
				c-0.256-0.228-0.62-0.506-0.929-0.198c-0.535-0.503-0.874-0.476-1.297-0.168c0.958,0.534,1.297,1.885,1.352,2.278
				C81.814,82.859,84.132,83.134,85.734,83.134z"/>
			<path fill="none" stroke="#000000" stroke-width="0.1896" d="M81.865,82.6c0-0.396,2.217-0.669,3.82-0.669
				c1.604,0,3.857,0.27,3.857,0.669"/>
			<g>
				
					<line fill="none" stroke="#000000" stroke-width="0.158" stroke-linejoin="round" x1="85.356" y1="82.023" x2="85.356" y2="83.03"/>
				
					<line fill="none" stroke="#000000" stroke-width="0.158" stroke-linejoin="round" x1="84.732" y1="82.086" x2="84.732" y2="82.98"/>
				
					<line fill="none" stroke="#000000" stroke-width="0.158" stroke-linejoin="round" x1="84.108" y1="82.111" x2="84.108" y2="82.928"/>
				
					<line fill="none" stroke="#000000" stroke-width="0.158" stroke-linejoin="round" x1="83.484" y1="82.179" x2="83.484" y2="82.875"/>
				
					<line fill="none" stroke="#000000" stroke-width="0.158" stroke-linejoin="round" x1="82.859" y1="82.243" x2="82.859" y2="82.826"/>
			</g>
			
				<line fill="none" stroke="#000000" stroke-width="0.158" stroke-linejoin="round" x1="82.235" y1="82.353" x2="82.235" y2="82.777"/>
			<g>
				
					<line fill="none" stroke="#000000" stroke-width="0.158" stroke-linejoin="round" x1="85.979" y1="82.023" x2="85.979" y2="83.03"/>
				
					<line fill="none" stroke="#000000" stroke-width="0.158" stroke-linejoin="round" x1="86.604" y1="82.086" x2="86.604" y2="83.12"/>
				
					<line fill="none" stroke="#000000" stroke-width="0.158" stroke-linejoin="round" x1="87.228" y1="82.155" x2="87.228" y2="82.958"/>
				
					<line fill="none" stroke="#000000" stroke-width="0.158" stroke-linejoin="round" x1="87.851" y1="82.221" x2="87.851" y2="82.875"/>
				
					<line fill="none" stroke="#000000" stroke-width="0.158" stroke-linejoin="round" x1="88.474" y1="82.287" x2="88.474" y2="82.826"/>
			</g>
			
				<line fill="none" stroke="#000000" stroke-width="0.158" stroke-linejoin="round" x1="89.099" y1="82.353" x2="89.099" y2="82.777"/>
			<path fill="none" stroke="#000000" stroke-width="0.1264" stroke-linejoin="round" d="M88.092,80.35
				c-0.253-0.11-0.932,0.539,0.077,1.045"/>
			<path fill="none" stroke="#000000" stroke-width="0.1264" stroke-linejoin="round" d="M83.36,80.344
				c0.253-0.116,0.968,0.545-0.044,1.051"/>
			<path fill="none" stroke="#000000" stroke-width="0.1264" stroke-linejoin="round" d="M82.672,80.521
				c0,0-0.614,0.385-0.355,0.718"/>
			<path fill="none" stroke="#000000" stroke-width="0.1264" stroke-linejoin="round" d="M88.719,80.534
				c0,0,0.685,0.371,0.427,0.704"/>
			<path d="M85.697,81.233c0.006,0.041,0.048,0.047,0.054-0.006c0.034-0.366,0.094-1.348,0.113-1.538
				c0.028-0.253-0.311-0.247-0.281-0.003C85.602,79.866,85.652,80.87,85.697,81.233z"/>
			<path d="M86.967,80.036c-0.289,0-0.68,0.305-0.539,0.993c0.017,0.055,0.094,0.044,0.09-0.014
				c-0.007-0.058,0.004-0.638,0.491-0.847C87.066,80.16,87.06,80.036,86.967,80.036z"/>
			<path d="M84.466,80.036c0.283,0,0.674,0.305,0.537,0.993c-0.014,0.055-0.094,0.044-0.091-0.014
				c0.008-0.058-0.003-0.638-0.49-0.847C84.366,80.16,84.371,80.036,84.466,80.036z"/>
			<circle cx="84.956" cy="81.348" r="0.074"/>
			<circle cx="84.573" cy="81.643" r="0.063"/>
			<path d="M84.04,81.767c-0.037,0-0.066-0.033-0.066-0.066c0-0.039,0.029-0.069,0.066-0.069s0.066,0.03,0.066,0.069
				C84.106,81.734,84.077,81.767,84.04,81.767z"/>
			<path d="M83.409,81.858c-0.044,0-0.077-0.033-0.077-0.077c0-0.038,0.033-0.072,0.077-0.072c0.041,0,0.074,0.033,0.074,0.072
				C83.484,81.825,83.451,81.858,83.409,81.858z"/>
			<path d="M82.793,81.954c-0.047,0-0.085-0.036-0.085-0.083c0-0.047,0.039-0.083,0.085-0.083c0.044,0,0.08,0.036,0.08,0.083
				C82.873,81.918,82.837,81.954,82.793,81.954z"/>
			<circle cx="82.161" cy="81.995" r="0.091"/>
			<path d="M86.855,81.706c0.037,0,0.065-0.03,0.065-0.066c0-0.036-0.027-0.061-0.065-0.061c-0.036,0-0.061,0.025-0.061,0.061
				C86.795,81.676,86.82,81.706,86.855,81.706z"/>
			<path d="M87.393,81.767c0.036,0,0.066-0.033,0.066-0.066c0-0.039-0.03-0.069-0.066-0.069c-0.039,0-0.067,0.03-0.067,0.069
				C87.326,81.734,87.355,81.767,87.393,81.767z"/>
			<path d="M88.022,81.858c0.04,0,0.073-0.033,0.073-0.077c0-0.038-0.033-0.072-0.073-0.072c-0.04,0-0.074,0.033-0.074,0.072
				C87.948,81.825,87.982,81.858,88.022,81.858z"/>
			<circle cx="88.639" cy="81.871" r="0.083"/>
			<circle cx="89.269" cy="81.995" r="0.091"/>
			<circle cx="86.474" cy="81.348" r="0.074"/>
			<path d="M81.949,80.622c-0.066,0.137-0.199,0.239-0.017,0.674c0.03,0.129-0.033,0.195-0.113,0.058
				c-0.14-0.239-0.198-0.605-0.044-0.787C81.929,80.383,81.984,80.548,81.949,80.622z"/>
			<path d="M81.568,80.735c-0.048-0.151-0.108-0.305-0.326-0.369c-0.109-0.033-0.132,0.036-0.052,0.063
				c0.083,0.028,0.187,0.072,0.286,0.248C81.577,80.851,81.586,80.793,81.568,80.735z"/>
			<path d="M89.481,80.622c0.065,0.137,0.198,0.239,0.017,0.674c-0.026,0.129,0.033,0.195,0.113,0.058
				c0.142-0.239,0.198-0.605,0.044-0.787C89.503,80.383,89.444,80.548,89.481,80.622z"/>
			<path d="M89.864,80.735c0.045-0.151,0.107-0.305,0.325-0.369c0.107-0.033,0.133,0.036,0.052,0.063
				c-0.08,0.028-0.187,0.072-0.286,0.248C89.855,80.851,89.844,80.793,89.864,80.735z"/>
			<path fill="none" stroke="#000000" stroke-width="0.1896" stroke-linejoin="round" d="M81.869,82.413
				c0.055,0.394,2.241,0.836,3.843,0.836c1.604,0,3.876-0.429,3.887-0.781"/>
		</g>
		<g>
			<path fill="none" stroke="#000000" stroke-width="0.1264" stroke-linejoin="round" d="M93.836,88.111
				c1.604,0,3.912-0.275,3.97-0.668c0.055-0.393,0.395-1.744,1.349-2.281c-0.422-0.308-0.761-0.333-1.294,0.171
				c-0.308-0.308-0.674-0.028-0.927,0.195c0.594,0.22,0.548,0.534,0.281,0.737c-0.271,0.204-0.563,0.256-1.012,0.094
				c-0.347-0.127-0.757-0.358-0.678-0.699c0.054-0.231,0.232-0.525,0.707-0.327c-0.393-1.323-1.744-0.842-1.744-0.842
				s-0.347-0.927-0.654-0.927c-0.311,0-0.653,0.927-0.653,0.927s-1.352-0.481-1.746,0.842c0.47-0.198,0.655,0.096,0.704,0.327
				c0.083,0.341-0.272,0.572-0.619,0.699c-0.451,0.163-0.8,0.11-1.067-0.094c-0.267-0.203-0.316-0.517,0.278-0.737
				c-0.25-0.223-0.619-0.503-0.927-0.195c-0.534-0.503-0.869-0.479-1.293-0.171c0.956,0.537,1.293,1.888,1.351,2.281
				C89.916,87.836,92.233,88.111,93.836,88.111z"/>
			<path fill="none" stroke="#000000" stroke-width="0.1896" d="M89.967,87.58c0-0.396,2.215-0.671,3.82-0.671
				c1.604,0,3.857,0.27,3.857,0.669"/>
			<g>
				
					<line fill="none" stroke="#000000" stroke-width="0.158" stroke-linejoin="round" x1="93.457" y1="86.997" x2="93.457" y2="88.009"/>
				
					<line fill="none" stroke="#000000" stroke-width="0.158" stroke-linejoin="round" x1="92.832" y1="87.063" x2="92.832" y2="87.954"/>
				
					<line fill="none" stroke="#000000" stroke-width="0.158" stroke-linejoin="round" x1="92.209" y1="87.09" x2="92.209" y2="87.907"/>
				
					<line fill="none" stroke="#000000" stroke-width="0.158" stroke-linejoin="round" x1="91.586" y1="87.154" x2="91.586" y2="87.852"/>
				
					<line fill="none" stroke="#000000" stroke-width="0.158" stroke-linejoin="round" x1="90.961" y1="87.222" x2="90.961" y2="87.803"/>
			</g>
			
				<line fill="none" stroke="#000000" stroke-width="0.158" stroke-linejoin="round" x1="90.337" y1="87.33" x2="90.337" y2="87.751"/>
			<g>
				
					<line fill="none" stroke="#000000" stroke-width="0.158" stroke-linejoin="round" x1="94.081" y1="86.997" x2="94.081" y2="88.009"/>
				
					<line fill="none" stroke="#000000" stroke-width="0.158" stroke-linejoin="round" x1="94.706" y1="87.063" x2="94.706" y2="88.097"/>
				
					<line fill="none" stroke="#000000" stroke-width="0.158" stroke-linejoin="round" x1="95.327" y1="87.132" x2="95.327" y2="87.938"/>
				
					<line fill="none" stroke="#000000" stroke-width="0.158" stroke-linejoin="round" x1="95.953" y1="87.198" x2="95.953" y2="87.852"/>
				
					<line fill="none" stroke="#000000" stroke-width="0.158" stroke-linejoin="round" x1="96.577" y1="87.263" x2="96.577" y2="87.803"/>
			</g>
			
				<line fill="none" stroke="#000000" stroke-width="0.158" stroke-linejoin="round" x1="97.201" y1="87.33" x2="97.201" y2="87.751"/>
			<path fill="none" stroke="#000000" stroke-width="0.1264" stroke-linejoin="round" d="M96.197,85.329
				c-0.254-0.113-0.938,0.539,0.074,1.045"/>
			<path fill="none" stroke="#000000" stroke-width="0.1264" stroke-linejoin="round" d="M91.462,85.318
				c0.253-0.113,0.969,0.55-0.047,1.056"/>
			<path fill="none" stroke="#000000" stroke-width="0.1264" stroke-linejoin="round" d="M90.776,85.497
				c0,0-0.615,0.382-0.354,0.718"/>
			<path fill="none" stroke="#000000" stroke-width="0.1264" stroke-linejoin="round" d="M96.821,85.514
				c0,0,0.685,0.366,0.428,0.702"/>
			<path d="M93.801,86.207c0.006,0.044,0.047,0.05,0.051-0.003c0.034-0.366,0.095-1.348,0.117-1.538
				c0.027-0.256-0.314-0.245-0.286-0.003C93.707,84.845,93.754,85.847,93.801,86.207z"/>
			<path d="M95.066,85.01c-0.283,0-0.674,0.308-0.536,0.996c0.014,0.055,0.096,0.044,0.091-0.014
				c-0.008-0.058,0.006-0.638,0.491-0.845C95.167,85.137,95.162,85.01,95.066,85.01z"/>
			<path d="M92.568,85.01c0.283,0,0.677,0.308,0.539,0.996c-0.016,0.055-0.094,0.044-0.091-0.014
				c0.004-0.058-0.003-0.638-0.49-0.845C92.468,85.137,92.472,85.01,92.568,85.01z"/>
			<circle cx="93.058" cy="86.324" r="0.076"/>
			<path d="M92.674,86.68c-0.034,0-0.059-0.03-0.059-0.063c0-0.036,0.025-0.061,0.059-0.061c0.039,0,0.065,0.025,0.065,0.061
				C92.739,86.65,92.713,86.68,92.674,86.68z"/>
			<circle cx="92.142" cy="86.676" r="0.067"/>
			<circle cx="91.512" cy="86.759" r="0.073"/>
			<circle cx="90.893" cy="86.848" r="0.083"/>
			<path d="M90.263,87.063c-0.047,0-0.091-0.038-0.091-0.094c0-0.047,0.044-0.085,0.091-0.085c0.049,0,0.091,0.038,0.091,0.085
				C90.353,87.024,90.312,87.063,90.263,87.063z"/>
			<circle cx="94.959" cy="86.618" r="0.062"/>
			<circle cx="95.493" cy="86.676" r="0.067"/>
			<path d="M96.122,86.832c0.041,0,0.077-0.03,0.077-0.072c0-0.039-0.036-0.074-0.077-0.074c-0.04,0-0.074,0.036-0.074,0.074
				C96.048,86.801,96.083,86.832,96.122,86.832z"/>
			<circle cx="96.742" cy="86.848" r="0.083"/>
			<path d="M97.372,87.063c0.052,0,0.091-0.038,0.091-0.094c0-0.047-0.039-0.085-0.091-0.085c-0.047,0-0.088,0.038-0.088,0.085
				C97.283,87.024,97.325,87.063,97.372,87.063z"/>
			<circle cx="94.576" cy="86.324" r="0.076"/>
			<path d="M90.051,85.599c-0.065,0.137-0.198,0.242-0.017,0.674c0.029,0.129-0.033,0.195-0.113,0.06
				c-0.142-0.239-0.197-0.608-0.044-0.787C90.031,85.36,90.088,85.525,90.051,85.599z"/>
			<path d="M89.668,85.712c-0.045-0.151-0.105-0.303-0.325-0.368c-0.107-0.03-0.134,0.036-0.052,0.063
				c0.08,0.028,0.187,0.072,0.286,0.248C89.678,85.828,89.688,85.772,89.668,85.712z"/>
			<path d="M97.583,85.599c0.067,0.137,0.201,0.242,0.015,0.674c-0.028,0.129,0.034,0.195,0.117,0.06
				c0.137-0.239,0.195-0.608,0.041-0.787C97.603,85.36,97.548,85.525,97.583,85.599z"/>
			<path d="M97.964,85.712c0.048-0.151,0.109-0.303,0.326-0.368c0.108-0.03,0.133,0.036,0.052,0.063
				c-0.083,0.028-0.187,0.072-0.286,0.248C97.956,85.828,97.949,85.772,97.964,85.712z"/>
			<path fill="none" stroke="#000000" stroke-width="0.1896" stroke-linejoin="round" d="M89.971,87.39
				c0.058,0.394,2.238,0.834,3.843,0.834c1.604,0,3.874-0.429,3.887-0.776"/>
		</g>
		<polygon points="141.295,83.841 125.521,79.043 109.749,83.841 109.749,82.551 125.521,77.753 141.295,82.551 		"/>
		<polygon points="141.295,86.342 125.521,81.544 109.749,86.342 109.749,85.049 125.521,80.253 141.295,85.049 		"/>
		<polygon points="141.295,88.84 125.521,84.045 109.749,88.84 109.749,87.547 125.521,82.752 141.295,87.547 		"/>
		<path d="M142.202,67.111"/>
		<g>
			<path d="M147.043,165.988c-0.763,0.357-0.96,0.597-0.96,0.597l-0.096-0.421l2.993-3.654l2.509,2.553l-0.66,0.132
				C150.829,165.195,147.792,165.636,147.043,165.988z"/>
			<path d="M123.318,150.977c0.423,0.627,0.132,1.189,0.132,1.189l0.352-0.792l-0.396-1.893l-2.597-0.748l-0.264,0.22
				C120.545,148.953,122.894,150.345,123.318,150.977z"/>
			<path d="M113.722,148.776c-1.1,0.352-1.772,1.461-1.772,1.461l-0.209-0.272l0.792-2.025l4.49,0.396l0.088,0.264
				C117.111,148.6,115.491,148.21,113.722,148.776z"/>
			<path d="M106.283,148.997c0.65,0.363,1.216,1.249,1.216,1.249l0.105-0.501l-0.924-1.849l-4.138,0.088l-0.176,0.396
				C102.365,148.38,105.632,148.631,106.283,148.997z"/>
			<path d="M96.202,150.801c-0.418,0.726-0.135,1.497-0.135,1.497l-0.481-0.836l0.484-1.981l2.597-0.66l0.22,0.264
				C98.888,149.085,96.621,150.072,96.202,150.801z"/>
			<path d="M71.86,165.856c0.766,0.253,1.504,0.737,1.504,0.737l0.081-0.385l-3.213-3.434l-1.893,1.937l-0.308,0.572
				C68.031,165.283,71.204,165.636,71.86,165.856z"/>
			<g>
				<path fill="none" stroke="#000000" stroke-width="0.2107" d="M98.486,139.623c-0.638-0.633-0.787-0.633-0.787-0.633
					c-1.488,0.118-1.338,0.118-1.338,0.118c-16.305,2.416-29.307,8.963-34.635,17.349l0.066,0.248
					c1.439,3.632,4.355,5.723,6.097,8.232c0.159,0.237,0.159,0.237,0.159,0.237l0.503-0.545c5.717-7.62,16.752-13.431,30.194-15.654
					l0.022,0.094C98.766,149.068,99.831,140.955,98.486,139.623z"/>
				<path fill="none" stroke="#000000" stroke-width="0.2107" d="M56.594,159.902l4.304,4.165l-1.747,4.528
					c8.229-0.261,14.212-1.059,14.212-2.003c0-0.547-2.032-0.941-5.333-1.309l-4.9-5.907
					C61.068,159.611,58.877,159.789,56.594,159.902z"/>
				<path fill="#FFFFFF" stroke="#000000" stroke-width="0.2107" d="M102.252,148.391"/>
				<path fill="#FFFFFF" stroke="#000000" stroke-width="0.2107" d="M98.885,149.046"/>
				<path fill="none" stroke="#000000" stroke-width="0.2107" d="M102.412,148.383c-0.055,0-0.107,0.003-0.16,0.008
					c-0.583-4.284-0.583-4.319-0.583-4.319l-2.264,0.407l-0.52,4.567l-0.118,0.022c-1.853,0.652-3.05,1.659-2.927,2.633
					c0.171,1.381,2.922,2.173,6.143,1.772c3.217-0.405,5.689-1.849,5.516-3.227C107.347,149.016,105.155,148.254,102.412,148.383"/>
				<path fill="#FFFFFF" stroke="#000000" stroke-width="0.2107" d="M101.336,139.918l-0.005-0.163
					c-0.006-0.113-0.017-0.217-0.019-0.33L101.336,139.918z"/>
				<path fill="#FFFFFF" stroke="#000000" stroke-width="0.2107" d="M101.331,139.755c0.003,0.055,0.007,0.105,0.008,0.157"/>
				<path fill="#FFFFFF" stroke="#000000" stroke-width="0.2107" d="M101.331,139.755"/>
				<path fill="#FFFFFF" stroke="#000000" stroke-width="0.2107" d="M99.259,144.485c0.301-0.025,1.802-0.247,2.197-0.338
					L99.259,144.485"/>
				<path fill="none" stroke="#000000" stroke-width="0.2107" d="M157.657,156.7l0.066-0.248
					c-5.329-8.388-18.331-14.936-34.637-17.352c0,0,0.151,0-1.337-0.118c0,0-0.148,0-0.787,0.633
					c-1.345,1.335-0.74,3.907-0.561,6.044c0.281,3.403,0.281,3.403,0.281,3.403l0.022-0.094
					c13.442,2.218,24.477,8.033,30.194,15.654l0.503,0.539c0,0,0,0,0.158-0.231C153.302,162.419,156.219,160.329,157.657,156.7z"/>
				<path fill="none" stroke="#000000" stroke-width="0.2107" d="M162.853,159.897c-2.282-0.116-4.472-0.294-6.537-0.528
					l-4.871,5.915c-3.301,0.374-5.362,0.751-5.362,1.301c0,0.943,5.984,1.741,14.214,2.006l-1.748-4.528L162.853,159.897z"/>
				<path fill="#FFFFFF" stroke="#000000" stroke-width="0.2107" d="M118.954,148.722"/>
				<path fill="#FFFFFF" stroke="#000000" stroke-width="0.2107" d="M117.196,148.383c-0.069-0.003-0.137-0.003-0.206-0.008"/>
				<path fill="#FFFFFF" stroke="#000000" stroke-width="0.2107" d="M116.99,148.375c-0.039-0.003-0.074-0.003-0.112-0.005"/>
				<path fill="none" stroke="#000000" stroke-width="0.2107" d="M120.924,149.151c-0.08-0.033-0.159-0.061-0.242-0.088
					l-0.095-0.019c-0.398-4.564-0.398-4.564-0.398-4.564l0,0l-2.31-0.371l-0.559,4.297l-0.443-0.036
					c-2.673-0.094-4.78,0.666-4.929,1.868c-0.173,1.378,2.299,2.823,5.519,3.227c3.219,0.402,5.968-0.388,6.141-1.766
					C123.726,150.76,122.638,149.8,120.924,149.151"/>
				<path fill="#FFFFFF" stroke="#000000" stroke-width="0.2107" d="M118.954,148.722"/>
				<path fill="#FFFFFF" stroke="#000000" stroke-width="0.2107" d="M118.137,139.417c-0.004,0.113-0.014,0.22-0.019,0.33
					l-0.005,0.165L118.137,139.417z"/>
				<path fill="none" stroke="#000000" stroke-width="0.2107" d="M109.73,137.882c3.043,0,5.907,0.264,8.421,0.726
					c-0.014,0.809-0.014,0.809-0.014,0.809l-0.019,0.33c-0.159,3.128-0.43,6.047-0.796,8.658c0,0-4.986-0.608-7.592-0.608
					l-0.011,0.008c-2.607,0-5.091,0.162-7.351,0.459c0,0-0.851-5.208-1.029-8.352l-0.041-0.289c0,0,0,0,0-1.01
					c2.513-0.462,5.379-0.726,8.421-0.726L109.73,137.882z"/>
			</g>
		</g>
		<g>
			<g>
				<path d="M52.463,131.453l1.542,2.583l-3.367,5.552l0.204,0.338l3.084-1.84c1.26-0.754,1.143-1.056,0.787-1.975l0.394-0.237
					l2.545,4.259l-0.396,0.234c-0.636-0.778-0.834-1.001-2.109-0.242l-6.959,4.154c-1.354,0.812-1.153,1.219-0.784,1.973
					l-0.394,0.237l-2.424-4.058c-0.525-0.88-1.997-3.626,0.649-5.205c1.934-1.158,3.198-0.151,3.871,0.369l2.974-5.211
					c0.176-0.344,0.08-0.542-0.008-0.696L52.463,131.453z M50.338,140.226c-1.004-1.64-1.742-2.091-3.786-0.864
					c-1.591,0.944-1.959,1.871-1.358,2.878c0.414,0.69,0.604,0.613,1.129,0.385L50.338,140.226z"/>
				<path d="M41.086,136.245l-3.18-7.843l3.414-1.387l0.139,0.336c-2.288,1.299-2.321,2.432-1.576,4.27
					c0.304,0.748,0.47,0.963,1.201,0.669l3.942-1.601c-0.51-1.312-1.235-1.827-3.425-1.175l-0.142-0.352l5.74-2.336l0.146,0.355
					c-2.058,1.023-2.288,1.928-1.74,3.274l4.11-1.673c0.75-0.303,0.849-0.647,0.49-1.529c-0.542-1.332-1.545-2.537-4.458-2.35
					l-0.157-0.383l3.758-0.891l3.227,7.954l-0.425,0.17c-0.418-0.732-0.642-1.133-1.693-0.707l-8.225,3.343
					c-1.121,0.457-0.923,1.04-0.721,1.686L41.086,136.245z"/>
				<path d="M48.599,123.086c-0.327-0.825-0.547-1.197-1.722-0.916l-8.46,2c-1.038,1.089-1.038,1.332-0.996,1.519l-0.448,0.104
					l-0.71-3.015l6.445-6.751l-0.006-0.03l-5.406,1.279c-1.07,0.256-1.619,0.564-1.454,1.747l-0.446,0.105l-0.726-3.068l0.446-0.107
					c0.404,0.991,0.834,0.977,1.692,0.776l10.509-2.484l0.095,0.396l-8.17,8.641l0.01,0.027l7.136-1.689
					c1.284-0.303,1.552-0.682,1.446-1.774l0.443-0.105l0.77,3.244L48.599,123.086z"/>
				<path d="M37.531,107.485c-1.253,0.382-3.271,1.45-3.112,3.175c0.072,0.759,0.693,1.51,1.879,1.4
					c0.985-0.088,1.36-0.402,2.015-1.7l1.135-2.275c0.264-0.52,1.222-1.728,3.211-1.915c1.607-0.146,3.904,0.586,4.151,3.274
					c0.126,1.387-0.435,2.102-0.389,2.553c0.029,0.311,0.363,0.349,0.662,0.383l0.037,0.424l-4.508,0.418l-0.04-0.424
					c1.817-0.465,3.801-1.502,3.63-3.356c-0.162-1.755-1.977-1.662-2.215-1.64c-1.222,0.113-1.598,0.839-2.075,1.843l-0.495,1.032
					c-1.267,2.633-2.837,2.784-3.676,2.855c-1.114,0.105-3.64-0.118-3.897-2.891c-0.107-1.172,0.43-1.912,0.392-2.339
					c-0.03-0.335-0.309-0.382-0.666-0.424l-0.039-0.438l3.962-0.366L37.531,107.485z"/>
				<path d="M37.567,98.659c-1.29,0.228-3.425,1.048-3.472,2.776c-0.022,0.765,0.503,1.585,1.695,1.62
					c0.993,0.028,1.403-0.242,2.209-1.45l1.398-2.115c0.326-0.49,1.42-1.576,3.418-1.516c1.613,0.044,3.806,1.048,3.729,3.747
					c-0.04,1.392-0.68,2.033-0.695,2.49c-0.01,0.305,0.318,0.388,0.609,0.457l-0.008,0.424l-4.53-0.129l0.01-0.427
					c1.862-0.239,3.956-1.029,4.009-2.894c0.052-1.758-1.762-1.882-2-1.89c-1.227-0.036-1.686,0.638-2.282,1.579l-0.615,0.966
					c-1.575,2.465-3.153,2.418-3.992,2.393c-1.12-0.033-3.601-0.559-3.521-3.345c0.034-1.172,0.66-1.843,0.671-2.27
					c0.008-0.336-0.264-0.416-0.612-0.501l0.015-0.44l3.978,0.113L37.567,98.659z"/>
				<path d="M34.029,95.619l1.367-8.352l3.637,0.592l-0.059,0.363c-2.623-0.085-3.244,0.869-3.564,2.823
					c-0.13,0.795-0.102,1.07,0.677,1.194l4.198,0.688c0.248-1.387-0.105-2.201-2.311-2.787l0.062-0.377l6.116,1.004L44.09,91.14
					c-2.29-0.195-2.955,0.454-3.19,1.884l4.378,0.718c0.796,0.132,1.059-0.107,1.213-1.048c0.234-1.42,0.006-2.971-2.579-4.333
					l0.065-0.407l3.671,1.197l-1.388,8.474l-0.454-0.077c0.027-0.842,0.047-1.301-1.076-1.483l-8.757-1.433
					c-1.191-0.196-1.329,0.407-1.492,1.065L34.029,95.619z"/>
				<path d="M50.357,80.309l-2.578,8.077l-0.437-0.14c0.128-0.82,0.209-1.257-0.856-1.601l-8.454-2.704
					c-1.157-0.366-1.373,0.198-1.627,0.809l-0.436-0.14l1.557-4.878l0.438,0.14c-0.259,0.996-0.381,1.433,1.158,1.926l8.244,2.635
					c0.838,0.27,1.077,0.006,1.376-0.927c0.675-2.113-0.524-3.359-2.292-4.636l0.127-0.401L50.357,80.309z"/>
				<path d="M54.977,70.726l-2.124,4.251l-0.407-0.204c0.323-0.853,0.424-1.098-0.118-1.367c-0.441-0.22-1.865-0.407-2.483-0.484
					l-1.473,2.952c0.997,0.957,1.568,1.502,1.829,1.631c0.622,0.311,0.985-0.292,1.241-0.724l0.411,0.206l-1.33,2.663l-0.41-0.206
					c0.223-0.77-0.242-1.235-1.279-2.242l-7.537-7.398l0.18-0.369l10.093,1.378c2.054,0.286,2.715,0.355,2.995-0.292L54.977,70.726z
					 M49.106,72.798l-4.649-0.666l3.37,3.225L49.106,72.798z"/>
				<path d="M44.986,63.384l4.885-6.919l3.008,2.13l-0.209,0.297c-2.323-1.224-3.3-0.638-4.439,0.98
					c-0.465,0.657-0.558,0.919,0.083,1.373l3.472,2.457c0.83-1.142,0.872-2.028-0.856-3.521l0.222-0.311l5.058,3.579l-0.219,0.311
					c-1.974-1.18-2.855-0.886-3.695,0.3l3.625,2.564c0.66,0.462,0.999,0.363,1.55-0.413c0.829-1.178,1.303-2.674-0.422-5.029
					l0.234-0.333l2.775,2.679l-4.951,7.01l-0.377-0.267c0.395-0.743,0.611-1.147-0.316-1.805l-7.247-5.123
					c-0.988-0.699-1.371-0.215-1.81,0.303L44.986,63.384z"/>
				<path d="M67.566,55.54l-2.088,2.165l-6.239-1.796l-0.277,0.286l2.59,2.493c1.054,1.018,1.318,0.823,2.11,0.239l0.33,0.322
					l-3.442,3.568L60.22,62.5c0.586-0.82,0.751-1.073-0.318-2.099l-5.837-5.626c-1.136-1.094-1.48-0.794-2.111-0.242l-0.33-0.319
					l3.278-3.398c0.711-0.741,2.977-2.878,5.194-0.741c1.626,1.567,0.986,3.048,0.66,3.835l5.808,1.504
					c0.383,0.083,0.548-0.066,0.671-0.19L67.566,55.54z M58.539,55.788c1.319-1.399,1.56-2.227-0.156-3.879
					c-1.336-1.285-2.321-1.403-3.135-0.556c-0.561,0.582-0.435,0.744-0.076,1.188L58.539,55.788z"/>
				<path d="M69.937,53.053c0.506-0.534,0.521-0.563,0.554-0.698c0.05-0.235,0.084-0.547-0.498-1.393l-4.6-6.674
					c-0.873-1.264-1.279-1.054-1.971-0.689l-0.261-0.376l3.887-2.681c0.966-0.666,3.321-1.955,5.076,0.597
					c0.368,0.528,0.974,1.692,0.476,3.039c-0.399,1.073-1.004,1.515-2.586,2.629l1.934,2.808c0.845,1.223,1.092,1.095,2.022,0.656
					l0.257,0.376l-4.032,2.783L69.937,53.053z M69.648,46.278c1.483-0.977,1.725-1.79,0.432-3.663
					c-1.184-1.721-2.015-1.993-3.004-1.312c-0.413,0.285-0.432,0.587-0.216,0.93L69.648,46.278z"/>
				<path d="M84.042,38.34c1.678,3.465,0.869,6.809-1.835,8.12c-2.707,1.313-5.834-0.129-7.513-3.592
					c-1.746-3.601-0.715-6.892,1.832-8.123C79.076,33.511,82.298,34.743,84.042,38.34z M77.031,41.733
					c0.695,1.436,2.653,5.277,4.911,4.185c2.26-1.095,0.458-5.013-0.236-6.446c-1.168-2.412-3.065-5.077-4.915-4.185
					C74.942,36.184,75.863,39.325,77.031,41.733z"/>
				<path d="M95.111,41.389l-8.12,2.438l-0.129-0.438c0.746-0.36,1.153-0.541,0.832-1.611l-2.554-8.501
					c-0.344-1.158-0.931-1.021-1.58-0.883l-0.132-0.439l4.904-1.473l0.129,0.44c-0.966,0.347-1.396,0.495-0.931,2.041l2.488,8.289
					c0.25,0.842,0.604,0.891,1.546,0.608c2.118-0.637,2.468-2.334,2.52-4.511l0.407-0.124L95.111,41.389z"/>
				<path d="M104.112,27.93c-0.268,0.091-0.677,0.223-0.889,0.846l-1.986,6.035l0.466,3.34c0.21,1.508,0.535,1.501,1.569,1.486
					l0.065,0.454l-5.044,0.704l-0.058-0.454c0.981-0.266,1.326-0.354,1.117-1.861l-0.376-2.668l-3.499-5.658
					c-0.095-0.153-0.554-0.886-1.301-0.835l-0.065-0.455l4.867-0.68l0.063,0.454c-1.002,0.14-1.161,0.272-1.09,0.783
					c0.039,0.272,0.333,0.695,0.49,0.967l2.333,3.97l1.142-3.585c0.074-0.212,0.401-1.276,0.331-1.769
					c-0.097-0.706-0.642-0.669-1.331-0.627l-0.065-0.454l3.196-0.446L104.112,27.93z"/>
				<path d="M113.202,39.86l-5.238-0.068l0.007-0.458c1.07-0.096,1.424-0.125,1.446-1.666l0.121-9.667
					c-1.026,0.059-2.541,0.132-2.869,3.063l-0.428-0.007l0.095-3.684l8.804,0.112l-0.019,3.687l-0.428-0.004
					c-0.257-2.938-1.765-3.051-2.776-3.136l-0.124,9.665c-0.021,1.56,0.33,1.6,1.416,1.704L113.202,39.86z"/>
				<path d="M117.188,27.648l8.355,1.338l-0.582,3.637l-0.362-0.055c0.077-2.625-0.878-3.242-2.832-3.556
					c-0.797-0.125-1.069-0.098-1.194,0.681l-0.667,4.201c1.384,0.239,2.2-0.113,2.773-2.323l0.376,0.062l-0.975,6.117l-0.377-0.059
					c0.187-2.289-0.465-2.949-1.897-3.18l-0.7,4.38c-0.128,0.796,0.113,1.058,1.054,1.211c1.421,0.227,2.972-0.01,4.322-2.594
					l0.405,0.063l-1.18,3.673l-8.469-1.356l0.07-0.454c0.842,0.025,1.298,0.043,1.48-1.083l1.398-8.761
					c0.191-1.194-0.411-1.326-1.069-1.489L117.188,27.648z"/>
				<path d="M134.512,42.126c-1.486,1.121-2.93,1.869-4.718,1.294c-3.255-1.048-4.091-4.48-3.039-7.742
					c1.14-3.545,4.03-5.619,6.963-4.673c1.256,0.403,2.055,1.607,2.42,1.725c0.377,0.12,0.619-0.206,0.902-0.597l0.374,0.121
					l-1.315,4.084l-0.348-0.112c0-1.677-0.516-4.099-2.106-4.609c-2.041-0.658-3.445,1.838-4.396,4.786
					c-0.338,1.048-0.794,2.75-0.634,4.034c0.179,1.446,1.198,2.065,1.63,2.202c1.09,0.351,2.306,0.165,3.987-1.085L134.512,42.126z"
					/>
				<path d="M143.707,49.383l-4.432-2.291l0.21-0.405c0.743,0.259,1.256,0.441,1.77-0.552l1.937-3.746l-3.142-1.623l-1.934,3.746
					c-0.514,0.993-0.065,1.308,0.575,1.762l-0.212,0.408l-4.394-2.271l0.209-0.41c0.752,0.245,1.213,0.379,1.709-0.581l4.077-7.883
					c0.548-1.056,0.003-1.38-0.51-1.729l0.21-0.406l4.394,2.27l-0.213,0.406c-0.597-0.245-1.215-0.523-1.768,0.55l-1.747,3.373
					l3.142,1.623l1.744-3.37c0.556-1.076-0.028-1.42-0.572-1.762l0.209-0.407l4.431,2.29l-0.213,0.407
					c-0.586-0.242-1.194-0.494-1.744,0.563l-4.077,7.881c-0.503,0.978-0.08,1.279,0.55,1.751L143.707,49.383z"/>
				<path d="M143.946,49.034c0.784,0.424,1.187,0.568,1.912-0.402l5.202-6.963c0.099-1.504-0.052-1.689-0.206-1.804l0.272-0.368
					l2.482,1.854l-0.609,9.315l0.025,0.019l3.326-4.451c0.659-0.883,0.879-1.471-0.005-2.271l0.274-0.366l2.527,1.885l-0.274,0.368
					c-0.947-0.499-1.27-0.214-1.797,0.492l-6.463,8.65l-0.33-0.246l0.715-11.867l-0.022-0.016l-4.391,5.874
					c-0.789,1.061-0.751,1.526,0.03,2.29l-0.272,0.366l-2.669-1.989L143.946,49.034z"/>
				<path d="M155.492,59.207l-3.714-3.546l0.319-0.333c0.636,0.481,1.1,0.823,1.884,0.003l6.134-6.419
					c0.835-0.876,0.363-1.378-0.088-1.886l0.318-0.332l3.71,3.548l-0.315,0.332c-0.523-0.448-1.045-0.922-1.907-0.019l-6.134,6.418
					c-0.81,0.847-0.425,1.293,0.109,1.904L155.492,59.207z"/>
				<path d="M163.735,65.34c-1.857,0.138-3.475-0.017-4.664-1.466c-2.168-2.647-1.014-5.981,1.638-8.154
					c2.878-2.359,6.429-2.535,8.386-0.154c0.836,1.023,0.858,2.465,1.098,2.759c0.253,0.305,0.633,0.165,1.081-0.011l0.253,0.305
					l-3.321,2.721l-0.231-0.286c0.905-1.409,1.786-3.72,0.726-5.015c-1.362-1.656-3.893-0.319-6.29,1.642
					c-0.849,0.699-2.155,1.882-2.719,3.043c-0.633,1.315-0.11,2.388,0.179,2.737c0.726,0.886,1.849,1.389,3.942,1.249L163.735,65.34
					z"/>
				<path d="M166.478,74.633l-2.509-4.479l0.4-0.228c0.467,0.649,0.812,1.112,1.804,0.559l7.744-4.339
					c1.056-0.589,0.752-1.211,0.47-1.829l0.402-0.22l2.506,4.482l-0.399,0.226c-0.37-0.583-0.729-1.194-1.816-0.583l-7.747,4.336
					c-1.025,0.572-0.787,1.114-0.457,1.851L166.478,74.633z"/>
				<path d="M167.095,74.506c0.452,0.768,0.725,1.1,1.845,0.641l8.05-3.282c0.861-1.238,0.823-1.477,0.751-1.656l0.427-0.17
					l1.166,2.864l-5.326,7.673l0.014,0.03l5.143-2.102c1.019-0.416,1.512-0.809,1.165-1.948l0.423-0.176l1.194,2.924l-0.424,0.171
					c-0.553-0.916-0.978-0.836-1.794-0.503l-10.002,4.08l-0.156-0.38l6.738-9.802l-0.011-0.025l-6.792,2.77
					c-1.222,0.498-1.428,0.916-1.156,1.975l-0.424,0.174l-1.257-3.087L167.095,74.506z"/>
				<path d="M180.438,88.218c1.182-0.57,3.013-1.937,2.592-3.615c-0.187-0.743-0.918-1.389-2.07-1.098
					c-0.966,0.239-1.29,0.608-1.733,1.992l-0.774,2.421c-0.179,0.559-0.94,1.898-2.876,2.388c-1.568,0.394-3.948,0.022-4.608-2.594
					c-0.338-1.351,0.105-2.143-0.007-2.586c-0.076-0.297-0.411-0.289-0.711-0.272l-0.103-0.416l4.394-1.106l0.103,0.413
					c-1.726,0.737-3.528,2.069-3.073,3.876c0.429,1.706,2.208,1.334,2.439,1.276c1.19-0.3,1.451-1.076,1.77-2.14l0.329-1.098
					c0.849-2.801,2.377-3.18,3.193-3.389c1.087-0.272,3.618-0.44,4.297,2.261c0.289,1.144-0.132,1.959-0.03,2.371
					c0.083,0.325,0.368,0.327,0.723,0.319l0.107,0.424l-3.86,0.968L180.438,88.218z"/>
				<path d="M173.169,98.81l-0.586-5.205l0.457-0.052c0.228,1.054,0.303,1.4,1.832,1.23l9.607-1.078
					c-0.19-1.018-0.451-2.506-3.4-2.471l-0.047-0.424l3.667-0.368l0.985,8.754l-3.659,0.438l-0.047-0.424
					c2.882-0.616,2.805-2.13,2.765-3.145l-9.607,1.079c-1.546,0.173-1.546,0.528-1.515,1.618L173.169,98.81z"/>
				<path d="M173.265,106.145l0.015-5.137h0.461c0.088,0.795,0.159,1.37,1.294,1.37l8.876,0.027c1.212,0.003,1.249-0.685,1.31-1.364
					l0.457,0.003l-0.014,5.137h-0.459c-0.034-0.691-0.052-1.395-1.298-1.398l-8.878-0.028c-1.175-0.005-1.228,0.583-1.307,1.389
					H173.265z"/>
				<path d="M172.521,113.548l0.615-5.205l0.454,0.055c-0.015,1.078-0.019,1.431,1.507,1.612l9.602,1.139
					c0.047-1.032,0.134-2.545-2.746-3.177l0.05-0.424l3.654,0.479l-1.03,8.743l-3.665-0.407l0.051-0.424
					c2.946,0.055,3.216-1.433,3.407-2.432l-9.599-1.134c-1.547-0.187-1.627,0.162-1.842,1.227L172.521,113.548z"/>
				<path d="M181.126,128.429c0.073-0.817-0.03-1.194-1.198-1.518l-5.634-1.568c-1.045-0.292-2.561-0.924-3.191-1.739
					c-0.757-0.971-0.751-2.294-0.516-3.142c0.172-0.622,0.65-1.926,1.911-2.561c0.842-0.424,1.563-0.619,3.469-0.088l5.901,1.64
					c1.484,0.416,1.623,0.055,1.952-0.707l0.439,0.121l-1.326,4.782l-0.444-0.124c0.206-0.949,0.309-1.389-1.245-1.824l-5.901-1.637
					c-1.007-0.283-3.444-0.96-4.011,1.078c-0.692,2.487,2.006,3.268,3.135,3.579l5.388,1.5c1.078,0.3,1.725,0.294,2.136-0.9
					l0.44,0.121l-0.865,3.109L181.126,128.429z"/>
				<path d="M166.579,131.912l2.157-4.771l0.418,0.19c-0.343,1.021-0.451,1.356,0.949,1.989l8.806,3.981
					c0.356-0.966,0.897-2.377-1.656-3.854l0.173-0.388l3.343,1.56l-3.625,8.02l-3.372-1.494l0.173-0.388
					c2.795,0.943,3.502-0.396,3.984-1.287l-8.804-3.981c-1.422-0.644-1.6-0.336-2.13,0.613L166.579,131.912z"/>
				<path d="M176.17,140.457l-4.575,7.125l-3.103-1.995l0.198-0.305c2.376,1.12,3.326,0.492,4.394-1.175
					c0.436-0.68,0.519-0.944-0.145-1.37l-3.578-2.297c-0.779,1.178-0.781,2.06,1.012,3.478l-0.209,0.319l-5.211-3.345l0.206-0.325
					c2.025,1.095,2.89,0.76,3.676-0.462l-3.733-2.399c-0.678-0.435-1.015-0.319-1.53,0.484c-0.779,1.211-1.184,2.726,0.642,4.999
					l-0.221,0.347l-2.89-2.556l4.643-7.222l0.385,0.25c-0.36,0.759-0.558,1.175,0.396,1.788l7.465,4.798
					c1.018,0.652,1.381,0.154,1.793-0.385L176.17,140.457z"/>
			</g>
			<g>
				<path d="M87.027,168.871c1.23,0.427,1.805,1.846,1.343,3.18c-0.478,1.37-1.794,2.099-3.028,1.673
					c-1.186-0.413-1.817-1.819-1.341-3.181C84.463,169.206,85.841,168.461,87.027,168.871z"/>
				<path d="M99.477,180.838l-6.098-1.056l0.072-0.429c1.884,0.341,2.057-0.358,2.248-1.477l1.2-6.958
					c0.077-0.451,0.215-1.243-0.418-1.354c-0.231-0.039-0.818,0.085-1.414,0.223l0.083-0.47l4.44-1.263l0.275,0.049l-1.776,10.298
					c-0.208,1.211-0.145,1.722,1.465,2.003L99.477,180.838z"/>
				<path d="M109.559,171.564c-0.08,1.554-1.45,2.146-2.373,2.429c1.366,1.01,2.359,2.344,2.27,4.047
					c-0.119,2.292-1.71,3.64-4.067,3.519c-1.78-0.094-3.389-1.243-3.285-3.257c0.102-1.995,1.507-2.639,2.632-2.966
					c-1.196-0.836-2.191-2.003-2.114-3.524c0.091-1.703,1.275-3.205,3.912-3.067C109.038,168.871,109.614,170.519,109.559,171.564z
					 M106.805,173.641c0.413-0.545,0.729-0.971,0.787-2.069c0.05-0.935-0.132-2.248-1.352-2.311
					c-0.805-0.041-1.388,0.66-1.426,1.414C104.724,172.379,106.646,173.542,106.805,173.641z M105.535,180.976
					c1.466,0.077,1.553-1.59,1.578-2.063c0.078-1.502-0.953-2.347-2.03-3.23c-0.541,0.8-0.913,1.348-0.983,2.685
					C104.032,179.688,104.463,180.921,105.535,180.976z"/>
				<path d="M117.936,181.072l-6.852,0.448l-0.025-0.421c2.457-3.34,4.29-5.885,4.149-8.044c-0.034-0.512-0.418-2.325-2.111-2.218
					c-0.382,0.03-1.395,0.204-1.901,1.783l-0.462,0.027c0.261-1.062,1.055-3.816,3.376-3.97c1.019-0.066,3.088,0.443,3.272,3.225
					c0.034,0.528,0.128,1.92-1.619,4.036l-2.481,2.996l2.484-0.165c1.747-0.116,1.882-0.305,2.263-1.582l0.395-0.025
					L117.936,181.072z"/>
				<path d="M126.957,174.827l0.377,1.997l-1.023,0.193l0.484,2.597l-2.35,0.437l-0.487-2.594l-4.022,0.751l-0.383-2.036
					c0.966-2.828,2.537-6.275,3.626-8.716l1.299-0.245l1.458,7.802L126.957,174.827z M122.626,170.153l-0.032,0.003l-2.367,5.928
					l3.391-0.635L122.626,170.153z"/>
				<path d="M133.332,168.549c1.224-0.443,2.567,0.3,3.047,1.631c0.492,1.359-0.076,2.754-1.3,3.194
					c-1.178,0.429-2.55-0.261-3.044-1.623C131.555,170.423,132.152,168.975,133.332,168.549z"/>
			</g>
		</g>
		<g>
			<path d="M70.471,157.162l-1.134,1.123l-0.085-0.083c0.199-0.215,0.253-0.283,0.198-0.338c-0.044-0.044-0.109-0.055-0.228-0.069
				l-1.373-0.163l-0.006,0.179l0.652,0.66c0.201,0.204,0.333,0.099,0.534-0.055l0.085,0.085l-1.139,1.125l-0.083-0.085
				c0.165-0.206,0.259-0.322,0.055-0.531l-1.614-1.634c-0.219-0.22-0.365-0.094-0.53,0.05l-0.083-0.083l1.14-1.128l0.084,0.085
				c-0.172,0.195-0.281,0.316,0.005,0.608l0.714,0.723l0.007-1.461c0.001-0.184,0.001-0.242-0.063-0.305
				c-0.074-0.08-0.137-0.055-0.396,0.17l-0.083-0.085l0.975-0.96l0.084,0.083c-0.333,0.372-0.333,0.696-0.327,1.835l2.289,0.261
				c0.113,0.011,0.168-0.03,0.238-0.094L70.471,157.162z"/>
			<path d="M70.439,157.055c0.199-0.209,0.281-0.316,0.084-0.561l-1.428-1.738c-0.413-0.083-0.479-0.047-0.528-0.008l-0.074-0.094
				l0.776-0.633l2.554,0.523l0.01-0.008l-0.914-1.109c-0.181-0.22-0.323-0.308-0.639-0.08l-0.073-0.094l0.787-0.649l0.076,0.091
				c-0.237,0.253-0.187,0.355-0.045,0.528l1.772,2.162l-0.102,0.083l-3.26-0.649l-0.011,0.008l1.203,1.467
				c0.213,0.264,0.351,0.27,0.648,0.077l0.073,0.094l-0.834,0.677L70.439,157.055z"/>
			<path d="M75.049,151.751c0.567,0.817,0.374,1.785-0.427,2.336c-0.801,0.553-1.772,0.385-2.339-0.435
				c-0.585-0.85-0.325-1.819,0.427-2.336C73.464,150.796,74.464,150.895,75.049,151.751z M72.976,153.178
				c0.232,0.338,0.889,1.241,1.558,0.779c0.667-0.457,0.055-1.395-0.177-1.733c-0.392-0.567-1.009-1.155-1.556-0.781
				C72.254,151.822,72.584,152.609,72.976,153.178z"/>
			<path d="M78.554,148.001c-0.137,0.094-0.172,0.248-0.137,0.427l0.58,2.952l-0.11,0.063l-1.786-1.538l-0.03,0.016l0.341,2.358
				l-0.116,0.066l-2.282-1.992c-0.182-0.16-0.246-0.176-0.436-0.105l-0.057-0.102l1.215-0.688l0.058,0.105
				c-0.14,0.096-0.253,0.17-0.168,0.325c0.028,0.044,0.066,0.083,0.107,0.116l1.334,1.213l0.01-0.006l-0.23-1.527l-0.367-0.317
				c-0.106-0.06-0.177-0.08-0.381,0.022l-0.058-0.102l1.29-0.732l0.058,0.107c-0.173,0.11-0.289,0.185-0.21,0.322
				c0.029,0.052,0.117,0.126,0.187,0.195l1.22,1.125l0.008-0.006l-0.336-1.662c-0.011-0.05-0.022-0.105-0.069-0.193
				c-0.098-0.168-0.246-0.091-0.388-0.019l-0.061-0.105l0.752-0.424L78.554,148.001z"/>
			<path d="M82.675,149.495l-2.479,1.164l-0.052-0.105c0.227-0.143,0.349-0.22,0.227-0.481l-0.975-2.077
				c-0.137-0.281-0.316-0.206-0.514-0.129l-0.052-0.107l1.499-0.704l0.05,0.107c-0.293,0.152-0.422,0.223-0.246,0.597l0.953,2.03
				c0.096,0.203,0.206,0.192,0.495,0.06c0.648-0.308,0.721-0.776,0.69-1.356l0.124-0.058L82.675,149.495z"/>
			<path d="M81.808,146.364l2.538-1.026l0.357,0.886l-0.109,0.044c-0.354-0.583-0.71-0.57-1.304-0.327
				c-0.242,0.099-0.316,0.146-0.236,0.336l0.407,1.023c0.427-0.168,0.605-0.372,0.451-0.947l0.113-0.044l0.603,1.486l-0.116,0.049
				c-0.275-0.531-0.553-0.575-0.99-0.396l0.43,1.065c0.081,0.196,0.184,0.209,0.469,0.099c0.435-0.176,0.835-0.47,0.845-1.249
				l0.124-0.049l0.192,0.987l-2.572,1.037l-0.047-0.11c0.239-0.126,0.369-0.192,0.261-0.47l-0.858-2.127
				c-0.12-0.292-0.305-0.226-0.514-0.157L81.808,146.364z"/>
			<path d="M85.854,148.058c0.286-0.096,0.329-0.256,0.272-0.427l-0.755-2.212c-0.094-0.275-0.294-0.217-0.474-0.173l-0.037-0.116
				l1.369-0.465c1.259-0.429,1.933,0.215,2.168,0.908c0.283,0.825,0.034,1.692-1.083,2.113l-1.422,0.484L85.854,148.058z
				 M86.85,147.379c0.062,0.181,0.131,0.245,0.348,0.173c0.501-0.173,0.798-0.594,0.432-1.67c-0.137-0.404-0.567-1.329-1.343-1.062
				c-0.286,0.096-0.242,0.204-0.203,0.303L86.85,147.379z"/>
			<path d="M92.147,144.93c-0.274,0.11-0.38,0.159-0.275,0.531l0.163,0.583c-0.176,0.214-0.76,0.517-1.156,0.624
				c-1.144,0.322-1.88-0.347-2.105-1.142c-0.253-0.902,0.174-1.818,1.161-2.094c0.413-0.115,0.825,0.011,0.947-0.022
				c0.122-0.033,0.135-0.143,0.153-0.267l0.122-0.036l0.297,1.067l-0.113,0.033c-0.27-0.352-0.806-0.781-1.326-0.636
				c-0.666,0.182-0.652,0.933-0.435,1.72c0.092,0.325,0.439,1.455,1.301,1.213c0.404-0.11,0.438-0.27,0.384-0.465l-0.134-0.484
				c-0.083-0.289-0.234-0.261-0.553-0.187l-0.03-0.116l1.566-0.435L92.147,144.93z"/>
			<path d="M91.916,142.969l2.673-0.6l0.208,0.93l-0.118,0.025c-0.25-0.633-0.607-0.674-1.23-0.534
				c-0.256,0.058-0.333,0.096-0.289,0.292l0.239,1.073c0.446-0.091,0.655-0.27,0.597-0.856l0.118-0.025l0.352,1.562l-0.121,0.025
				c-0.185-0.564-0.451-0.652-0.908-0.547l0.25,1.12c0.047,0.206,0.147,0.239,0.448,0.176c0.452-0.107,0.897-0.336,1.03-1.098
				l0.129-0.028l0.032,1.002l-2.706,0.611l-0.026-0.116c0.256-0.088,0.398-0.135,0.333-0.421l-0.503-2.239
				c-0.069-0.305-0.265-0.27-0.484-0.237L91.916,142.969z"/>
			<g>
				<path d="M107.779,144.064l-1.539,0.058l-0.004-0.121c0.294-0.033,0.378-0.044,0.373-0.198c-0.004-0.129-0.169-0.476-0.241-0.622
					l-1.07,0.038c-0.118,0.35-0.185,0.548-0.185,0.619c0.007,0.179,0.237,0.187,0.399,0.19l0.004,0.118l-0.964,0.036l-0.004-0.116
					c0.254-0.05,0.315-0.215,0.444-0.572l0.952-2.641l0.135-0.006l1.153,2.454c0.234,0.501,0.316,0.66,0.545,0.641L107.779,144.064z
					 M106.291,142.996l-0.525-1.133l-0.403,1.166L106.291,142.996z"/>
				<path d="M107.98,143.934c0.286-0.033,0.418-0.066,0.421-0.377l0.011-2.248c-0.264-0.33-0.338-0.347-0.399-0.347v-0.118
					l0.999,0.008l1.637,2.036h0.008l0.01-1.442c0.001-0.286-0.055-0.437-0.441-0.47l0.003-0.121l1.021,0.008l-0.003,0.118
					c-0.338,0.041-0.369,0.151-0.37,0.377l-0.015,2.795h-0.135l-2.096-2.583h-0.011l-0.011,1.898c0,0.338,0.099,0.432,0.451,0.47
					v0.121l-1.078-0.008V143.934z"/>
				<path d="M111.375,143.962c0.3,0.011,0.402-0.121,0.413-0.292l0.118-2.339c0.016-0.289-0.19-0.311-0.376-0.338l0.004-0.116
					l1.447,0.074c1.323,0.066,1.714,0.914,1.677,1.643c-0.044,0.872-0.594,1.585-1.789,1.56l-1.498-0.077L111.375,143.962z
					 M112.555,143.698c-0.01,0.187,0.028,0.275,0.256,0.286c0.531,0.03,0.963-0.25,1.021-1.387c0.023-0.429-0.034-1.444-0.85-1.483
					c-0.301-0.019-0.303,0.102-0.304,0.206L112.555,143.698z"/>
			</g>
			<g>
				<path d="M123.065,145.318l-1.516-0.283l0.022-0.11c0.314,0.028,0.418,0.033,0.491-0.358l0.456-2.459
					c-0.3-0.039-0.744-0.096-0.963,0.638l-0.125-0.022l0.187-0.938l2.546,0.468l-0.165,0.941l-0.124-0.019
					c0.055-0.768-0.378-0.869-0.669-0.941l-0.457,2.462c-0.072,0.396,0.028,0.424,0.338,0.504L123.065,145.318z"/>
				<path d="M126.883,146.16l-1.431-0.327l0.027-0.116c0.228,0.025,0.388,0.039,0.454-0.239l0.242-1.067l-1.012-0.231l-0.245,1.067
					c-0.063,0.278,0.088,0.333,0.304,0.412l-0.023,0.116l-1.42-0.322l0.025-0.121c0.231,0.022,0.373,0.03,0.432-0.242l0.513-2.242
					c0.067-0.3-0.11-0.352-0.285-0.41l0.027-0.116l1.417,0.325l-0.028,0.113c-0.186-0.025-0.382-0.06-0.45,0.242l-0.219,0.96
					l1.013,0.231l0.219-0.96c0.07-0.305-0.122-0.357-0.304-0.413l0.026-0.116l1.431,0.325l-0.026,0.118
					c-0.186-0.027-0.379-0.058-0.447,0.242l-0.508,2.242c-0.065,0.278,0.077,0.33,0.294,0.413L126.883,146.16z"/>
				<path d="M130.453,145.497c-0.268,0.958-1.072,1.447-1.924,1.211c-0.854-0.237-1.29-1.073-1.023-2.033
					c0.276-0.999,1.122-1.433,1.924-1.211C130.234,143.687,130.731,144.498,130.453,145.497z M128.242,144.881
					c-0.11,0.399-0.385,1.475,0.327,1.678c0.712,0.198,1.037-0.869,1.146-1.268c0.187-0.666,0.256-1.513-0.329-1.675
					C128.803,143.45,128.426,144.215,128.242,144.881z"/>
				<path d="M133.068,148.025l-0.842-0.275l-0.383-1.692l-0.114-0.036l-0.289,0.883c-0.12,0.361-0.032,0.405,0.224,0.537
					l-0.037,0.11l-1.387-0.454l0.037-0.115c0.292,0.058,0.378,0.072,0.495-0.297l0.66-1.989c0.126-0.388,0-0.437-0.227-0.534
					l0.04-0.113l1.321,0.434c0.286,0.091,1.147,0.413,0.897,1.172c-0.184,0.556-0.655,0.556-0.898,0.558l0.4,1.557
					c0.033,0.102,0.092,0.124,0.14,0.14L133.068,148.025z M131.78,145.88c0.536,0.17,0.785,0.143,0.979-0.446
					c0.148-0.454,0.044-0.704-0.283-0.809c-0.227-0.077-0.253-0.03-0.319,0.105L131.78,145.88z"/>
				<path d="M136.625,147.69c-0.358,0.927-1.205,1.343-2.033,1.021c-0.825-0.319-1.175-1.191-0.814-2.124
					c0.372-0.963,1.255-1.32,2.03-1.023C136.585,145.866,136.999,146.724,136.625,147.69z M134.487,146.862
					c-0.146,0.391-0.525,1.436,0.162,1.706c0.689,0.264,1.114-0.77,1.264-1.156c0.249-0.647,0.403-1.483-0.162-1.7
					C135.186,145.494,134.739,146.215,134.487,146.862z"/>
				<path d="M140.179,147.646c-0.234-0.063-0.344-0.058-0.473,0.231l-0.619,1.378c-0.113,0.253-0.341,0.614-0.596,0.735
					c-0.301,0.143-0.684,0.071-0.918-0.033c-0.173-0.08-0.531-0.27-0.68-0.633c-0.092-0.239-0.128-0.438,0.083-0.905l0.649-1.444
					c0.162-0.363,0.065-0.415-0.146-0.542l0.051-0.11l1.329,0.6l-0.047,0.107c-0.265-0.102-0.39-0.154-0.56,0.228l-0.65,1.444
					c-0.112,0.245-0.381,0.842,0.19,1.098c0.692,0.314,0.997-0.35,1.123-0.627l0.593-1.315c0.117-0.264,0.136-0.432-0.195-0.603
					l0.047-0.11l0.869,0.391L140.179,147.646z"/>
				<path d="M142.419,150.876c-0.25-0.094-0.349-0.129-0.531,0.217l-0.275,0.534c-0.261,0.047-0.839-0.107-1.172-0.278
					c-0.955-0.498-0.996-1.464-0.614-2.201c0.432-0.828,1.315-1.235,2.143-0.803c0.343,0.179,0.531,0.539,0.629,0.589
					c0.105,0.052,0.183-0.017,0.276-0.099l0.105,0.052l-0.513,0.985l-0.096-0.047c0.059-0.438-0.007-1.101-0.444-1.324
					c-0.553-0.292-1.04,0.27-1.418,0.993c-0.156,0.297-0.677,1.356,0.045,1.736c0.336,0.176,0.462,0.08,0.559-0.102l0.23-0.443
					c0.14-0.267,0.021-0.338-0.232-0.495l0.054-0.105l1.312,0.685L142.419,150.876z"/>
				<path d="M144.694,153.701l-1.257-0.759l0.06-0.105c0.215,0.094,0.358,0.159,0.51-0.085l0.568-0.932l-0.891-0.539l-0.567,0.93
					c-0.151,0.248-0.025,0.35,0.154,0.49l-0.058,0.102l-1.245-0.757l0.062-0.102c0.212,0.091,0.344,0.146,0.486-0.096l1.198-1.962
					c0.161-0.267,0.007-0.371-0.137-0.481l0.06-0.099l1.244,0.754l-0.062,0.099c-0.169-0.085-0.344-0.179-0.508,0.091l-0.512,0.839
					l0.891,0.539l0.512-0.839c0.162-0.267-0.003-0.377-0.157-0.49l0.061-0.102l1.256,0.762l-0.062,0.102
					c-0.167-0.085-0.339-0.17-0.501,0.091l-1.194,1.964c-0.15,0.242-0.03,0.338,0.146,0.487L144.694,153.701z"/>
				<path d="M144.84,153.663c0.231,0.121,0.348,0.165,0.53-0.091l1.303-1.832c-0.011-0.404-0.058-0.459-0.102-0.495l0.069-0.094
					l0.741,0.528l0.051,2.52l0.007,0.005l0.831-1.175c0.165-0.231,0.215-0.388-0.054-0.614l0.069-0.096l0.756,0.539l-0.069,0.094
					c-0.278-0.143-0.363-0.072-0.494,0.115l-1.62,2.278l-0.099-0.066l-0.076-3.213l-0.008-0.006l-1.101,1.546
					c-0.198,0.278-0.175,0.407,0.063,0.622l-0.069,0.099l-0.799-0.57L144.84,153.663z"/>
				<path d="M149.313,153.063l1.918,1.587l-0.607,0.738l-0.085-0.069c0.354-0.586,0.194-0.869-0.254-1.241
					c-0.183-0.151-0.253-0.19-0.385-0.03l-0.699,0.85c0.314,0.267,0.563,0.316,0.987-0.102l0.085,0.072l-1.021,1.241l-0.085-0.072
					c0.337-0.492,0.256-0.743-0.074-1.015l-0.729,0.886c-0.132,0.163-0.107,0.259,0.111,0.438c0.323,0.27,0.743,0.454,1.407,0.074
					l0.094,0.077l-0.762,0.655l-1.945-1.609l0.077-0.094c0.209,0.135,0.319,0.209,0.508-0.019l1.461-1.772
					c0.199-0.239,0.067-0.363-0.077-0.501L149.313,153.063z"/>
				<path d="M152.383,157.041c0.175-0.297,0.366-0.867-0.005-1.219c-0.162-0.154-0.432-0.218-0.641,0.005
					c-0.181,0.184-0.192,0.316-0.067,0.712l0.216,0.688c0.052,0.162,0.099,0.589-0.259,0.957c-0.286,0.303-0.883,0.528-1.458-0.019
					c-0.297-0.286-0.326-0.534-0.424-0.63c-0.066-0.058-0.139-0.011-0.204,0.027l-0.092-0.085l0.812-0.845l0.092,0.085
					c-0.272,0.407-0.458,0.969-0.063,1.345c0.374,0.355,0.715,0.033,0.758-0.011c0.216-0.231,0.148-0.454,0.048-0.754l-0.103-0.308
					c-0.266-0.792,0.018-1.087,0.166-1.243c0.201-0.209,0.745-0.583,1.34-0.019c0.248,0.239,0.286,0.495,0.376,0.58
					c0.073,0.066,0.139,0.03,0.213-0.016l0.096,0.088l-0.712,0.746L152.383,157.041z"/>
				<path d="M154.111,158.89c0.194-0.281,0.427-0.839,0.085-1.213c-0.153-0.174-0.418-0.25-0.647-0.044
					c-0.19,0.174-0.215,0.303-0.118,0.707l0.172,0.701c0.037,0.163,0.054,0.592-0.329,0.938c-0.311,0.281-0.92,0.462-1.455-0.126
					c-0.275-0.303-0.285-0.556-0.374-0.655c-0.062-0.066-0.139-0.028-0.206,0.011l-0.085-0.094l0.867-0.787l0.087,0.091
					c-0.299,0.388-0.527,0.936-0.161,1.34c0.349,0.385,0.712,0.088,0.756,0.044c0.237-0.212,0.187-0.44,0.107-0.745l-0.083-0.319
					c-0.206-0.809,0.096-1.081,0.259-1.227c0.212-0.196,0.781-0.528,1.329,0.08c0.234,0.253,0.254,0.512,0.337,0.603
					c0.069,0.074,0.136,0.041,0.216-0.003l0.088,0.096l-0.765,0.693L154.111,158.89z"/>
			</g>
		</g>
		<path d="M107.559,107.967l-3.263,0.032c0-1.461,0.547-2.792,1.446-3.808c1.049-1.18,2.579-1.923,4.282-1.923l-0.006,2.312
			l-2.195,0.264L107.559,107.967z"/>
		<path d="M112.587,107.967l3.167,0.032c0,1.651-0.7,3.142-1.821,4.187c-1.023,0.957-2.398,1.541-3.908,1.541v-2.941l2.201-0.351
			L112.587,107.967z"/>
	</g>
	<g>
		<path d="M230.848,36.709c-1.211-3.227-3.688-5.416-7.434-5.416c-3.457,0-5.935,1.383-5.935,4.609
			c0,7.145,21.435,5.646,21.435,19.129c0,8.527-5.359,12.791-14.578,12.791c-6.799,0-13.194-3.803-15.557-9.853l6.568-2.881
			c1.901,3.918,4.379,6.511,9.047,6.511c3.975,0,7.029-1.498,7.029-5.531c0-8.182-21.435-6.568-21.435-19.359
			c0-7.433,6.223-11.639,13.425-11.639c6.684,0,12.215,3.342,14.693,9.392L230.848,36.709z"/>
		<path d="M244.207,37.285v-9.91h7.145v9.91h5.877v5.762h-5.877v16.939c0,1.613,0.807,2.074,2.593,2.074
			c1.095,0,2.247-0.346,3.284-0.576v5.877c-1.959,0.23-3.688,0.461-5.646,0.461c-5.301,0-7.375-2.65-7.375-6.914V43.047h-4.148
			v-5.762H244.207z"/>
		<path d="M285.011,37.285v29.961h-6.568V64.02c-2.65,1.844-5.704,3.803-9.219,3.803c-5.992,0-8.873-3.918-8.873-10.025V37.285
			h7.145V56.76c0,4.033,1.268,5.301,3.688,5.301c3.111,0,5.474-1.786,6.684-3.169V37.285H285.011z"/>
		<path d="M315.576,67.246h-6.05l-0.346-3.227c-2.535,2.478-4.897,3.803-8.124,3.803c-7.951,0-11.984-7.029-11.984-16.363
			c0-7.375,4.264-14.75,11.984-14.75c2.42,0,5.819,1.44,7.26,3.342h0.115V25.647h7.145V67.246z M308.432,45.006
			c-1.44-1.325-3.227-2.535-5.531-2.535c-4.264,0-6.684,3.457-6.684,9.795s2.42,9.795,6.684,9.795c3.054,0,4.033-1.498,5.531-2.65
			V45.006z"/>
		<path d="M326.568,53.418c0.115,6.223,2.881,8.643,6.223,8.643s4.897-1.498,6.684-3.572l5.186,3.227
			c-2.766,4.264-6.799,6.107-12.561,6.107c-7.778,0-12.676-6.05-12.676-15.557s4.897-15.557,13.021-15.557
			c7.836-0.058,12.215,6.568,12.215,13.771v2.938H326.568z M338.092,48.578c-0.115-4.148-2.305-6.568-5.762-6.568
			s-5.646,2.42-5.762,6.568H338.092z"/>
		<path d="M348.877,67.246V37.285h6.568v3.227c2.65-1.844,5.704-3.803,9.219-3.803c5.992,0,8.873,3.918,8.873,10.025v20.512h-7.145
			V47.772c0-4.033-1.268-5.301-3.688-5.301c-3.111,0-5.474,1.786-6.684,3.169v21.606H348.877z"/>
		<path d="M380.421,37.285v-9.91h7.145v9.91h5.877v5.762h-5.877v16.939c0,1.613,0.807,2.074,2.593,2.074
			c1.095,0,2.247-0.346,3.284-0.576v5.877c-1.959,0.23-3.688,0.461-5.646,0.461c-5.301,0-7.375-2.65-7.375-6.914V43.047h-4.148
			v-5.762H380.421z"/>
		<path d="M211.545,124.172v-41.6h7.951v16.594h16.018V82.572h7.951v41.6h-7.951V106.31h-16.018v17.861H211.545z"/>
		<path d="M255.314,110.343c0.115,6.223,2.881,8.643,6.223,8.643s4.897-1.498,6.684-3.572l5.186,3.227
			c-2.766,4.264-6.799,6.107-12.561,6.107c-7.778,0-12.676-6.05-12.676-15.557s4.897-15.557,13.021-15.557
			c7.836-0.058,12.215,6.568,12.215,13.771v2.938H255.314z M266.838,105.504c-0.115-4.148-2.305-6.568-5.762-6.568
			s-5.646,2.42-5.762,6.568H266.838z"/>
		<path d="M293.623,124.172l-0.461-2.593c-2.881,1.959-5.589,3.169-9.334,3.169c-5.416,0-8.124-3.86-8.124-7.951
			c0-6.799,5.531-10.371,17.17-11.754v-2.535c0-2.305-1.844-3.572-4.379-3.572c-3.342,0-5.186,1.786-6.568,3.688l-4.609-3.515
			c1.844-3.169,6.799-5.589,11.178-5.474c8.066,0.173,11.523,3.111,11.523,12.1v14.116c0,1.498,0.115,2.996,0.576,4.321H293.623z
			 M292.874,109.825c-4.782,0.922-10.025,1.901-10.025,6.107c0,2.247,1.44,3.515,3.457,3.515c2.247,0,5.07-1.901,6.568-3.169
			V109.825z"/>
		<path d="M305.768,124.172v-41.6h7.145v41.6H305.768z"/>
		<path d="M320.2,94.211V84.3h7.145v9.91h5.877v5.762h-5.877v16.939c0,1.613,0.807,2.074,2.593,2.074
			c1.095,0,2.247-0.346,3.284-0.576v5.877c-1.959,0.23-3.688,0.461-5.646,0.461c-5.301,0-7.375-2.65-7.375-6.914V99.972h-4.148
			v-5.762H320.2z"/>
		<path d="M336.707,124.172v-41.6h7.145v14.865c2.189-1.844,5.128-3.803,8.643-3.803c5.992,0,8.873,3.918,8.873,10.025v20.512
			h-7.145v-19.475c0-4.033-1.268-5.301-3.688-5.301c-3.111,0-5.474,1.786-6.684,3.169v21.606H336.707z"/>
		<path d="M232.461,151.596c-1.152-3.515-3.631-5.992-7.549-5.992c-5.301,0-8.527,4.955-8.527,14.692
			c-0.115,9.737,2.766,14.692,8.758,14.692c3.572,0,5.762-1.268,8.125-6.165l7.375,1.959c-2.479,7.202-7.895,10.89-15.5,10.89
			c-10.602,0-16.709-7.778-16.709-21.376s6.107-21.376,16.709-21.376c7.951,0,12.561,3.572,14.52,10.947L232.461,151.596z"/>
		<path d="M249.905,167.268c0.115,6.223,2.881,8.643,6.223,8.643s4.897-1.498,6.684-3.572l5.186,3.227
			c-2.766,4.264-6.799,6.107-12.561,6.107c-7.778,0-12.676-6.05-12.676-15.557s4.897-15.557,13.021-15.557
			c7.836-0.058,12.215,6.568,12.215,13.771v2.938H249.905z M261.429,162.428c-0.115-4.148-2.305-6.568-5.762-6.568
			s-5.646,2.42-5.762,6.568H261.429z"/>
		<path d="M272.214,181.096v-29.961h6.568v3.227c2.65-1.844,5.704-3.803,9.219-3.803c5.992,0,8.873,3.918,8.873,10.025v20.512
			h-7.145v-19.475c0-4.033-1.268-5.301-3.688-5.301c-3.111,0-5.474,1.786-6.684,3.169v21.606H272.214z"/>
		<path d="M303.759,151.135v-9.91h7.145v9.91h5.877v5.762h-5.877v16.939c0,1.613,0.807,2.074,2.593,2.074
			c1.095,0,2.247-0.346,3.284-0.576v5.877c-1.959,0.23-3.688,0.461-5.646,0.461c-5.301,0-7.375-2.65-7.375-6.914v-17.861h-4.148
			v-5.762H303.759z"/>
		<path d="M325.174,167.268c0.115,6.223,2.881,8.643,6.223,8.643s4.897-1.498,6.684-3.572l5.186,3.227
			c-2.766,4.264-6.799,6.107-12.561,6.107c-7.778,0-12.676-6.05-12.676-15.557s4.897-15.557,13.021-15.557
			c7.836-0.058,12.215,6.568,12.215,13.771v2.938H325.174z M336.697,162.428c-0.115-4.148-2.305-6.568-5.762-6.568
			s-5.646,2.42-5.762,6.568H336.697z"/>
		<path d="M347.269,181.096v-29.961h6.568v5.128h0.115c1.729-3.572,4.148-5.589,8.412-5.704v7.548
			c-0.346-0.058-0.749-0.058-1.268-0.058c-3.572,0-6.684,4.091-6.684,4.84v18.207H347.269z"/>
	</g>
</g>
<g>
</g>
<g>
</g>
<g>
</g>
<g>
</g>
<g>
</g>
<g>
</g>
</svg>
