<?xml version="1.0" encoding="utf-8"?>
<!-- Generator: Adobe Illustrator 17.0.0, SVG Export Plug-In . SVG Version: 6.00 Build 0)  -->
<!DOCTYPE svg PUBLIC "-//W3C//DTD SVG 1.1//EN" "http://www.w3.org/Graphics/SVG/1.1/DTD/svg11.dtd">
<svg version="1.1" xmlns="http://www.w3.org/2000/svg" xmlns:xlink="http://www.w3.org/1999/xlink" x="0px" y="0px"
	 width="413.208px" height="412.784px" viewBox="0 0 413.208 412.784" enable-background="new 0 0 413.208 412.784"
	 xml:space="preserve">
<g id="Layer_1">
	<path fill="#FF1E00" d="M203.296,217.913l-5.157,0.05c0-2.309,0.865-4.413,2.285-6.018c1.659-1.865,4.076-3.039,6.768-3.039
		l-0.009,3.655l-3.469,0.417L203.296,217.913z"/>
	<path fill="#FF1E00" d="M211.242,217.913l5.005,0.05c0,2.609-1.106,4.966-2.879,6.618c-1.618,1.513-3.79,2.435-6.177,2.435v-4.649
		l3.479-0.554L211.242,217.913z"/>
	<path fill="#FF1E00" stroke="#000000" stroke-width="0.8999" d="M206.529,349.238c78.887,0,142.846-63.954,142.846-142.842
		c0-78.892-63.959-142.849-142.846-142.849c-78.887,0-142.846,63.957-142.846,142.849
		C63.682,285.283,127.641,349.238,206.529,349.238z"/>
	<circle fill="#FFFFFF" cx="205.464" cy="206.887" r="95.636"/>
	<path d="M270.174,280.532c1.706-1.471,3.371-3.007,4.987-4.61c18.438-18.284,28.655-42.649,28.767-68.612
		c0.113-25.967-9.894-50.424-28.176-68.866c-18.279-18.44-42.649-28.656-68.616-28.769c-25.963-0.113-50.417,9.891-68.859,28.173
		c-18.442,18.279-28.659,42.649-28.772,68.614c-0.113,25.963,9.889,50.417,28.169,68.857c1.786,1.8,3.632,3.525,5.529,5.166
		l4.344-2.319c-2.286-1.904-4.495-3.931-6.616-6.071c-17.417-17.572-26.95-40.877-26.84-65.614
		c0.106-24.74,9.842-47.959,27.415-65.378s40.872-26.95,65.612-26.842c24.741,0.106,47.961,9.842,65.38,27.412
		c17.419,17.572,26.953,40.874,26.844,65.618c-0.106,24.737-9.84,47.956-27.41,65.369c-1.956,1.942-3.983,3.78-6.074,5.515
		L270.174,280.532z M247.162,290.27c-12.569,6.109-26.465,9.305-40.848,9.239l0,0c-14.137-0.056-27.775-3.262-40.118-9.277
		l-5.666,2.243c13.898,7.523,29.517,11.548,45.765,11.624l0,0c16.491,0.066,32.371-3.941,46.488-11.558L247.162,290.27z"/>
	<path fill="#FF1E00" d="M219.36,188.913v76.829c0,0,22.561-19.21,29.879-26.215c7.318-7.014,8.54-15.862,8.233-21.959
		l-0.307-28.655H219.36z"/>
	<path fill="#FF1E00" d="M194.665,188.913v76.829c0,0-22.561-19.21-29.879-26.215c-7.318-7.014-8.538-15.862-8.232-21.959
		l0.307-28.655H194.665z"/>
	<line fill="none" stroke="#000000" stroke-width="0.2107" x1="257.166" y1="188.913" x2="156.248" y2="188.913"/>
	<polyline fill="none" stroke="#000000" stroke-width="0.316" points="210.871,208.453 210.871,195.617 203.246,195.617 
		203.246,208.595 	"/>
	<polyline fill="none" stroke="#000000" stroke-width="0.316" points="203.246,227.377 203.246,259.028 210.871,259.028 
		210.871,227.451 	"/>
	<path fill="none" stroke="#000000" stroke-width="0.316" d="M207.192,228.117c5.603,0,10.147-4.544,10.147-10.149
		c0-5.605-4.544-10.149-10.147-10.149c-5.607,0-10.147,4.544-10.147,10.149C197.045,223.572,201.585,228.117,207.192,228.117z"/>
	<path fill="none" stroke="#000000" stroke-width="0.316" d="M196.934,216.798c0,0-0.211,0-0.722,0
		c-1.407,0-1.309,2.187,0.124,2.187c0.546,0,0.642,0,0.642,0"/>
	<line fill="none" stroke="#000000" stroke-width="0.2107" x1="204.626" y1="195.848" x2="204.626" y2="208.115"/>
	<line fill="none" stroke="#000000" stroke-width="0.2107" x1="204.626" y1="227.655" x2="204.626" y2="259.028"/>
	<line fill="none" stroke="#000000" stroke-width="0.2107" x1="209.505" y1="195.848" x2="209.505" y2="207.914"/>
	<line fill="none" stroke="#000000" stroke-width="0.2107" x1="209.505" y1="227.729" x2="209.505" y2="259.028"/>
	<line fill="none" stroke="#000000" stroke-width="0.158" x1="209.301" y1="207.001" x2="207.466" y2="207.001"/>
	<line fill="none" stroke="#000000" stroke-width="0.158" x1="209.301" y1="200.087" x2="207.466" y2="200.087"/>
	<line fill="none" stroke="#000000" stroke-width="0.158" x1="209.301" y1="201.697" x2="208.079" y2="201.697"/>
	<line fill="none" stroke="#000000" stroke-width="0.158" x1="209.301" y1="202.949" x2="208.079" y2="202.949"/>
	<line fill="none" stroke="#000000" stroke-width="0.158" x1="209.301" y1="197.435" x2="208.079" y2="197.435"/>
	<line fill="none" stroke="#000000" stroke-width="0.158" x1="209.301" y1="196.209" x2="208.079" y2="196.209"/>
	<line fill="none" stroke="#000000" stroke-width="0.158" x1="209.301" y1="198.683" x2="208.079" y2="198.683"/>
	<line fill="none" stroke="#000000" stroke-width="0.158" x1="209.301" y1="204.153" x2="208.079" y2="204.153"/>
	<line fill="none" stroke="#000000" stroke-width="0.158" x1="209.301" y1="205.705" x2="208.079" y2="205.705"/>
	<line fill="none" stroke="#000000" stroke-width="0.158" x1="209.301" y1="232.16" x2="207.466" y2="232.16"/>
	<line fill="none" stroke="#000000" stroke-width="0.158" x1="209.301" y1="228.516" x2="208.079" y2="228.516"/>
	<line fill="none" stroke="#000000" stroke-width="0.158" x1="209.301" y1="229.76" x2="208.079" y2="229.76"/>
	<line fill="none" stroke="#000000" stroke-width="0.158" x1="209.301" y1="230.999" x2="208.079" y2="230.999"/>
	<line fill="none" stroke="#000000" stroke-width="0.158" x1="209.301" y1="238.022" x2="207.466" y2="238.022"/>
	<line fill="none" stroke="#000000" stroke-width="0.158" x1="209.301" y1="233.247" x2="208.079" y2="233.247"/>
	<line fill="none" stroke="#000000" stroke-width="0.158" x1="209.301" y1="234.369" x2="208.079" y2="234.369"/>
	<line fill="none" stroke="#000000" stroke-width="0.158" x1="209.301" y1="235.608" x2="208.079" y2="235.608"/>
	<line fill="none" stroke="#000000" stroke-width="0.158" x1="209.301" y1="236.852" x2="208.079" y2="236.852"/>
	<line fill="none" stroke="#000000" stroke-width="0.158" x1="209.301" y1="244.053" x2="207.466" y2="244.053"/>
	<line fill="none" stroke="#000000" stroke-width="0.158" x1="209.301" y1="239.283" x2="208.079" y2="239.283"/>
	<line fill="none" stroke="#000000" stroke-width="0.158" x1="209.301" y1="240.409" x2="208.079" y2="240.409"/>
	<line fill="none" stroke="#000000" stroke-width="0.158" x1="209.301" y1="241.652" x2="208.079" y2="241.652"/>
	<line fill="none" stroke="#000000" stroke-width="0.158" x1="209.301" y1="242.887" x2="208.079" y2="242.887"/>
	<line fill="none" stroke="#000000" stroke-width="0.158" x1="209.301" y1="250.275" x2="207.466" y2="250.275"/>
	<line fill="none" stroke="#000000" stroke-width="0.158" x1="209.301" y1="245.505" x2="208.079" y2="245.505"/>
	<line fill="none" stroke="#000000" stroke-width="0.158" x1="209.301" y1="246.627" x2="208.079" y2="246.627"/>
	<line fill="none" stroke="#000000" stroke-width="0.158" x1="209.301" y1="247.87" x2="208.079" y2="247.87"/>
	<line fill="none" stroke="#000000" stroke-width="0.158" x1="209.301" y1="249.11" x2="208.079" y2="249.11"/>
	<line fill="none" stroke="#000000" stroke-width="0.158" x1="209.301" y1="255.963" x2="207.466" y2="255.963"/>
	<line fill="none" stroke="#000000" stroke-width="0.158" x1="209.301" y1="251.371" x2="208.079" y2="251.371"/>
	<line fill="none" stroke="#000000" stroke-width="0.158" x1="209.301" y1="252.493" x2="208.079" y2="252.493"/>
	<line fill="none" stroke="#000000" stroke-width="0.158" x1="209.301" y1="253.558" x2="208.079" y2="253.558"/>
	<line fill="none" stroke="#000000" stroke-width="0.158" x1="209.301" y1="254.801" x2="208.079" y2="254.801"/>
	<line fill="none" stroke="#000000" stroke-width="0.158" x1="209.301" y1="256.81" x2="208.079" y2="256.81"/>
	<line fill="none" stroke="#000000" stroke-width="0.158" x1="209.301" y1="258.054" x2="208.079" y2="258.054"/>
	<path d="M206.353,201.775c-0.63,0-0.968-0.478-0.968-1.091c0-0.348,0.115-0.878,0.568-1.322c0.435-0.426,1.011-0.574,1.318-0.609
		c0.026,0.013,0.03,0.087,0.013,0.118c-0.272,0.091-0.657,0.239-0.926,0.535c-0.326,0.357-0.443,0.844-0.456,1.217
		c-0.009,0.531,0.161,0.983,0.504,0.983c0.287,0,0.4-0.265,0.4-0.543c0-0.413-0.179-0.774-0.492-0.774
		c-0.061,0-0.095,0.004-0.141,0.021c-0.029-0.008-0.041-0.052-0.029-0.087c0.126-0.113,0.3-0.161,0.452-0.161
		c0.402,0,0.687,0.339,0.679,0.813C207.257,201.409,206.883,201.775,206.353,201.775z"/>
	<path d="M207.081,204.771c0.024,0.004,0.039,0.022,0.039,0.044c-0.026,0.113-0.083,0.252-0.165,0.348l-0.885,0.117
		c-0.122,0.013-0.126,0.022-0.152,0.118l-0.044,0.152c-0.013,0.048,0.004,0.065,0.083,0.078l0.298,0.052
		c0.341,0.061,0.961,0.239,0.961,0.913c0,0.765-0.918,1.239-1.602,1.261c-0.052-0.022-0.069-0.105-0.03-0.144
		c0.604-0.074,1.215-0.374,1.215-0.965c0-0.6-0.619-0.726-1.098-0.743c-0.087,0-0.102-0.026-0.072-0.135l0.233-0.83
		c0.017-0.074,0.039-0.109,0.111-0.118L207.081,204.771z"/>
	<path d="M206.979,230.834c0.028,0,0.039,0.022,0.039,0.035c-0.026,0.113-0.082,0.253-0.165,0.357l-0.883,0.113
		c-0.124,0.022-0.133,0.026-0.157,0.118l-0.041,0.152c-0.011,0.048,0.002,0.07,0.082,0.083l0.302,0.052
		c0.339,0.057,0.956,0.239,0.956,0.909c0,0.765-0.913,1.239-1.602,1.265c-0.05-0.026-0.07-0.105-0.031-0.143
		c0.602-0.074,1.216-0.378,1.216-0.97c0-0.596-0.622-0.731-1.098-0.744c-0.087,0-0.098-0.017-0.072-0.135l0.235-0.83
		c0.013-0.069,0.039-0.113,0.109-0.118L206.979,230.834z"/>
	<path d="M206.283,236.787c0.3,0,0.535,0.143,0.691,0.33c0.154,0.2,0.23,0.474,0.222,0.822c-0.013,0.443-0.179,0.965-0.683,1.37
		c-0.341,0.274-0.761,0.422-1.039,0.47c-0.037-0.022-0.057-0.096-0.026-0.126c0.248-0.087,0.456-0.204,0.604-0.313
		c0.339-0.265,0.609-0.687,0.626-1.465c0.013-0.5-0.122-0.918-0.435-0.918c-0.191,0-0.374,0.178-0.382,0.544
		c-0.015,0.339,0.17,0.709,0.432,0.709c0.068,0,0.107-0.004,0.142-0.009c0.03,0.009,0.043,0.052,0.03,0.096
		c-0.109,0.078-0.244,0.118-0.404,0.118c-0.365,0-0.68-0.278-0.674-0.757C205.414,237.113,205.822,236.787,206.283,236.787z"/>
	<path d="M207.109,243.331c0,0.348-0.282,0.504-0.476,0.613c0.263,0.144,0.559,0.387,0.559,0.809c0,0.478-0.435,0.722-0.898,0.722
		c-0.419,0-0.87-0.179-0.87-0.674c0-0.357,0.261-0.582,0.563-0.709c-0.224-0.117-0.478-0.348-0.483-0.669
		c0.004-0.444,0.35-0.744,0.846-0.744C206.77,242.679,207.109,242.909,207.109,243.331z M206.735,244.888
		c0-0.335-0.237-0.548-0.596-0.722c-0.202,0.157-0.302,0.339-0.305,0.609c0.002,0.317,0.204,0.53,0.478,0.53
		C206.544,245.305,206.735,245.144,206.735,244.888z M205.924,243.292c0,0.291,0.32,0.443,0.563,0.561
		c0.157-0.13,0.239-0.296,0.239-0.522c0-0.243-0.143-0.478-0.409-0.478C206.061,242.852,205.924,243.057,205.924,243.292z"/>
	<path d="M206.74,248.635c0.235,0,0.509,0,0.561-0.008c0.022,0.004,0.031,0.017,0.031,0.048c-0.105,0.161-0.241,0.387-0.418,0.74
		l-1.113,2.161c-0.072,0.009-0.178-0.026-0.183-0.1l1.096-2.074c0.087-0.165,0.139-0.321,0.139-0.357
		c0-0.021-0.026-0.043-0.096-0.043h-0.87c-0.208,0-0.356,0.022-0.446,0.2c-0.028,0.017-0.091,0.009-0.106-0.03
		c0.065-0.2,0.106-0.387,0.146-0.544c0.085,0.004,0.22,0.008,0.455,0.008H206.74z"/>
	<path d="M206.353,257.262c-0.63,0-0.968-0.478-0.968-1.087c0-0.357,0.115-0.878,0.568-1.33c0.435-0.422,1.011-0.565,1.318-0.6
		c0.026,0.013,0.03,0.078,0.013,0.113c-0.272,0.096-0.657,0.239-0.926,0.535c-0.326,0.352-0.443,0.844-0.456,1.218
		c-0.009,0.526,0.161,0.983,0.504,0.983c0.287,0,0.4-0.261,0.4-0.544c0-0.413-0.179-0.783-0.492-0.783
		c-0.061,0-0.095,0.017-0.141,0.03c-0.029-0.004-0.041-0.048-0.029-0.082c0.126-0.113,0.3-0.161,0.452-0.161
		c0.402,0,0.687,0.335,0.679,0.809C207.257,256.897,206.883,257.262,206.353,257.262z"/>
	<line fill="none" stroke="#000000" stroke-width="0.316" x1="206.861" y1="188.913" x2="206.861" y2="147.269"/>
	<line fill="none" stroke="#000000" stroke-width="0.316" x1="256.862" y1="169.007" x2="156.248" y2="169.007"/>
	<polygon fill="none" stroke="#000000" stroke-width="0.2107" points="211.129,212.515 204.626,212.515 203.3,213.528 203.3,222.32 
		209.709,222.32 211.157,220.589 	"/>
	<polyline fill="none" stroke="#000000" stroke-width="0.2107" points="203.405,213.606 209.607,213.606 209.607,222.09 	"/>
	<line fill="none" stroke="#000000" stroke-width="0.2107" x1="209.607" y1="213.606" x2="210.925" y2="212.589"/>
	<line fill="none" stroke="#000000" stroke-width="0.158" x1="209.477" y1="217.894" x2="207.27" y2="217.894"/>
	<line fill="none" stroke="#000000" stroke-width="0.158" x1="209.477" y1="214.38" x2="207.877" y2="214.38"/>
	<line fill="none" stroke="#000000" stroke-width="0.158" x1="209.477" y1="215.489" x2="207.877" y2="215.489"/>
	<line fill="none" stroke="#000000" stroke-width="0.158" x1="209.477" y1="216.728" x2="207.877" y2="216.728"/>
	<line fill="none" stroke="#000000" stroke-width="0.158" x1="209.477" y1="219.159" x2="207.877" y2="219.159"/>
	<line fill="none" stroke="#000000" stroke-width="0.158" x1="209.477" y1="220.285" x2="207.877" y2="220.285"/>
	<line fill="none" stroke="#000000" stroke-width="0.158" x1="209.477" y1="221.438" x2="207.877" y2="221.438"/>
	<path d="M206.748,217.146c0,0.178-0.069,0.352-0.459,0.539c-0.026,0.035-0.007,0.069,0.052,0.069
		c0.324,0.026,0.619,0.248,0.619,0.67c0,0.691-0.741,1.213-1.378,1.213c-0.204,0-0.426-0.092-0.426-0.278
		c0-0.113,0.087-0.2,0.202-0.2c0.117,0,0.202,0.118,0.232,0.161c0.078,0.095,0.144,0.13,0.239,0.13c0.2,0,0.633-0.296,0.633-0.818
		c0-0.357-0.176-0.648-0.539-0.648c-0.161,0-0.317,0.082-0.415,0.178c-0.07-0.013-0.126-0.104-0.096-0.178
		c0.276-0.126,0.846-0.283,0.846-0.722c0-0.24-0.15-0.366-0.333-0.366c-0.209,0-0.382,0.135-0.526,0.352
		c-0.041,0.026-0.085-0.013-0.094-0.065c0.141-0.313,0.459-0.517,0.802-0.517C206.505,216.668,206.748,216.872,206.748,217.146z"/>
	<path fill="#FF1E00" d="M205.448,148.763l-0.065,18.882c0,0-47.163-0.029-47.17-0.029c0.052,0,0.087-0.819,0.087-1.885
		c0-3.526-0.952-11.71-6.698-16.969C152.48,148.763,205.448,148.763,205.448,148.763z M182.587,151.113
		c0.329,0.03,0.807-0.357,0.807-0.805c0,0,0.18-1.131-1.083-1.096c-0.842,0.018-1.139,0.887-1.139,0.887s-0.296-0.87-1.135-0.887
		c-1.265-0.035-1.085,1.096-1.085,1.096c0,0.448,0.48,0.835,0.807,0.805v5.705h-5.792c0.026-0.326-0.361-0.817-0.809-0.817
		c0,0-1.148-0.179-1.113,1.07c0.022,0.835,0.896,1.131,0.896,1.131s-0.874,0.291-0.896,1.131c-0.035,1.244,1.113,1.07,1.113,1.07
		c0.448,0,0.835-0.474,0.809-0.8h5.761l0.013,5.735c-0.331-0.026-0.839,0.357-0.839,0.805c0,0-0.179,1.131,1.085,1.1
		c0.842-0.026,1.142-0.887,1.142-0.887s0.291,0.861,1.135,0.887c1.261,0.03,1.082-1.1,1.082-1.1c0-0.448-0.391-0.83-0.724-0.805
		v-5.735l5.71,0.017c-0.029,0.326,0.358,0.83,0.811,0.83c0,0,1.143,0.174,1.109-1.07c-0.02-0.839-0.896-1.131-0.896-1.131
		s0.876-0.296,0.896-1.131c0.035-1.244-1.109-1.074-1.109-1.074c-0.452,0-0.839,0.478-0.811,0.809h-5.759L182.587,151.113z"/>
	<path fill="none" stroke="#000000" stroke-width="0.1406" stroke-linecap="round" d="M179.807,151.309
		c0.578,0.1,0.7-0.648,0.204-0.839"/>
	<path fill="none" stroke="#000000" stroke-width="0.1406" stroke-linecap="round" d="M174.204,156.849
		c0.102,0.57-0.65,0.687-0.846,0.204"/>
	<path fill="none" stroke="#000000" stroke-width="0.1406" stroke-linecap="round" d="M174.204,159.558
		c0.102-0.574-0.65-0.696-0.846-0.204"/>
	<path fill="none" stroke="#000000" stroke-width="0.1406" stroke-linecap="round" d="M179.759,165.141
		c0.574-0.1,0.695,0.648,0.204,0.843"/>
	<path fill="none" stroke="#000000" stroke-width="0.1406" stroke-linecap="round" d="M182.489,165.141
		c-0.574-0.1-0.695,0.648-0.2,0.843"/>
	<path fill="none" stroke="#000000" stroke-width="0.1406" stroke-linecap="round" d="M188.118,159.601
		c-0.102-0.57,0.655-0.691,0.846-0.204"/>
	<path fill="none" stroke="#000000" stroke-width="0.1406" stroke-linecap="round" d="M188.118,156.896
		c-0.102,0.57,0.655,0.687,0.846,0.204"/>
	<path fill="none" stroke="#000000" stroke-width="0.1406" stroke-linecap="round" d="M182.54,151.309
		c-0.574,0.1-0.698-0.648-0.202-0.839"/>
	
		<line fill="none" stroke="#000000" stroke-width="0.1391" stroke-linecap="round" x1="181.148" y1="149.478" x2="181.148" y2="167.119"/>
	
		<line fill="none" stroke="#000000" stroke-width="0.1391" stroke-linecap="round" x1="171.973" y1="158.223" x2="190.134" y2="158.223"/>
	<path fill="#FF1E00" d="M260.332,153.313c0,0,0.035,0.026-2.592,0.026h-7.84v2.522h-7.003v-2.522h-6.911v2.522h-6.822v-2.522h-6.91
		v2.522h-6.909v-2.522h-8.251l-0.087,4.648h8.338v2.644h6.909v-2.644h6.822v2.644h6.91v-2.644h7.003v2.644h6.911v-2.644h7.879h0.339
		L260.332,153.313z"/>
	<polygon fill="none" stroke="#F3C727" stroke-width="0.2107" points="218.71,148.161 219.595,149.7 221.372,149.696 
		220.485,151.239 221.372,152.775 219.595,152.775 218.71,154.314 217.821,152.775 216.041,152.775 216.936,151.239 
		216.041,149.696 217.821,149.7 	"/>
	<polygon fill="none" stroke="#F3C727" stroke-width="0.2107" points="246.322,148.161 247.209,149.7 248.987,149.696 
		248.096,151.239 248.987,152.775 247.209,152.775 246.322,154.314 245.435,152.775 243.656,152.775 244.547,151.239 
		243.656,149.696 245.435,149.7 	"/>
	<polygon fill="none" stroke="#F3C727" stroke-width="0.2107" points="232.594,161.606 233.481,163.149 235.257,163.145 
		234.368,164.684 235.257,166.224 233.481,166.219 232.594,167.763 231.707,166.219 229.931,166.224 230.82,164.684 
		229.931,163.145 231.707,163.149 	"/>
	<g>
		<path fill="#F3C727" stroke="#000000" stroke-width="0.1264" stroke-linejoin="round" d="M194.775,178.664
			c2.538,0,6.186-0.435,6.277-1.057c0.089-0.622,0.62-2.757,2.131-3.6c-0.665-0.487-1.2-0.53-2.042,0.265
			c-0.491-0.487-1.07-0.048-1.472,0.313c0.948,0.339,0.87,0.839,0.444,1.161c-0.422,0.326-0.885,0.405-1.596,0.144
			c-0.548-0.2-1.196-0.565-1.07-1.096c0.083-0.366,0.37-0.835,1.113-0.522c-0.622-2.087-2.754-1.335-2.754-1.335
			s-0.541-1.465-1.035-1.465c-0.487,0-1.035,1.465-1.035,1.465s-2.133-0.752-2.752,1.335c0.745-0.313,1.03,0.156,1.115,0.522
			c0.124,0.53-0.435,0.895-0.983,1.096c-0.715,0.261-1.261,0.183-1.687-0.144c-0.426-0.321-0.5-0.822,0.444-1.161
			c-0.4-0.361-0.979-0.8-1.468-0.313c-0.846-0.796-1.381-0.753-2.046-0.265c1.511,0.844,2.046,2.979,2.133,3.6
			C188.584,178.229,192.247,178.664,194.775,178.664z"/>
		<path fill="#F3C727" stroke="#000000" stroke-width="0.1896" d="M188.664,177.82c0-0.626,3.502-1.057,6.037-1.057
			c2.537,0,6.094,0.427,6.094,1.057"/>
		<g>
			
				<line fill="#F3C727" stroke="#000000" stroke-width="0.158" stroke-linejoin="round" x1="194.182" y1="176.907" x2="194.182" y2="178.499"/>
			
				<line fill="#F3C727" stroke="#000000" stroke-width="0.158" stroke-linejoin="round" x1="193.195" y1="177.007" x2="193.195" y2="178.42"/>
			
				<line fill="#F3C727" stroke="#000000" stroke-width="0.158" stroke-linejoin="round" x1="192.208" y1="177.046" x2="192.208" y2="178.338"/>
			
				<line fill="#F3C727" stroke="#000000" stroke-width="0.158" stroke-linejoin="round" x1="191.223" y1="177.155" x2="191.223" y2="178.255"/>
			
				<line fill="#F3C727" stroke="#000000" stroke-width="0.158" stroke-linejoin="round" x1="190.236" y1="177.255" x2="190.236" y2="178.177"/>
		</g>
		
			<line fill="#F3C727" stroke="#000000" stroke-width="0.158" stroke-linejoin="round" x1="189.251" y1="177.429" x2="189.251" y2="178.099"/>
		<g>
			
				<line fill="#F3C727" stroke="#000000" stroke-width="0.158" stroke-linejoin="round" x1="195.169" y1="176.907" x2="195.169" y2="178.499"/>
			
				<line fill="#F3C727" stroke="#000000" stroke-width="0.158" stroke-linejoin="round" x1="196.152" y1="177.007" x2="196.152" y2="178.642"/>
			
				<line fill="#F3C727" stroke="#000000" stroke-width="0.158" stroke-linejoin="round" x1="197.139" y1="177.116" x2="197.139" y2="178.386"/>
			
				<line fill="#F3C727" stroke="#000000" stroke-width="0.158" stroke-linejoin="round" x1="198.126" y1="177.22" x2="198.126" y2="178.255"/>
			
				<line fill="#F3C727" stroke="#000000" stroke-width="0.158" stroke-linejoin="round" x1="199.111" y1="177.324" x2="199.111" y2="178.177"/>
		</g>
		
			<line fill="#F3C727" stroke="#000000" stroke-width="0.158" stroke-linejoin="round" x1="200.098" y1="177.429" x2="200.098" y2="178.099"/>
		<path fill="#F3C727" stroke="#000000" stroke-width="0.1264" stroke-linejoin="round" d="M198.504,174.263
			c-0.4-0.174-1.474,0.852,0.122,1.652"/>
		<path fill="#F3C727" stroke="#000000" stroke-width="0.1264" stroke-linejoin="round" d="M191.025,174.255
			c0.403-0.183,1.529,0.861-0.069,1.661"/>
		<path fill="#F3C727" stroke="#000000" stroke-width="0.1264" stroke-linejoin="round" d="M189.94,174.533
			c0,0-0.972,0.609-0.563,1.135"/>
		<path fill="#F3C727" stroke="#000000" stroke-width="0.1264" stroke-linejoin="round" d="M199.496,174.555
			c0,0,1.087,0.587,0.674,1.113"/>
		<path fill="#F3C727" d="M194.721,175.659c0.007,0.065,0.074,0.074,0.083-0.009c0.054-0.578,0.148-2.131,0.18-2.431
			c0.044-0.4-0.489-0.391-0.446-0.004C194.569,173.498,194.647,175.085,194.721,175.659z"/>
		<path fill="#F3C727" d="M196.726,173.768c-0.452,0-1.07,0.483-0.852,1.57c0.026,0.087,0.15,0.07,0.141-0.021
			c-0.006-0.092,0.009-1.009,0.774-1.339C196.885,173.963,196.873,173.768,196.726,173.768z"/>
		<path fill="#F3C727" d="M192.773,173.768c0.452,0,1.07,0.483,0.85,1.57c-0.024,0.087-0.15,0.07-0.141-0.021
			c0.007-0.092-0.009-1.009-0.778-1.339C192.617,173.963,192.623,173.768,192.773,173.768z"/>
		<path fill="#F3C727" d="M193.547,175.959c-0.065,0-0.117-0.057-0.117-0.122c0-0.061,0.052-0.113,0.117-0.113
			c0.068,0,0.12,0.053,0.12,0.113C193.667,175.903,193.615,175.959,193.547,175.959z"/>
		<path fill="#F3C727" d="M192.947,176.407c-0.057,0-0.105-0.048-0.105-0.105s0.048-0.096,0.105-0.096
			c0.054,0,0.098,0.039,0.098,0.096S193.001,176.407,192.947,176.407z"/>
		<path fill="#F3C727" d="M192.099,176.503c-0.057,0-0.105-0.053-0.105-0.105c0-0.061,0.048-0.109,0.105-0.109
			c0.061,0,0.106,0.048,0.106,0.109C192.206,176.45,192.16,176.503,192.099,176.503z"/>
		<path fill="#F3C727" d="M191.108,176.646c-0.069,0-0.124-0.052-0.124-0.122c0-0.061,0.054-0.113,0.124-0.113
			c0.061,0,0.115,0.053,0.115,0.113C191.223,176.594,191.169,176.646,191.108,176.646z"/>
		<path fill="#F3C727" d="M190.13,176.799c-0.074,0-0.135-0.057-0.135-0.13s0.061-0.13,0.135-0.13c0.069,0,0.126,0.057,0.126,0.13
			S190.199,176.799,190.13,176.799z"/>
		<path fill="#F3C727" d="M189.129,177.007c-0.078,0-0.142-0.065-0.142-0.143c0-0.082,0.063-0.143,0.142-0.143
			c0.078,0,0.139,0.061,0.139,0.143C189.268,176.942,189.207,177.007,189.129,177.007z"/>
		<path fill="#F3C727" d="M196.552,176.407c0.052,0,0.1-0.048,0.1-0.105s-0.048-0.096-0.1-0.096c-0.057,0-0.1,0.039-0.1,0.096
			S196.495,176.407,196.552,176.407z"/>
		<path fill="#F3C727" d="M197.4,176.503c0.057,0,0.106-0.053,0.106-0.105c0-0.061-0.05-0.109-0.106-0.109s-0.106,0.048-0.106,0.109
			C197.293,176.45,197.343,176.503,197.4,176.503z"/>
		<path fill="#F3C727" d="M198.395,176.646c0.063,0,0.118-0.052,0.118-0.122c0-0.061-0.054-0.113-0.118-0.113
			c-0.065,0-0.118,0.053-0.118,0.113C198.278,176.594,198.33,176.646,198.395,176.646z"/>
		<path fill="#F3C727" d="M199.37,176.799c0.072,0,0.126-0.057,0.126-0.13s-0.054-0.13-0.126-0.13c-0.074,0-0.13,0.057-0.13,0.13
			S199.296,176.799,199.37,176.799z"/>
		<path fill="#F3C727" d="M200.37,177.007c0.074,0,0.141-0.065,0.141-0.143c0-0.082-0.067-0.143-0.141-0.143
			c-0.083,0-0.144,0.061-0.144,0.143C200.226,176.942,200.287,177.007,200.37,177.007z"/>
		<path fill="#F3C727" d="M195.947,175.959c-0.065,0-0.118-0.057-0.118-0.122c0-0.061,0.053-0.113,0.118-0.113
			c0.067,0,0.118,0.053,0.118,0.113C196.065,175.903,196.015,175.959,195.947,175.959z"/>
		<path fill="#F3C727" d="M188.795,174.694c-0.105,0.217-0.313,0.378-0.022,1.066c0.039,0.204-0.052,0.309-0.183,0.091
			c-0.222-0.378-0.313-0.957-0.065-1.244C188.768,174.315,188.851,174.576,188.795,174.694z"/>
		<path fill="#F3C727" d="M188.194,174.872c-0.078-0.239-0.174-0.483-0.513-0.582c-0.174-0.052-0.213,0.057-0.085,0.1
			c0.128,0.044,0.293,0.113,0.452,0.391C188.205,175.055,188.221,174.964,188.194,174.872z"/>
		<path fill="#F3C727" d="M200.7,174.694c0.104,0.217,0.315,0.378,0.03,1.066c-0.045,0.204,0.048,0.309,0.174,0.091
			c0.222-0.378,0.313-0.957,0.072-1.244C200.732,174.315,200.643,174.576,200.7,174.694z"/>
		<path fill="#F3C727" d="M201.306,174.872c0.069-0.239,0.167-0.483,0.515-0.582c0.17-0.052,0.209,0.057,0.078,0.1
			c-0.126,0.044-0.291,0.113-0.452,0.391C201.291,175.055,201.274,174.964,201.306,174.872z"/>
		<path fill="#F3C727" stroke="#000000" stroke-width="0.1896" stroke-linejoin="round" d="M188.673,177.524
			c0.083,0.622,3.538,1.322,6.07,1.322c2.535,0,6.122-0.678,6.146-1.235"/>
	</g>
	<g>
		<path fill="#F3C727" stroke="#000000" stroke-width="0.1264" stroke-linejoin="round" d="M168.801,178.664
			c2.535,0,6.183-0.435,6.272-1.057s0.624-2.757,2.135-3.6c-0.667-0.487-1.198-0.53-2.046,0.265
			c-0.491-0.487-1.065-0.048-1.465,0.313c0.944,0.339,0.861,0.839,0.439,1.161c-0.422,0.326-0.883,0.405-1.596,0.144
			c-0.548-0.2-1.198-0.565-1.07-1.096c0.081-0.366,0.37-0.835,1.113-0.522c-0.622-2.087-2.754-1.335-2.754-1.335
			s-0.544-1.465-1.035-1.465c-0.489,0-1.035,1.465-1.035,1.465s-2.133-0.752-2.754,1.335c0.748-0.313,1.03,0.156,1.118,0.522
			c0.122,0.53-0.437,0.895-0.983,1.096c-0.718,0.261-1.263,0.183-1.687-0.144c-0.426-0.321-0.5-0.822,0.443-1.161
			c-0.405-0.361-0.98-0.8-1.468-0.313c-0.846-0.796-1.381-0.753-2.05-0.265c1.513,0.844,2.05,2.979,2.137,3.6
			C162.605,178.229,166.269,178.664,168.801,178.664z"/>
		<path fill="#F3C727" stroke="#000000" stroke-width="0.1896" d="M162.686,177.82c0-0.626,3.505-1.057,6.038-1.057
			c2.535,0,6.096,0.427,6.096,1.057"/>
		<g>
			
				<line fill="#F3C727" stroke="#000000" stroke-width="0.158" stroke-linejoin="round" x1="168.204" y1="176.907" x2="168.204" y2="178.499"/>
			
				<line fill="#F3C727" stroke="#000000" stroke-width="0.158" stroke-linejoin="round" x1="167.217" y1="177.007" x2="167.217" y2="178.42"/>
			
				<line fill="#F3C727" stroke="#000000" stroke-width="0.158" stroke-linejoin="round" x1="166.232" y1="177.046" x2="166.232" y2="178.338"/>
			
				<line fill="#F3C727" stroke="#000000" stroke-width="0.158" stroke-linejoin="round" x1="165.244" y1="177.155" x2="165.244" y2="178.255"/>
			
				<line fill="#F3C727" stroke="#000000" stroke-width="0.158" stroke-linejoin="round" x1="164.257" y1="177.255" x2="164.257" y2="178.177"/>
		</g>
		
			<line fill="#F3C727" stroke="#000000" stroke-width="0.158" stroke-linejoin="round" x1="163.27" y1="177.429" x2="163.27" y2="178.099"/>
		<g>
			
				<line fill="#F3C727" stroke="#000000" stroke-width="0.158" stroke-linejoin="round" x1="169.188" y1="176.907" x2="169.188" y2="178.499"/>
			
				<line fill="#F3C727" stroke="#000000" stroke-width="0.158" stroke-linejoin="round" x1="170.175" y1="177.007" x2="170.175" y2="178.642"/>
			
				<line fill="#F3C727" stroke="#000000" stroke-width="0.158" stroke-linejoin="round" x1="171.162" y1="177.116" x2="171.162" y2="178.386"/>
			
				<line fill="#F3C727" stroke="#000000" stroke-width="0.158" stroke-linejoin="round" x1="172.147" y1="177.22" x2="172.147" y2="178.255"/>
			
				<line fill="#F3C727" stroke="#000000" stroke-width="0.158" stroke-linejoin="round" x1="173.132" y1="177.324" x2="173.132" y2="178.177"/>
		</g>
		
			<line fill="#F3C727" stroke="#000000" stroke-width="0.158" stroke-linejoin="round" x1="174.119" y1="177.429" x2="174.119" y2="178.099"/>
		<path fill="#F3C727" stroke="#000000" stroke-width="0.1264" stroke-linejoin="round" d="M172.528,174.263
			c-0.4-0.174-1.474,0.852,0.122,1.652"/>
		<path fill="#F3C727" stroke="#000000" stroke-width="0.1264" stroke-linejoin="round" d="M165.049,174.255
			c0.4-0.183,1.53,0.861-0.07,1.661"/>
		<path fill="#F3C727" stroke="#000000" stroke-width="0.1264" stroke-linejoin="round" d="M163.962,174.533
			c0,0-0.97,0.609-0.561,1.135"/>
		<path fill="#F3C727" stroke="#000000" stroke-width="0.1264" stroke-linejoin="round" d="M173.519,174.555
			c0,0,1.083,0.587,0.674,1.113"/>
		<path fill="#F3C727" d="M168.742,175.659c0.009,0.065,0.076,0.074,0.085-0.009c0.054-0.578,0.148-2.131,0.178-2.431
			c0.044-0.4-0.491-0.391-0.443-0.004C168.593,173.498,168.671,175.085,168.742,175.659z"/>
		<path fill="#F3C727" d="M170.749,173.768c-0.456,0-1.074,0.483-0.852,1.57c0.026,0.087,0.148,0.07,0.142-0.021
			c-0.011-0.092,0.006-1.009,0.776-1.339C170.906,173.963,170.897,173.768,170.749,173.768z"/>
		<path fill="#F3C727" d="M166.797,173.768c0.448,0,1.066,0.483,0.848,1.57c-0.022,0.087-0.148,0.07-0.144-0.021
			c0.013-0.092-0.004-1.009-0.774-1.339C166.638,173.963,166.647,173.768,166.797,173.768z"/>
		<path fill="#F3C727" d="M167.571,175.959c-0.065,0-0.118-0.057-0.118-0.122c0-0.061,0.052-0.113,0.118-0.113
			c0.067,0,0.122,0.053,0.122,0.113C167.692,175.903,167.638,175.959,167.571,175.959z"/>
		<path fill="#F3C727" d="M166.966,176.407c-0.052,0-0.1-0.048-0.1-0.105s0.048-0.096,0.1-0.096c0.057,0,0.1,0.039,0.1,0.096
			S167.023,176.407,166.966,176.407z"/>
		<path fill="#F3C727" d="M166.123,176.503c-0.059,0-0.105-0.053-0.105-0.105c0-0.061,0.046-0.109,0.105-0.109
			s0.104,0.048,0.104,0.109C166.227,176.45,166.182,176.503,166.123,176.503z"/>
		<path fill="#F3C727" d="M165.127,176.646c-0.069,0-0.122-0.052-0.122-0.122c0-0.061,0.052-0.113,0.122-0.113
			c0.065,0,0.118,0.053,0.118,0.113C165.244,176.594,165.192,176.646,165.127,176.646z"/>
		<path fill="#F3C727" d="M164.153,176.799c-0.074,0-0.135-0.057-0.135-0.13s0.061-0.13,0.135-0.13c0.069,0,0.126,0.057,0.126,0.13
			S164.223,176.799,164.153,176.799z"/>
		<path fill="#F3C727" d="M163.153,177.007c-0.078,0-0.139-0.065-0.139-0.143c0-0.082,0.061-0.143,0.139-0.143
			c0.078,0,0.139,0.061,0.139,0.143C163.292,176.942,163.231,177.007,163.153,177.007z"/>
		<path fill="#F3C727" d="M170.573,176.407c0.059,0,0.102-0.048,0.102-0.105s-0.043-0.096-0.102-0.096
			c-0.057,0-0.096,0.039-0.096,0.096S170.517,176.407,170.573,176.407z"/>
		<path fill="#F3C727" d="M171.423,176.503c0.057,0,0.104-0.053,0.104-0.105c0-0.061-0.048-0.109-0.104-0.109
			c-0.061,0-0.106,0.048-0.106,0.109C171.317,176.45,171.362,176.503,171.423,176.503z"/>
		<path fill="#F3C727" d="M172.417,176.646c0.063,0,0.115-0.052,0.115-0.122c0-0.061-0.052-0.113-0.115-0.113
			c-0.063,0-0.117,0.053-0.117,0.113C172.3,176.594,172.354,176.646,172.417,176.646z"/>
		<circle fill="#F3C727" cx="173.393" cy="176.668" r="0.13"/>
		<path fill="#F3C727" d="M174.389,177.007c0.078,0,0.146-0.065,0.146-0.143c0-0.082-0.067-0.143-0.146-0.143
			c-0.078,0-0.139,0.061-0.139,0.143C174.25,176.942,174.31,177.007,174.389,177.007z"/>
		<path fill="#F3C727" d="M169.971,175.959c-0.061,0-0.115-0.057-0.115-0.122c0-0.061,0.055-0.113,0.115-0.113
			c0.068,0,0.118,0.053,0.118,0.113C170.088,175.903,170.039,175.959,169.971,175.959z"/>
		<path fill="#F3C727" d="M162.818,174.694c-0.105,0.217-0.315,0.378-0.026,1.066c0.048,0.204-0.052,0.309-0.178,0.091
			c-0.222-0.378-0.313-0.957-0.069-1.244C162.787,174.315,162.875,174.576,162.818,174.694z"/>
		<path fill="#F3C727" d="M162.216,174.872c-0.076-0.239-0.171-0.483-0.515-0.582c-0.172-0.052-0.209,0.057-0.083,0.1
			c0.13,0.044,0.296,0.113,0.452,0.391C162.231,175.055,162.244,174.964,162.216,174.872z"/>
		<path fill="#F3C727" d="M174.724,174.694c0.102,0.217,0.313,0.378,0.026,1.066c-0.041,0.204,0.052,0.309,0.178,0.091
			c0.224-0.378,0.313-0.957,0.069-1.244C174.758,174.315,174.665,174.576,174.724,174.694z"/>
		<path fill="#F3C727" d="M175.328,174.872c0.072-0.239,0.169-0.483,0.513-0.582c0.17-0.052,0.211,0.057,0.082,0.1
			c-0.126,0.044-0.296,0.113-0.452,0.391C175.315,175.055,175.298,174.964,175.328,174.872z"/>
		<path fill="#F3C727" stroke="#000000" stroke-width="0.1896" stroke-linejoin="round" d="M162.692,177.524
			c0.087,0.622,3.542,1.322,6.074,1.322c2.535,0,6.127-0.678,6.144-1.235"/>
	</g>
	<g>
		<path fill="#F3C727" stroke="#000000" stroke-width="0.1264" stroke-linejoin="round" d="M181.607,186.53
			c2.535,0,6.183-0.435,6.275-1.057c0.087-0.622,0.624-2.757,2.133-3.605c-0.667-0.487-1.202-0.526-2.046,0.27
			c-0.487-0.487-1.065-0.044-1.465,0.309c0.939,0.348,0.866,0.844,0.443,1.165c-0.428,0.322-0.889,0.405-1.6,0.148
			c-0.548-0.2-1.196-0.565-1.072-1.104c0.085-0.365,0.367-0.83,1.118-0.517c-0.622-2.091-2.757-1.33-2.757-1.33
			s-0.548-1.466-1.033-1.466c-0.491,0-1.033,1.466-1.033,1.466s-2.137-0.761-2.759,1.33c0.744-0.313,1.035,0.152,1.113,0.517
			c0.13,0.539-0.431,0.904-0.979,1.104c-0.713,0.257-1.265,0.174-1.687-0.148c-0.422-0.321-0.5-0.817,0.439-1.165
			c-0.396-0.352-0.979-0.796-1.465-0.309c-0.844-0.796-1.374-0.757-2.044-0.27c1.511,0.848,2.044,2.983,2.135,3.605
			C175.411,186.095,179.072,186.53,181.607,186.53z"/>
		<path fill="#F3C727" stroke="#000000" stroke-width="0.1896" d="M175.491,185.69c0-0.626,3.5-1.061,6.037-1.061
			c2.535,0,6.096,0.427,6.096,1.057"/>
		<g>
			
				<line fill="#F3C727" stroke="#000000" stroke-width="0.158" stroke-linejoin="round" x1="181.007" y1="184.769" x2="181.007" y2="186.369"/>
			
				<line fill="#F3C727" stroke="#000000" stroke-width="0.158" stroke-linejoin="round" x1="180.02" y1="184.873" x2="180.02" y2="186.282"/>
			
				<line fill="#F3C727" stroke="#000000" stroke-width="0.158" stroke-linejoin="round" x1="179.035" y1="184.917" x2="179.035" y2="186.208"/>
			
				<line fill="#F3C727" stroke="#000000" stroke-width="0.158" stroke-linejoin="round" x1="178.05" y1="185.017" x2="178.05" y2="186.121"/>
			
				<line fill="#F3C727" stroke="#000000" stroke-width="0.158" stroke-linejoin="round" x1="177.063" y1="185.125" x2="177.063" y2="186.043"/>
		</g>
		
			<line fill="#F3C727" stroke="#000000" stroke-width="0.158" stroke-linejoin="round" x1="176.076" y1="185.295" x2="176.076" y2="185.96"/>
		<g>
			
				<line fill="#F3C727" stroke="#000000" stroke-width="0.158" stroke-linejoin="round" x1="181.994" y1="184.769" x2="181.994" y2="186.369"/>
			
				<line fill="#F3C727" stroke="#000000" stroke-width="0.158" stroke-linejoin="round" x1="182.981" y1="184.873" x2="182.981" y2="186.508"/>
			
				<line fill="#F3C727" stroke="#000000" stroke-width="0.158" stroke-linejoin="round" x1="183.964" y1="184.982" x2="183.964" y2="186.256"/>
			
				<line fill="#F3C727" stroke="#000000" stroke-width="0.158" stroke-linejoin="round" x1="184.953" y1="185.086" x2="184.953" y2="186.121"/>
			
				<line fill="#F3C727" stroke="#000000" stroke-width="0.158" stroke-linejoin="round" x1="185.938" y1="185.19" x2="185.938" y2="186.043"/>
		</g>
		
			<line fill="#F3C727" stroke="#000000" stroke-width="0.158" stroke-linejoin="round" x1="186.925" y1="185.295" x2="186.925" y2="185.96"/>
		<path fill="#F3C727" stroke="#000000" stroke-width="0.1264" stroke-linejoin="round" d="M185.338,182.134
			c-0.402-0.178-1.483,0.852,0.118,1.652"/>
		<path fill="#F3C727" stroke="#000000" stroke-width="0.1264" stroke-linejoin="round" d="M177.854,182.116
			c0.4-0.178,1.531,0.87-0.074,1.67"/>
		<path fill="#F3C727" stroke="#000000" stroke-width="0.1264" stroke-linejoin="round" d="M176.77,182.399
			c0,0-0.972,0.604-0.559,1.135"/>
		<path fill="#F3C727" stroke="#000000" stroke-width="0.1264" stroke-linejoin="round" d="M186.325,182.425
			c0,0,1.082,0.578,0.676,1.109"/>
		<path fill="#F3C727" d="M181.55,183.521c0.009,0.07,0.074,0.078,0.081-0.004c0.054-0.578,0.15-2.131,0.185-2.43
			c0.043-0.405-0.496-0.387-0.452-0.004C181.402,181.368,181.476,182.951,181.55,183.521z"/>
		<path fill="#F3C727" d="M183.55,181.629c-0.448,0-1.065,0.487-0.848,1.574c0.022,0.087,0.152,0.07,0.143-0.021
			c-0.013-0.092,0.009-1.009,0.776-1.335C183.709,181.829,183.703,181.629,183.55,181.629z"/>
		<path fill="#F3C727" d="M179.602,181.629c0.448,0,1.07,0.487,0.852,1.574c-0.026,0.087-0.148,0.07-0.143-0.021
			c0.007-0.092-0.004-1.009-0.774-1.335C179.444,181.829,179.45,181.629,179.602,181.629z"/>
		<circle fill="#F3C727" cx="180.376" cy="183.706" r="0.12"/>
		<path fill="#F3C727" d="M179.77,184.269c-0.054,0-0.094-0.048-0.094-0.1c0-0.057,0.039-0.096,0.094-0.096
			c0.061,0,0.102,0.039,0.102,0.096C179.872,184.221,179.831,184.269,179.77,184.269z"/>
		<path fill="#F3C727" d="M178.928,184.369c-0.061,0-0.109-0.048-0.109-0.109c0-0.057,0.048-0.104,0.109-0.104
			c0.057,0,0.105,0.048,0.105,0.104C179.033,184.321,178.985,184.369,178.928,184.369z"/>
		<circle fill="#F3C727" cx="177.933" cy="184.393" r="0.115"/>
		<path fill="#F3C727" d="M176.954,184.665c-0.069,0-0.126-0.057-0.126-0.13s0.057-0.13,0.126-0.13c0.074,0,0.133,0.057,0.133,0.13
			S177.028,184.665,176.954,184.665z"/>
		<path fill="#F3C727" d="M175.959,184.873c-0.074,0-0.144-0.061-0.144-0.148c0-0.074,0.07-0.134,0.144-0.134
			c0.078,0,0.143,0.061,0.143,0.134C176.102,184.812,176.037,184.873,175.959,184.873z"/>
		<circle fill="#F3C727" cx="183.381" cy="184.171" r="0.098"/>
		<path fill="#F3C727" d="M184.225,184.369c0.059,0,0.109-0.048,0.109-0.109c0-0.057-0.05-0.104-0.109-0.104
			c-0.057,0-0.104,0.048-0.104,0.104C184.12,184.321,184.168,184.369,184.225,184.369z"/>
		<path fill="#F3C727" d="M185.22,184.508c0.065,0,0.122-0.048,0.122-0.113c0-0.061-0.057-0.118-0.122-0.118
			c-0.063,0-0.117,0.057-0.117,0.118C185.103,184.46,185.157,184.508,185.22,184.508z"/>
		<circle fill="#F3C727" cx="186.199" cy="184.534" r="0.13"/>
		<path fill="#F3C727" d="M187.194,184.873c0.082,0,0.143-0.061,0.143-0.148c0-0.074-0.061-0.134-0.143-0.134
			c-0.074,0-0.139,0.061-0.139,0.134C187.055,184.812,187.12,184.873,187.194,184.873z"/>
		<path fill="#F3C727" d="M182.777,183.825c-0.065,0-0.118-0.052-0.118-0.118c0-0.065,0.053-0.122,0.118-0.122
			c0.067,0,0.122,0.057,0.122,0.122C182.898,183.773,182.844,183.825,182.777,183.825z"/>
		<path fill="#F3C727" d="M175.624,182.56c-0.102,0.217-0.313,0.382-0.026,1.066c0.046,0.204-0.052,0.309-0.178,0.095
			c-0.224-0.378-0.311-0.961-0.07-1.243C175.593,182.181,175.682,182.442,175.624,182.56z"/>
		<path fill="#F3C727" d="M175.019,182.738c-0.072-0.239-0.165-0.478-0.513-0.582c-0.17-0.048-0.211,0.057-0.083,0.1
			c0.126,0.044,0.296,0.113,0.452,0.391C175.034,182.921,175.05,182.834,175.019,182.738z"/>
		<path fill="#F3C727" d="M187.529,182.56c0.106,0.217,0.317,0.382,0.024,1.066c-0.044,0.204,0.054,0.309,0.185,0.095
			c0.217-0.378,0.309-0.961,0.065-1.243C187.559,182.181,187.473,182.442,187.529,182.56z"/>
		<path fill="#F3C727" d="M188.131,182.738c0.076-0.239,0.172-0.478,0.516-0.582c0.171-0.048,0.211,0.057,0.082,0.1
			c-0.13,0.044-0.296,0.113-0.452,0.391C188.118,182.921,188.108,182.834,188.131,182.738z"/>
		<path fill="#F3C727" stroke="#000000" stroke-width="0.1896" stroke-linejoin="round" d="M175.497,185.39
			c0.091,0.622,3.538,1.317,6.075,1.317c2.535,0,6.122-0.678,6.144-1.226"/>
	</g>
	<polygon points="256.616,179.781 231.686,172.198 206.757,179.781 206.757,177.742 231.686,170.158 256.616,177.742 	"/>
	<polygon points="256.616,183.734 231.686,176.151 206.757,183.734 206.757,181.69 231.686,174.111 256.616,181.69 	"/>
	<polygon points="256.616,187.682 231.686,180.103 206.757,187.682 206.757,185.638 231.686,178.06 256.616,185.638 	"/>
	<path d="M258.049,153.34"/>
	<g>
		<path fill="#FFFFFF" d="M270.657,313.508c-1.308,0.613-1.645,1.023-1.645,1.023l-0.165-0.721l5.128-6.26l4.299,4.374l-1.131,0.226
			C277.143,312.151,271.94,312.905,270.657,313.508z"/>
		<path fill="#FFFFFF" d="M230.007,287.791c0.725,1.075,0.226,2.036,0.226,2.036l0.603-1.357l-0.679-3.243l-4.45-1.282l-0.452,0.377
			C225.256,284.322,229.281,286.706,230.007,287.791z"/>
		<path fill="#FFFFFF" d="M213.566,284.02c-1.885,0.603-3.036,2.503-3.036,2.503l-0.358-0.466l1.357-3.469l7.693,0.679l0.151,0.453
			C219.373,283.718,216.597,283.049,213.566,284.02z"/>
		<path fill="#FFFFFF" d="M200.82,284.397c1.115,0.622,2.083,2.14,2.083,2.14l0.179-0.858l-1.584-3.167l-7.089,0.151l-0.302,0.679
			C194.108,283.341,199.705,283.77,200.82,284.397z"/>
		<path fill="#FFFFFF" d="M183.55,287.489c-0.717,1.244-0.231,2.564-0.231,2.564l-0.825-1.433l0.83-3.394l4.45-1.131l0.377,0.453
			C188.15,284.548,184.266,286.24,183.55,287.489z"/>
		<path fill="#FFFFFF" d="M141.843,313.282c1.313,0.433,2.576,1.263,2.576,1.263l0.139-0.66l-5.505-5.883l-3.243,3.318l-0.528,0.981
			C135.282,312.302,140.719,312.905,141.843,313.282z"/>
		<g>
			<path fill="#FFFFFF" stroke="#000000" stroke-width="0.2107" d="M187.462,268.338c-1.094-1.084-1.348-1.084-1.348-1.084
				c-2.55,0.202-2.293,0.202-2.293,0.202c-27.935,4.139-50.212,15.357-59.342,29.724l0.113,0.424
				c2.465,6.222,7.462,9.805,10.446,14.103c0.273,0.405,0.273,0.405,0.273,0.405l0.863-0.933
				c9.795-13.056,28.701-23.012,51.732-26.82l0.038,0.16C187.943,284.519,189.767,270.619,187.462,268.338z"/>
			<path fill="#FFFFFF" stroke="#000000" stroke-width="0.2107" d="M115.688,303.082l7.374,7.136l-2.993,7.759
				c14.098-0.447,24.35-1.814,24.35-3.431c0-0.938-3.481-1.612-9.137-2.243l-8.395-10.12
				C123.352,302.582,119.6,302.889,115.688,303.082z"/>
			<path fill="#FFFFFF" stroke="#000000" stroke-width="0.2107" d="M193.915,283.36"/>
			<path fill="#FFFFFF" stroke="#000000" stroke-width="0.2107" d="M188.145,284.482"/>
			<path fill="#FFFFFF" stroke="#000000" stroke-width="0.2107" d="M194.188,283.346c-0.095,0-0.184,0.005-0.274,0.014
				c-0.999-7.339-0.999-7.4-0.999-7.4l-3.879,0.697l-0.891,7.825l-0.203,0.038c-3.175,1.117-5.225,2.842-5.015,4.511
				c0.293,2.366,5.006,3.724,10.526,3.036c5.513-0.693,9.748-3.168,9.451-5.529C202.644,284.43,198.888,283.124,194.188,283.346"/>
			<path fill="#FFFFFF" stroke="#000000" stroke-width="0.2107" d="M192.345,268.842l-0.009-0.279
				c-0.01-0.193-0.028-0.372-0.033-0.565L192.345,268.842z"/>
			<path fill="#FFFFFF" stroke="#000000" stroke-width="0.2107" d="M192.336,268.564c0.004,0.095,0.012,0.179,0.014,0.269"/>
			<path fill="#FFFFFF" stroke="#000000" stroke-width="0.2107" d="M192.336,268.564"/>
			<path fill="#FFFFFF" stroke="#000000" stroke-width="0.2107" d="M188.786,276.666c0.516-0.042,3.088-0.424,3.764-0.58
				L188.786,276.666"/>
			<path fill="#FFFFFF" stroke="#000000" stroke-width="0.2107" d="M288.842,297.595l0.113-0.424
				c-9.13-14.372-31.407-25.591-59.344-29.729c0,0,0.259,0-2.291-0.203c0,0-0.254,0-1.348,1.084
				c-2.305,2.286-1.268,6.694-0.962,10.356c0.481,5.831,0.481,5.831,0.481,5.831l0.038-0.16c23.031,3.8,41.937,13.764,51.732,26.821
				l0.863,0.924c0,0,0,0,0.271-0.396C281.381,307.395,286.377,303.812,288.842,297.595z"/>
			<path fill="#FFFFFF" stroke="#000000" stroke-width="0.2107" d="M297.744,303.073c-3.91-0.198-7.662-0.504-11.2-0.905
				l-8.345,10.134c-5.656,0.641-9.187,1.287-9.187,2.229c0,1.616,10.252,2.983,24.353,3.436l-2.995-7.759L297.744,303.073z"/>
			<path fill="#FFFFFF" stroke="#000000" stroke-width="0.2107" d="M222.531,283.926"/>
			<path fill="#FFFFFF" stroke="#000000" stroke-width="0.2107" d="M219.519,283.346c-0.118-0.004-0.236-0.004-0.353-0.014"/>
			<path fill="#FFFFFF" stroke="#000000" stroke-width="0.2107" d="M219.166,283.332c-0.066-0.005-0.127-0.005-0.191-0.009"/>
			<path fill="#FFFFFF" stroke="#000000" stroke-width="0.2107" d="M225.906,284.661c-0.137-0.056-0.273-0.104-0.415-0.151
				l-0.163-0.033c-0.681-7.82-0.681-7.82-0.681-7.82l0,0l-3.957-0.636l-0.957,7.363l-0.759-0.061c-4.579-0.16-8.19,1.141-8.444,3.2
				c-0.297,2.362,3.938,4.836,9.456,5.529c5.515,0.688,10.226-0.664,10.521-3.026C230.707,287.418,228.843,285.773,225.906,284.661"
				/>
			<path fill="#FFFFFF" stroke="#000000" stroke-width="0.2107" d="M222.531,283.926"/>
			<path fill="#FFFFFF" stroke="#000000" stroke-width="0.2107" d="M221.131,267.984c-0.007,0.194-0.024,0.377-0.033,0.566
				l-0.009,0.283L221.131,267.984z"/>
			<path fill="#FFFFFF" stroke="#000000" stroke-width="0.2107" d="M206.726,265.354c5.213,0,10.12,0.452,14.429,1.244
				c-0.024,1.386-0.024,1.386-0.024,1.386l-0.033,0.566c-0.273,5.36-0.738,10.361-1.365,14.834c0,0-8.543-1.042-13.007-1.042
				l-0.019,0.014c-4.466,0-8.722,0.278-12.595,0.787c0,0-1.459-8.923-1.763-14.31l-0.071-0.495c0,0,0,0,0-1.73
				c4.306-0.792,9.215-1.244,14.429-1.244L206.726,265.354z"/>
		</g>
	</g>
	<g>
		<g>
			<path fill="#FFFFFF" d="M108.61,254.338l2.642,4.426l-5.769,9.512l0.349,0.58l5.284-3.153c2.159-1.292,1.959-1.81,1.348-3.385
				l0.674-0.405l4.36,7.297l-0.679,0.401c-1.089-1.334-1.428-1.715-3.613-0.415l-11.923,7.118c-2.319,1.391-1.975,2.088-1.343,3.38
				l-0.674,0.405l-4.152-6.952c-0.9-1.508-3.422-6.213,1.113-8.918c3.314-1.984,5.479-0.259,6.632,0.632l5.095-8.928
				c0.302-0.589,0.137-0.929-0.014-1.193L108.61,254.338z M104.969,269.37c-1.721-2.809-2.984-3.582-6.486-1.48
				c-2.727,1.617-3.356,3.205-2.326,4.931c0.71,1.183,1.034,1.051,1.935,0.66L104.969,269.37z"/>
			<path fill="#FFFFFF" d="M89.117,262.549l-5.449-13.438l5.85-2.376l0.238,0.575c-3.919,2.225-3.976,4.167-2.701,7.315
				c0.521,1.282,0.806,1.65,2.057,1.145l6.755-2.743c-0.874-2.248-2.116-3.13-5.868-2.013l-0.243-0.603l9.835-4.002l0.25,0.608
				c-3.526,1.754-3.919,3.304-2.982,5.609l7.042-2.866c1.284-0.518,1.454-1.108,0.839-2.62c-0.929-2.282-2.647-4.346-7.638-4.026
				l-0.269-0.655l6.439-1.527l5.529,13.627l-0.728,0.292c-0.716-1.254-1.101-1.942-2.901-1.212l-14.092,5.727
				c-1.921,0.782-1.581,1.782-1.235,2.889L89.117,262.549z"/>
			<path fill="#FFFFFF" d="M101.99,240.004c-0.561-1.414-0.938-2.05-2.951-1.569l-14.495,3.427
				c-1.779,1.867-1.779,2.282-1.706,2.602l-0.768,0.179l-1.216-5.166l11.042-11.567l-0.01-0.052l-9.262,2.192
				c-1.834,0.439-2.774,0.966-2.491,2.994l-0.764,0.179l-1.244-5.256l0.764-0.184c0.693,1.697,1.428,1.673,2.898,1.329l18.006-4.256
				l0.163,0.679l-13.997,14.806l0.016,0.047l12.227-2.894c2.199-0.518,2.659-1.169,2.477-3.04l0.759-0.18l1.32,5.558L101.99,240.004
				z"/>
			<path fill="#FFFFFF" d="M83.027,213.273c-2.147,0.655-5.605,2.484-5.331,5.439c0.123,1.301,1.188,2.588,3.219,2.399
				c1.687-0.151,2.331-0.688,3.453-2.913l1.944-3.898c0.453-0.891,2.093-2.96,5.501-3.281c2.753-0.25,6.688,1.004,7.113,5.609
				c0.217,2.376-0.745,3.601-0.667,4.374c0.05,0.533,0.622,0.599,1.134,0.655l0.064,0.726l-7.723,0.716l-0.069-0.726
				c3.113-0.796,6.512-2.574,6.22-5.751c-0.278-3.008-3.387-2.847-3.794-2.809c-2.093,0.193-2.739,1.437-3.554,3.158l-0.848,1.768
				c-2.171,4.511-4.86,4.77-6.297,4.892c-1.909,0.18-6.236-0.202-6.677-4.954c-0.184-2.008,0.738-3.276,0.671-4.007
				c-0.052-0.575-0.53-0.655-1.141-0.726l-0.066-0.75l6.788-0.627L83.027,213.273z"/>
			<path fill="#FFFFFF" d="M83.088,198.151c-2.211,0.391-5.868,1.796-5.948,4.756c-0.038,1.31,0.863,2.715,2.903,2.776
				c1.702,0.047,2.404-0.415,3.785-2.484l2.395-3.624c0.558-0.839,2.432-2.701,5.857-2.597c2.764,0.075,6.521,1.796,6.389,6.42
				c-0.069,2.385-1.164,3.483-1.19,4.266c-0.016,0.523,0.544,0.664,1.044,0.782l-0.014,0.726l-7.761-0.222l0.016-0.731
				c3.191-0.41,6.778-1.763,6.868-4.959c0.089-3.012-3.019-3.224-3.427-3.238c-2.103-0.061-2.889,1.094-3.91,2.706l-1.053,1.655
				c-2.699,4.223-5.402,4.143-6.84,4.101c-1.919-0.056-6.17-0.957-6.033-5.732c0.059-2.008,1.131-3.158,1.15-3.889
				c0.014-0.575-0.453-0.712-1.049-0.858l0.026-0.754l6.816,0.194L83.088,198.151z"/>
			<path fill="#FFFFFF" d="M77.026,192.943l2.343-14.31l6.231,1.014l-0.101,0.622c-4.495-0.146-5.558,1.49-6.107,4.836
				c-0.223,1.362-0.174,1.834,1.16,2.046l7.193,1.178c0.424-2.376-0.179-3.771-3.959-4.775l0.106-0.646l10.478,1.721l-0.106,0.641
				c-3.924-0.334-5.062,0.778-5.465,3.229l7.502,1.23c1.365,0.226,1.815-0.184,2.078-1.796c0.401-2.432,0.01-5.091-4.419-7.424
				l0.111-0.698l6.29,2.05l-2.378,14.518l-0.778-0.132c0.047-1.442,0.08-2.229-1.843-2.541l-15.003-2.455
				c-2.041-0.335-2.276,0.697-2.557,1.824L77.026,192.943z"/>
			<path fill="#FFFFFF" d="M105.002,166.712l-4.416,13.839l-0.75-0.24c0.219-1.405,0.358-2.154-1.466-2.744l-14.485-4.634
				c-1.982-0.627-2.352,0.34-2.788,1.386l-0.747-0.24l2.668-8.357l0.75,0.24c-0.443,1.706-0.653,2.456,1.984,3.3l14.125,4.515
				c1.435,0.462,1.845,0.01,2.357-1.588c1.157-3.62-0.898-5.755-3.927-7.942l0.217-0.688L105.002,166.712z"/>
			<path fill="#FFFFFF" d="M112.916,150.294l-3.639,7.283l-0.698-0.349c0.554-1.461,0.726-1.881-0.203-2.342
				c-0.756-0.377-3.196-0.698-4.254-0.83l-2.524,5.058c1.709,1.64,2.687,2.574,3.134,2.795c1.066,0.532,1.688-0.5,2.126-1.24
				l0.705,0.354l-2.279,4.563l-0.702-0.354c0.382-1.32-0.415-2.116-2.192-3.842l-12.913-12.675l0.309-0.632l17.292,2.362
				c3.519,0.49,4.653,0.608,5.131-0.5L112.916,150.294z M102.857,153.844l-7.966-1.141l5.774,5.525L102.857,153.844z"/>
			<path fill="#FFFFFF" d="M95.798,137.714l8.369-11.855l5.154,3.649l-0.358,0.509c-3.981-2.097-5.654-1.093-7.606,1.678
				c-0.796,1.127-0.957,1.574,0.141,2.352l5.948,4.209c1.421-1.956,1.494-3.474-1.466-6.033l0.38-0.533l8.666,6.132l-0.375,0.533
				c-3.382-2.022-4.892-1.518-6.33,0.514l6.21,4.393c1.131,0.792,1.711,0.622,2.656-0.707c1.421-2.018,2.232-4.582-0.724-8.617
				l0.401-0.57l4.754,4.591l-8.482,12.01l-0.646-0.457c0.676-1.273,1.046-1.965-0.542-3.092l-12.416-8.777
				c-1.692-1.197-2.35-0.368-3.102,0.518L95.798,137.714z"/>
			<path fill="#FFFFFF" d="M134.485,124.275l-3.578,3.709l-10.69-3.078l-0.474,0.49l4.438,4.271c1.806,1.744,2.258,1.409,3.616,0.41
				l0.566,0.552l-5.897,6.114l-0.566-0.542c1.004-1.405,1.287-1.839-0.544-3.596l-10-9.64c-1.947-1.874-2.536-1.36-3.618-0.415
				l-0.566-0.547l5.616-5.822c1.218-1.27,5.1-4.931,8.899-1.27c2.786,2.685,1.69,5.223,1.131,6.571l9.95,2.576
				c0.655,0.141,0.938-0.113,1.15-0.325L134.485,124.275z M119.02,124.699c2.26-2.397,2.673-3.816-0.266-6.646
				c-2.288-2.201-3.976-2.404-5.371-0.952c-0.961,0.997-0.745,1.275-0.129,2.036L119.02,124.699z"/>
			<path fill="#FFFFFF" d="M138.549,120.014c0.867-0.915,0.893-0.964,0.95-1.195c0.085-0.403,0.144-0.938-0.853-2.387l-7.881-11.436
				c-1.496-2.166-2.192-1.805-3.377-1.181l-0.448-0.643l6.66-4.593c1.655-1.141,5.689-3.349,8.697,1.023
				c0.631,0.905,1.669,2.899,0.815,5.206c-0.683,1.838-1.72,2.595-4.43,4.504l3.314,4.81c1.447,2.095,1.871,1.876,3.464,1.124
				l0.441,0.643l-6.908,4.768L138.549,120.014z M138.054,108.407c2.54-1.673,2.955-3.066,0.74-6.276
				c-2.029-2.948-3.453-3.415-5.147-2.248c-0.707,0.488-0.74,1.006-0.37,1.593L138.054,108.407z"/>
			<path fill="#FFFFFF" d="M162.715,94.805c2.875,5.937,1.49,11.666-3.144,13.912c-4.639,2.249-9.995-0.222-12.873-6.154
				c-2.991-6.17-1.226-11.808,3.139-13.917C154.207,86.533,159.727,88.643,162.715,94.805z M150.703,100.62
				c1.19,2.461,4.546,9.041,8.414,7.17c3.873-1.876,0.785-8.588-0.405-11.044c-2.001-4.132-5.251-8.699-8.421-7.17
				C147.123,91.112,148.702,96.493,150.703,100.62z"/>
			<path fill="#FFFFFF" d="M181.68,100.03l-13.912,4.177l-0.222-0.75c1.278-0.617,1.975-0.926,1.426-2.76l-4.376-14.565
				c-0.589-1.984-1.596-1.749-2.708-1.513l-0.226-0.752l8.402-2.524l0.222,0.754c-1.655,0.594-2.392,0.848-1.596,3.497l4.263,14.202
				c0.429,1.442,1.035,1.527,2.649,1.042c3.629-1.091,4.228-3.999,4.318-7.728l0.697-0.212L181.68,100.03z"/>
			<path fill="#FFFFFF" d="M197.101,76.969c-0.46,0.155-1.16,0.382-1.523,1.449l-3.403,10.339l0.799,5.722
				c0.361,2.583,0.917,2.571,2.689,2.546l0.111,0.778l-8.643,1.207l-0.099-0.778c1.681-0.455,2.272-0.606,1.914-3.189l-0.643-4.572
				l-5.996-9.694c-0.163-0.262-0.95-1.518-2.229-1.431l-0.111-0.78l8.338-1.165l0.109,0.778c-1.716,0.24-1.989,0.467-1.867,1.341
				c0.066,0.467,0.571,1.19,0.839,1.657l3.997,6.802l1.956-6.142c0.127-0.363,0.688-2.187,0.568-3.031
				c-0.167-1.209-1.101-1.145-2.281-1.075l-0.111-0.778l5.475-0.764L197.101,76.969z"/>
			<path fill="#FFFFFF" d="M212.675,97.41l-8.974-0.116l0.012-0.785c1.834-0.165,2.439-0.214,2.477-2.854l0.207-16.563
				c-1.758,0.101-4.353,0.226-4.916,5.249l-0.733-0.012l0.163-6.312l15.084,0.191l-0.033,6.316l-0.733-0.007
				c-0.441-5.034-3.023-5.227-4.756-5.374l-0.212,16.559c-0.035,2.673,0.566,2.741,2.425,2.92L212.675,97.41z"/>
			<path fill="#FFFFFF" d="M219.505,76.486l14.315,2.293l-0.997,6.231l-0.62-0.094c0.132-4.497-1.504-5.555-4.852-6.092
				c-1.365-0.215-1.831-0.167-2.046,1.167l-1.143,7.198c2.371,0.41,3.769-0.193,4.751-3.981l0.643,0.106l-1.671,10.48l-0.646-0.101
				c0.321-3.922-0.796-5.053-3.25-5.449l-1.2,7.504c-0.219,1.364,0.194,1.812,1.806,2.074c2.435,0.389,5.093-0.016,7.405-4.445
				l0.693,0.109l-2.022,6.293l-14.511-2.324l0.12-0.778c1.442,0.042,2.225,0.073,2.536-1.855l2.395-15.01
				c0.328-2.046-0.705-2.272-1.831-2.55L219.505,76.486z"/>
			<path fill="#FFFFFF" d="M249.187,101.292c-2.546,1.921-5.02,3.203-8.084,2.217c-5.576-1.796-7.009-7.676-5.206-13.264
				c1.954-6.074,6.905-9.627,11.93-8.006c2.152,0.691,3.521,2.753,4.146,2.955c0.646,0.205,1.061-0.353,1.546-1.023l0.641,0.208
				l-2.253,6.997l-0.597-0.191c0-2.873-0.884-7.023-3.608-7.897c-3.497-1.127-5.902,3.148-7.533,8.199
				c-0.58,1.796-1.36,4.711-1.087,6.912c0.307,2.477,2.053,3.538,2.793,3.774c1.867,0.601,3.95,0.283,6.83-1.86L249.187,101.292z"/>
			<path fill="#FFFFFF" d="M264.94,113.726l-7.594-3.926l0.361-0.693c1.273,0.443,2.152,0.756,3.033-0.945l3.318-6.418l-5.383-2.781
				l-3.314,6.418c-0.881,1.702-0.111,2.242,0.985,3.019l-0.363,0.7l-7.528-3.891l0.358-0.702c1.289,0.419,2.079,0.65,2.927-0.995
				l6.985-13.507c0.938-1.81,0.005-2.364-0.874-2.963l0.361-0.695l7.528,3.888l-0.365,0.696c-1.023-0.419-2.081-0.896-3.029,0.943
				l-2.993,5.779l5.383,2.781l2.988-5.774c0.952-1.843-0.047-2.432-0.98-3.019l0.358-0.698l7.592,3.924l-0.365,0.697
				c-1.004-0.415-2.046-0.846-2.989,0.964l-6.985,13.502c-0.863,1.676-0.137,2.192,0.943,3L264.94,113.726z"/>
			<path fill="#FFFFFF" d="M265.35,113.127c1.343,0.726,2.034,0.974,3.276-0.688l8.914-11.93c0.17-2.576-0.089-2.895-0.353-3.09
				l0.466-0.631l4.252,3.177l-1.044,15.96l0.042,0.033l5.698-7.626c1.129-1.513,1.506-2.52-0.009-3.891l0.469-0.627l4.329,3.229
				l-0.469,0.631c-1.622-0.855-2.175-0.367-3.078,0.844l-11.073,14.82l-0.566-0.422l1.225-20.332l-0.038-0.028l-7.523,10.063
				c-1.352,1.817-1.287,2.614,0.052,3.924l-0.467,0.627l-4.572-3.408L265.35,113.127z"/>
			<path fill="#FFFFFF" d="M285.133,130.558l-6.363-6.075l0.547-0.571c1.089,0.825,1.885,1.409,3.229,0.005l10.509-10.997
				c1.43-1.501,0.622-2.361-0.151-3.231l0.544-0.568l6.356,6.078l-0.54,0.568c-0.896-0.768-1.791-1.579-3.267-0.033l-10.509,10.997
				c-1.388,1.452-0.728,2.215,0.186,3.262L285.133,130.558z"/>
			<path fill="#FFFFFF" d="M299.255,141.065c-3.181,0.236-5.953-0.028-7.992-2.512c-3.715-4.535-1.737-10.248,2.807-13.971
				c4.931-4.042,11.016-4.344,14.367-0.264c1.433,1.754,1.471,4.223,1.88,4.728c0.434,0.523,1.084,0.283,1.853-0.019l0.434,0.523
				l-5.69,4.662l-0.396-0.49c1.551-2.413,3.059-6.373,1.244-8.593c-2.333-2.837-6.67-0.546-10.778,2.814
				c-1.454,1.198-3.693,3.224-4.659,5.213c-1.084,2.253-0.189,4.092,0.306,4.69c1.244,1.518,3.167,2.381,6.755,2.14L299.255,141.065
				z"/>
			<path fill="#FFFFFF" d="M303.955,156.987l-4.299-7.674l0.686-0.391c0.799,1.113,1.391,1.905,3.09,0.957l13.269-7.434
				c1.81-1.009,1.289-2.074,0.806-3.134l0.688-0.377l4.294,7.678l-0.683,0.387c-0.634-0.999-1.249-2.046-3.111-0.999l-13.274,7.428
				c-1.756,0.98-1.348,1.909-0.782,3.172L303.955,156.987z"/>
			<path fill="#FFFFFF" d="M305.013,156.771c0.775,1.315,1.242,1.885,3.161,1.098l13.792-5.623c1.476-2.121,1.409-2.531,1.287-2.838
				l0.731-0.292l1.998,4.907l-9.125,13.146l0.024,0.052l8.812-3.601c1.746-0.712,2.59-1.386,1.996-3.338l0.725-0.302l2.046,5.011
				l-0.726,0.293c-0.947-1.57-1.676-1.433-3.073-0.863l-17.136,6.99l-0.266-0.651l11.544-16.794l-0.019-0.042l-11.638,4.747
				c-2.093,0.853-2.447,1.57-1.98,3.384l-0.726,0.297l-2.154-5.289L305.013,156.771z"/>
			<path fill="#FFFFFF" d="M327.874,180.263c2.025-0.976,5.162-3.318,4.441-6.194c-0.321-1.273-1.572-2.381-3.547-1.881
				c-1.655,0.41-2.211,1.042-2.969,3.413l-1.327,4.148c-0.306,0.957-1.61,3.253-4.928,4.092c-2.687,0.674-6.764,0.038-7.896-4.445
				c-0.58-2.314,0.179-3.672-0.012-4.431c-0.13-0.509-0.705-0.495-1.219-0.466l-0.177-0.712l7.528-1.895l0.177,0.707
				c-2.958,1.263-6.045,3.545-5.265,6.642c0.735,2.922,3.783,2.286,4.178,2.187c2.039-0.514,2.486-1.843,3.033-3.667l0.563-1.88
				c1.454-4.799,4.073-5.449,5.47-5.807c1.862-0.467,6.199-0.754,7.363,3.874c0.495,1.961-0.226,3.356-0.052,4.063
				c0.141,0.556,0.631,0.561,1.24,0.547l0.184,0.726l-6.613,1.659L327.874,180.263z"/>
			<path fill="#FFFFFF" d="M315.418,198.411l-1.004-8.918l0.782-0.09c0.391,1.806,0.518,2.399,3.139,2.107l16.46-1.848
				c-0.325-1.744-0.773-4.294-5.826-4.233l-0.08-0.726l6.283-0.631l1.687,14.999l-6.269,0.75l-0.08-0.726
				c4.938-1.056,4.806-3.649,4.737-5.388l-16.46,1.848c-2.649,0.297-2.649,0.905-2.595,2.772L315.418,198.411z"/>
			<path fill="#FFFFFF" d="M315.583,210.978l0.026-8.801h0.79c0.151,1.363,0.273,2.348,2.218,2.348l15.208,0.047
				c2.076,0.005,2.14-1.173,2.244-2.338l0.782,0.004l-0.024,8.801h-0.787c-0.059-1.183-0.089-2.39-2.225-2.395l-15.211-0.047
				c-2.013-0.009-2.104,0.999-2.239,2.381H315.583z"/>
			<path fill="#FFFFFF" d="M314.308,223.662l1.053-8.918l0.778,0.095c-0.026,1.848-0.033,2.451,2.583,2.762l16.451,1.951
				c0.08-1.768,0.229-4.36-4.704-5.444l0.085-0.726l6.26,0.82l-1.765,14.98l-6.279-0.698l0.087-0.726
				c5.048,0.095,5.51-2.456,5.838-4.166l-16.446-1.942c-2.651-0.321-2.788,0.278-3.156,2.103L314.308,223.662z"/>
			<path fill="#FFFFFF" d="M329.052,249.158c0.125-1.4-0.052-2.046-2.053-2.602l-9.654-2.687c-1.791-0.5-4.388-1.584-5.468-2.979
				c-1.296-1.664-1.287-3.931-0.884-5.383c0.294-1.065,1.115-3.3,3.273-4.388c1.442-0.726,2.677-1.06,5.944-0.151l10.111,2.809
				c2.543,0.712,2.781,0.094,3.344-1.212l0.752,0.208l-2.272,8.193l-0.761-0.212c0.353-1.626,0.53-2.38-2.133-3.125l-10.111-2.805
				c-1.725-0.486-5.901-1.645-6.872,1.848c-1.185,4.261,3.436,5.6,5.371,6.132l9.232,2.569c1.848,0.514,2.955,0.504,3.66-1.542
				l0.754,0.208l-1.483,5.326L329.052,249.158z"/>
			<path fill="#FFFFFF" d="M304.129,255.125l3.695-8.174l0.717,0.325c-0.587,1.749-0.773,2.324,1.626,3.408l15.088,6.821
				c0.611-1.655,1.537-4.072-2.837-6.603l0.297-0.665l5.727,2.673l-6.21,13.74l-5.777-2.56l0.297-0.665
				c4.789,1.616,6.001-0.679,6.826-2.206l-15.084-6.821c-2.437-1.103-2.741-0.575-3.649,1.051L304.129,255.125z"/>
			<path fill="#FFFFFF" d="M320.561,269.766l-7.839,12.208l-5.317-3.417l0.339-0.523c4.07,1.918,5.699,0.844,7.528-2.013
				c0.747-1.165,0.889-1.617-0.248-2.348l-6.13-3.936c-1.334,2.018-1.338,3.53,1.735,5.958l-0.358,0.547l-8.928-5.732l0.354-0.557
				c3.469,1.876,4.952,1.301,6.298-0.792l-6.396-4.11c-1.162-0.745-1.74-0.547-2.621,0.83c-1.334,2.074-2.029,4.671,1.1,8.565
				l-0.379,0.594l-4.952-4.379l7.954-12.373l0.66,0.429c-0.617,1.301-0.957,2.013,0.679,3.064l12.79,8.22
				c1.744,1.117,2.367,0.264,3.071-0.66L320.561,269.766z"/>
		</g>
		<g>
			<path fill="#FFFFFF" d="M167.83,318.448c2.107,0.731,3.092,3.163,2.3,5.449c-0.818,2.347-3.073,3.596-5.187,2.866
				c-2.032-0.707-3.113-3.116-2.298-5.449C163.437,319.023,165.798,317.746,167.83,318.448z"/>
			<path fill="#FFFFFF" d="M189.161,338.952l-10.447-1.81l0.123-0.735c3.229,0.585,3.524-0.613,3.851-2.531l2.055-11.921
				c0.132-0.773,0.368-2.131-0.716-2.319c-0.396-0.066-1.402,0.146-2.423,0.382l0.141-0.806l7.608-2.163l0.472,0.085l-3.043,17.643
				c-0.356,2.074-0.248,2.951,2.51,3.431L189.161,338.952z"/>
			<path fill="#FFFFFF" d="M206.434,323.063c-0.137,2.663-2.484,3.677-4.066,4.162c2.34,1.73,4.042,4.016,3.888,6.934
				c-0.205,3.927-2.929,6.236-6.969,6.029c-3.05-0.16-5.807-2.131-5.628-5.581c0.174-3.418,2.583-4.521,4.509-5.082
				c-2.048-1.433-3.755-3.431-3.622-6.038c0.155-2.917,2.185-5.491,6.702-5.255C205.541,318.448,206.529,321.272,206.434,323.063z
				 M201.716,326.622c0.707-0.934,1.249-1.664,1.348-3.545c0.085-1.602-0.226-3.851-2.317-3.959
				c-1.379-0.071-2.378,1.131-2.444,2.423C198.15,324.458,201.443,326.452,201.716,326.622z M199.54,339.188
				c2.512,0.132,2.661-2.725,2.703-3.535c0.134-2.574-1.633-4.021-3.479-5.534c-0.926,1.371-1.565,2.31-1.685,4.6
				C196.964,336.982,197.702,339.094,199.54,339.188z"/>
			<path fill="#FFFFFF" d="M220.787,339.353l-11.739,0.768l-0.042-0.721c4.209-5.722,7.351-10.082,7.108-13.782
				c-0.059-0.877-0.716-3.983-3.618-3.8c-0.655,0.052-2.39,0.349-3.257,3.055l-0.792,0.047c0.447-1.819,1.808-6.538,5.783-6.802
				c1.746-0.113,5.291,0.759,5.607,5.525c0.059,0.905,0.219,3.29-2.774,6.915l-4.251,5.133l4.256-0.283
				c2.993-0.198,3.224-0.523,3.877-2.711l0.676-0.042L220.787,339.353z"/>
			<path fill="#FFFFFF" d="M236.243,328.653l0.646,3.422l-1.753,0.33l0.829,4.45l-4.026,0.749l-0.834-4.444l-6.891,1.287
				l-0.655-3.488c1.655-4.846,4.346-10.752,6.213-14.933l2.225-0.419l2.498,13.368L236.243,328.653z M228.821,320.645l-0.054,0.005
				l-4.056,10.157l5.809-1.088L228.821,320.645z"/>
			<path fill="#FFFFFF" d="M247.164,317.896c2.098-0.759,4.398,0.514,5.221,2.795c0.844,2.329-0.13,4.719-2.227,5.473
				c-2.018,0.736-4.37-0.447-5.216-2.781C244.12,321.107,245.143,318.627,247.164,317.896z"/>
		</g>
	</g>
	<g>
		<path d="M139.463,298.387l-1.942,1.923l-0.146-0.141c0.342-0.368,0.434-0.486,0.34-0.58c-0.076-0.076-0.186-0.095-0.391-0.118
			l-2.352-0.279l-0.01,0.306l1.117,1.131c0.344,0.349,0.571,0.169,0.914-0.094l0.146,0.146l-1.951,1.928l-0.141-0.146
			c0.283-0.354,0.443-0.552,0.095-0.91l-2.765-2.8c-0.375-0.377-0.625-0.16-0.907,0.085l-0.141-0.141l1.954-1.933l0.144,0.146
			c-0.295,0.334-0.481,0.542,0.009,1.042l1.224,1.24l0.012-2.503c0.002-0.316,0.002-0.415-0.109-0.523
			c-0.127-0.137-0.236-0.094-0.679,0.292l-0.141-0.146l1.671-1.645l0.144,0.141c-0.571,0.637-0.571,1.193-0.561,3.144l3.922,0.448
			c0.193,0.019,0.288-0.052,0.408-0.16L139.463,298.387z"/>
		<path d="M139.409,298.203c0.342-0.359,0.481-0.542,0.144-0.962l-2.446-2.979c-0.707-0.141-0.82-0.08-0.905-0.014l-0.127-0.16
			l1.329-1.084l4.376,0.896l0.017-0.014l-1.565-1.899c-0.311-0.377-0.554-0.528-1.096-0.137l-0.125-0.16l1.348-1.113l0.13,0.155
			c-0.405,0.434-0.32,0.608-0.078,0.905l3.036,3.705l-0.175,0.141l-5.586-1.113l-0.019,0.014l2.062,2.513
			c0.365,0.452,0.601,0.462,1.11,0.132l0.125,0.16l-1.428,1.159L139.409,298.203z"/>
		<path d="M147.307,289.115c0.971,1.4,0.641,3.059-0.731,4.002c-1.372,0.947-3.036,0.66-4.007-0.745
			c-1.002-1.457-0.556-3.116,0.731-4.002C144.592,287.48,146.305,287.649,147.307,289.115z M143.755,291.562
			c0.398,0.58,1.523,2.126,2.67,1.334c1.143-0.783,0.095-2.39-0.304-2.97c-0.672-0.971-1.728-1.979-2.666-1.338
			C142.518,289.238,143.083,290.586,143.755,291.562z"/>
		<path d="M153.312,282.691c-0.236,0.16-0.294,0.424-0.236,0.731l0.994,5.057l-0.188,0.109l-3.059-2.635l-0.052,0.028l0.585,4.04
			l-0.198,0.113l-3.91-3.413c-0.311-0.274-0.422-0.302-0.747-0.18l-0.097-0.174l2.081-1.178l0.099,0.179
			c-0.24,0.165-0.433,0.292-0.288,0.556c0.047,0.075,0.113,0.141,0.184,0.198l2.286,2.079l0.016-0.01l-0.394-2.616l-0.629-0.543
			c-0.181-0.103-0.304-0.137-0.653,0.038l-0.099-0.175l2.211-1.254l0.099,0.183c-0.297,0.189-0.495,0.316-0.361,0.552
			c0.05,0.09,0.2,0.217,0.32,0.334l2.09,1.928l0.014-0.01l-0.575-2.847c-0.019-0.085-0.038-0.18-0.118-0.33
			c-0.167-0.288-0.422-0.155-0.665-0.033l-0.104-0.179l1.289-0.726L153.312,282.691z"/>
		<path d="M160.373,285.25l-4.247,1.994l-0.089-0.18c0.389-0.245,0.599-0.377,0.389-0.825l-1.671-3.559
			c-0.236-0.481-0.542-0.353-0.881-0.222l-0.089-0.183l2.569-1.207l0.085,0.183c-0.502,0.26-0.724,0.382-0.422,1.023l1.633,3.479
			c0.165,0.348,0.354,0.33,0.849,0.103c1.11-0.528,1.235-1.329,1.183-2.324l0.212-0.099L160.373,285.25z"/>
		<path d="M158.888,279.886l4.348-1.758l0.613,1.518l-0.186,0.076c-0.606-1-1.216-0.976-2.234-0.561
			c-0.415,0.169-0.542,0.25-0.405,0.575l0.697,1.754c0.731-0.288,1.037-0.637,0.773-1.622l0.194-0.075l1.032,2.546l-0.198,0.084
			c-0.471-0.909-0.947-0.985-1.697-0.679l0.738,1.824c0.139,0.335,0.316,0.359,0.804,0.17c0.745-0.302,1.431-0.806,1.447-2.14
			l0.212-0.084l0.33,1.692l-4.407,1.777l-0.08-0.189c0.41-0.217,0.632-0.33,0.448-0.806l-1.471-3.644
			c-0.205-0.5-0.523-0.387-0.881-0.269L158.888,279.886z"/>
		<path d="M165.819,282.79c0.49-0.165,0.563-0.438,0.467-0.731l-1.294-3.789c-0.16-0.472-0.504-0.373-0.813-0.297l-0.064-0.198
			l2.345-0.796c2.157-0.735,3.312,0.368,3.715,1.556c0.485,1.414,0.059,2.899-1.855,3.62l-2.437,0.829L165.819,282.79z
			 M167.525,281.625c0.106,0.311,0.224,0.419,0.597,0.297c0.858-0.297,1.367-1.018,0.74-2.861c-0.236-0.693-0.971-2.276-2.3-1.819
			c-0.49,0.165-0.415,0.349-0.348,0.518L167.525,281.625z"/>
		<path d="M176.602,277.43c-0.469,0.188-0.651,0.273-0.472,0.909l0.279,1c-0.302,0.367-1.301,0.886-1.98,1.07
			c-1.961,0.552-3.222-0.594-3.606-1.956c-0.433-1.546,0.297-3.116,1.989-3.587c0.707-0.198,1.414,0.019,1.622-0.038
			c0.209-0.056,0.231-0.245,0.262-0.457l0.209-0.061l0.509,1.829l-0.193,0.056c-0.462-0.603-1.381-1.339-2.272-1.089
			c-1.141,0.311-1.117,1.598-0.745,2.946c0.158,0.556,0.752,2.493,2.229,2.078c0.693-0.188,0.75-0.462,0.657-0.796l-0.229-0.83
			c-0.141-0.495-0.401-0.448-0.947-0.32l-0.052-0.198l2.682-0.745L176.602,277.43z"/>
		<path d="M176.206,274.07l4.579-1.028l0.356,1.593l-0.203,0.042c-0.429-1.084-1.039-1.155-2.107-0.914
			c-0.438,0.099-0.57,0.165-0.495,0.5l0.41,1.839c0.764-0.156,1.122-0.462,1.023-1.466l0.203-0.042l0.603,2.677l-0.207,0.042
			c-0.316-0.966-0.773-1.117-1.556-0.938l0.429,1.919c0.08,0.353,0.252,0.41,0.768,0.302c0.775-0.184,1.536-0.575,1.765-1.881
			l0.222-0.047l0.054,1.716l-4.636,1.046l-0.045-0.198c0.438-0.151,0.681-0.231,0.57-0.721l-0.863-3.837
			c-0.118-0.523-0.455-0.462-0.829-0.405L176.206,274.07z"/>
		<g>
			<path d="M203.384,275.945l-2.637,0.099l-0.007-0.207c0.504-0.056,0.648-0.076,0.639-0.339c-0.007-0.222-0.29-0.816-0.413-1.065
				l-1.833,0.066c-0.203,0.599-0.316,0.938-0.316,1.061c0.012,0.306,0.405,0.32,0.683,0.325l0.007,0.203l-1.652,0.061l-0.007-0.198
				c0.436-0.085,0.54-0.368,0.761-0.98l1.631-4.525l0.231-0.01l1.975,4.205c0.401,0.858,0.542,1.131,0.933,1.099L203.384,275.945z
				 M200.834,274.116l-0.9-1.942l-0.691,1.998L200.834,274.116z"/>
			<path d="M203.729,275.724c0.49-0.056,0.717-0.113,0.721-0.646l0.019-3.851c-0.452-0.566-0.58-0.594-0.683-0.594v-0.202
				l1.711,0.014l2.805,3.488h0.014l0.016-2.47c0.002-0.49-0.094-0.749-0.756-0.806l0.005-0.207l1.749,0.014l-0.005,0.203
				c-0.58,0.07-0.632,0.259-0.634,0.646l-0.026,4.789h-0.231l-3.592-4.426h-0.019l-0.019,3.252c0,0.58,0.169,0.74,0.773,0.806v0.208
				l-1.848-0.014V275.724z"/>
			<path d="M209.545,275.771c0.514,0.019,0.688-0.208,0.707-0.5l0.203-4.007c0.028-0.495-0.325-0.532-0.643-0.58l0.007-0.198
				l2.48,0.127c2.267,0.113,2.937,1.565,2.873,2.814c-0.075,1.494-1.018,2.715-3.066,2.673l-2.567-0.132L209.545,275.771z
				 M211.567,275.319c-0.016,0.32,0.047,0.471,0.439,0.49c0.909,0.052,1.65-0.429,1.749-2.376c0.04-0.735-0.059-2.475-1.457-2.54
				c-0.516-0.033-0.518,0.174-0.521,0.353L211.567,275.319z"/>
		</g>
		<g>
			<path d="M229.573,278.095l-2.597-0.485l0.038-0.189c0.538,0.047,0.717,0.057,0.841-0.613l0.78-4.214
				c-0.514-0.066-1.275-0.165-1.65,1.094l-0.215-0.038l0.32-1.607l4.363,0.802l-0.283,1.612l-0.212-0.033
				c0.094-1.315-0.648-1.49-1.145-1.612l-0.782,4.219c-0.123,0.679,0.047,0.726,0.58,0.863L229.573,278.095z"/>
			<path d="M236.116,279.537l-2.451-0.561l0.047-0.198c0.391,0.042,0.665,0.066,0.778-0.41l0.415-1.829l-1.735-0.396l-0.419,1.829
				c-0.109,0.476,0.151,0.57,0.521,0.707l-0.04,0.198l-2.432-0.552l0.042-0.208c0.396,0.038,0.639,0.052,0.74-0.415l0.879-3.842
				c0.115-0.514-0.189-0.603-0.488-0.702l0.047-0.198l2.428,0.556l-0.047,0.193c-0.318-0.042-0.655-0.103-0.771,0.415l-0.375,1.645
				l1.735,0.396l0.375-1.645c0.12-0.523-0.209-0.613-0.521-0.707l0.045-0.198l2.451,0.556l-0.045,0.203
				c-0.318-0.047-0.65-0.099-0.766,0.415l-0.87,3.842c-0.111,0.476,0.132,0.566,0.504,0.707L236.116,279.537z"/>
			<path d="M242.232,278.401c-0.46,1.641-1.836,2.48-3.297,2.074c-1.464-0.405-2.211-1.838-1.754-3.483
				c0.473-1.711,1.923-2.456,3.297-2.074C241.857,275.299,242.708,276.69,242.232,278.401z M238.444,277.345
				c-0.189,0.683-0.66,2.526,0.561,2.875c1.221,0.339,1.777-1.49,1.963-2.173c0.321-1.141,0.439-2.592-0.563-2.87
				C239.406,274.894,238.76,276.204,238.444,277.345z"/>
			<path d="M246.712,282.733l-1.442-0.472l-0.655-2.899l-0.195-0.061l-0.495,1.513c-0.205,0.618-0.055,0.693,0.384,0.919
				l-0.063,0.188l-2.376-0.778l0.064-0.198c0.5,0.099,0.648,0.123,0.848-0.509l1.131-3.408c0.217-0.665,0-0.749-0.389-0.914
				l0.069-0.193l2.263,0.744c0.49,0.156,1.965,0.707,1.536,2.008c-0.316,0.952-1.122,0.952-1.539,0.957l0.686,2.668
				c0.056,0.175,0.158,0.212,0.24,0.24L246.712,282.733z M244.506,279.057c0.919,0.292,1.346,0.245,1.678-0.764
				c0.254-0.778,0.075-1.207-0.486-1.386c-0.389-0.132-0.433-0.052-0.547,0.179L244.506,279.057z"/>
			<path d="M252.807,282.158c-0.613,1.588-2.065,2.3-3.483,1.749c-1.414-0.546-2.013-2.041-1.395-3.639
				c0.637-1.65,2.15-2.262,3.479-1.753C252.738,279.033,253.448,280.504,252.807,282.158z M249.144,280.739
				c-0.25,0.669-0.9,2.461,0.278,2.923c1.181,0.452,1.909-1.32,2.166-1.98c0.427-1.108,0.691-2.541-0.278-2.913
				C250.341,278.396,249.575,279.631,249.144,280.739z"/>
			<path d="M258.897,282.082c-0.401-0.108-0.589-0.099-0.811,0.396l-1.06,2.361c-0.193,0.434-0.585,1.051-1.02,1.259
				c-0.516,0.245-1.171,0.122-1.572-0.057c-0.297-0.137-0.91-0.462-1.164-1.084c-0.158-0.41-0.219-0.75,0.141-1.551l1.113-2.475
				c0.278-0.622,0.111-0.711-0.25-0.928l0.087-0.189l2.276,1.028l-0.08,0.184c-0.455-0.175-0.669-0.264-0.959,0.391l-1.114,2.475
				c-0.191,0.419-0.653,1.442,0.325,1.881c1.185,0.537,1.709-0.599,1.923-1.075l1.016-2.253c0.2-0.452,0.234-0.74-0.335-1.032
				l0.08-0.188l1.49,0.669L258.897,282.082z"/>
			<path d="M262.734,287.616c-0.429-0.16-0.599-0.222-0.91,0.373l-0.471,0.914c-0.448,0.08-1.438-0.184-2.008-0.476
				c-1.636-0.853-1.706-2.508-1.051-3.771c0.74-1.419,2.253-2.116,3.672-1.376c0.587,0.306,0.91,0.924,1.077,1.009
				c0.179,0.089,0.313-0.029,0.473-0.17l0.179,0.089l-0.879,1.688l-0.165-0.08c0.101-0.75-0.012-1.886-0.761-2.268
				c-0.948-0.5-1.782,0.462-2.43,1.702c-0.266,0.509-1.159,2.324,0.078,2.974c0.575,0.302,0.792,0.137,0.957-0.175l0.393-0.759
				c0.24-0.457,0.035-0.58-0.398-0.849l0.092-0.179l2.248,1.174L262.734,287.616z"/>
			<path d="M266.632,292.457l-2.154-1.301l0.103-0.179c0.368,0.16,0.613,0.273,0.875-0.146l0.973-1.598l-1.527-0.924l-0.971,1.593
				c-0.259,0.424-0.042,0.599,0.264,0.839l-0.099,0.174l-2.133-1.296l0.106-0.174c0.363,0.155,0.589,0.25,0.832-0.165l2.053-3.361
				c0.276-0.457,0.012-0.636-0.236-0.825l0.103-0.169l2.131,1.292l-0.106,0.169c-0.29-0.146-0.589-0.306-0.87,0.155l-0.877,1.438
				l1.527,0.924l0.877-1.437c0.278-0.458-0.005-0.646-0.269-0.839l0.104-0.174l2.152,1.306l-0.106,0.174
				c-0.285-0.146-0.58-0.292-0.858,0.156l-2.046,3.365c-0.257,0.415-0.052,0.58,0.25,0.835L266.632,292.457z"/>
			<path d="M266.882,292.391c0.396,0.207,0.596,0.283,0.907-0.156l2.232-3.139c-0.019-0.693-0.099-0.787-0.174-0.848l0.118-0.16
				l1.27,0.905l0.087,4.318l0.012,0.009l1.423-2.012c0.283-0.396,0.368-0.665-0.092-1.051l0.118-0.165l1.296,0.924l-0.118,0.16
				c-0.476-0.245-0.622-0.123-0.846,0.198l-2.776,3.903l-0.169-0.113l-0.13-5.505l-0.014-0.01l-1.886,2.649
				c-0.339,0.476-0.299,0.698,0.109,1.065l-0.118,0.17l-1.369-0.976L266.882,292.391z"/>
			<path d="M274.546,291.364l3.286,2.719l-1.04,1.264l-0.146-0.118c0.606-1.004,0.333-1.49-0.436-2.126
				c-0.313-0.259-0.433-0.325-0.66-0.052l-1.197,1.456c0.537,0.458,0.964,0.542,1.692-0.174l0.146,0.123l-1.749,2.126l-0.146-0.123
				c0.578-0.844,0.439-1.272-0.127-1.739l-1.249,1.518c-0.226,0.279-0.184,0.443,0.191,0.75c0.554,0.462,1.273,0.778,2.411,0.127
				l0.16,0.132l-1.306,1.122l-3.332-2.757l0.132-0.16c0.359,0.231,0.547,0.358,0.87-0.033l2.503-3.036
				c0.342-0.41,0.115-0.622-0.132-0.858L274.546,291.364z"/>
			<path d="M279.806,298.18c0.299-0.509,0.627-1.485-0.009-2.088c-0.278-0.264-0.74-0.373-1.099,0.009
				c-0.311,0.316-0.33,0.542-0.115,1.221l0.37,1.179c0.089,0.278,0.169,1.009-0.443,1.64c-0.49,0.519-1.513,0.905-2.498-0.033
				c-0.509-0.49-0.558-0.915-0.726-1.079c-0.113-0.099-0.238-0.019-0.349,0.047l-0.158-0.146l1.391-1.448l0.158,0.146
				c-0.466,0.698-0.785,1.659-0.108,2.305c0.641,0.608,1.225,0.056,1.298-0.019c0.37-0.396,0.254-0.778,0.083-1.292l-0.177-0.528
				c-0.455-1.357,0.03-1.862,0.285-2.131c0.344-0.358,1.277-0.999,2.295-0.033c0.424,0.41,0.49,0.848,0.643,0.994
				c0.125,0.113,0.238,0.052,0.365-0.028l0.165,0.151l-1.221,1.278L279.806,298.18z"/>
			<path d="M282.767,301.347c0.333-0.481,0.731-1.437,0.146-2.078c-0.262-0.297-0.716-0.429-1.108-0.076
				c-0.325,0.297-0.368,0.519-0.203,1.211l0.294,1.202c0.064,0.279,0.092,1.014-0.563,1.607c-0.532,0.481-1.576,0.792-2.493-0.217
				c-0.471-0.518-0.487-0.952-0.641-1.122c-0.106-0.113-0.238-0.047-0.353,0.019l-0.146-0.16l1.485-1.348l0.149,0.155
				c-0.512,0.665-0.903,1.603-0.276,2.296c0.599,0.66,1.221,0.151,1.296,0.075c0.405-0.362,0.32-0.754,0.184-1.277l-0.141-0.547
				c-0.353-1.386,0.165-1.853,0.443-2.102c0.363-0.335,1.338-0.905,2.277,0.137c0.401,0.433,0.436,0.877,0.577,1.032
				c0.118,0.127,0.233,0.071,0.37-0.005l0.151,0.165l-1.31,1.188L282.767,301.347z"/>
		</g>
	</g>
	<path d="M267.989,145.358l-127.143,0.022l5.637,3.807c-0.059-0.041,2.204,1.674,2.204,1.674c2.664,2.024,5.514,6.955,5.868,13.401
		c0.557,10.09,0.305,26.67,0.122,38.778l-0.124,14.723c0.313,17.476,12.323,25.446,12.834,25.776
		c-0.139-0.1,26.029,22.733,26.029,22.733l3.618-0.557l-27.955-24.411c-0.272-0.196-11.425-7.666-11.712-23.594l0.124-14.629
		c0.1-6.56,0.22-14.43,0.22-21.887c0-6.351-0.087-12.401-0.346-17.089c-0.431-7.846-4.026-13.247-6.975-15.487
		c0,0-0.354-0.267-0.563-0.426c7.851-0.002,105.897-0.02,113.765-0.02c-0.202,0.152-0.552,0.418-0.552,0.418
		c-2.95,2.244-6.544,7.646-6.972,15.491c-0.259,4.679-0.346,10.723-0.346,17.065c0,7.451,0.12,15.315,0.217,21.869l0.126,14.669
		c-0.289,15.932-11.443,23.402-11.556,23.472c-0.156,0.122-28.413,24.559-28.413,24.559l3.618,0.626l26.487-22.941
		c0.352-0.209,12.362-8.183,12.677-25.663l-0.124-14.764c-0.185-12.095-0.435-28.659,0.122-38.736
		c0.352-6.446,3.201-11.375,5.866-13.404l2.27-1.72c-0.061,0.044,1.761-1.18,1.761-1.18l3.837-2.577L267.989,145.358z"/>
</g>
<g id="Layer_2">
	<path fill="#080F2B" d="M206.604,9.627C97.933,9.627,9.838,97.722,9.838,206.392s88.095,196.766,196.766,196.766
		S403.37,315.063,403.37,206.392S315.275,9.627,206.604,9.627z M206.604,354.89c-82.013,0-148.498-66.485-148.498-148.498
		S124.591,57.894,206.604,57.894s148.498,66.485,148.498,148.498S288.617,354.89,206.604,354.89z"/>
	<g>
		<circle fill="none" cx="206.528" cy="206.392" r="155.864"/>
		<path fill="#FFFFFF" d="M22.966,165.388l3.324-11.235c0.75-2.534,1.515-4.408,2.295-5.623c1.055-1.631,2.442-2.884,4.162-3.761
			c1.72-0.876,3.651-1.359,5.792-1.448c2.142-0.089,4.639,0.288,7.491,1.132c2.506,0.741,4.574,1.691,6.204,2.852
			c1.99,1.416,3.461,3.033,4.415,4.852c0.723,1.373,1.107,3.053,1.152,5.038c0.028,1.484-0.294,3.361-0.966,5.632l-3.422,11.568
			L22.966,165.388z M29.935,160.764l20.167,5.965l1.358-4.59c0.508-1.717,0.777-2.984,0.809-3.804
			c0.046-1.07-0.132-2.022-0.533-2.856c-0.4-0.833-1.222-1.66-2.462-2.479c-1.241-0.818-3.039-1.576-5.393-2.272
			c-2.354-0.696-4.222-1.023-5.605-0.98c-1.382,0.043-2.538,0.333-3.465,0.872c-0.928,0.539-1.686,1.346-2.275,2.422
			c-0.448,0.801-1.042,2.455-1.784,4.961L29.935,160.764z"/>
		<path fill="#FFFFFF" d="M64.397,141.297l-27.796-15.346l11.378-20.61l4.703,2.596l-8.28,14.998l6.162,3.402l7.705-13.955
			l4.683,2.585l-7.704,13.955l7.565,4.177l8.573-15.528l4.683,2.585L64.397,141.297z"/>
		<path fill="#FFFFFF" d="M80.944,113.347L56.91,92.598l6.723-7.787c2.547-2.951,4.329-4.771,5.343-5.46
			c1.549-1.065,3.329-1.541,5.339-1.428c2.009,0.113,3.971,0.996,5.883,2.647c1.476,1.273,2.485,2.612,3.028,4.016
			c0.543,1.404,0.745,2.766,0.607,4.086c-0.139,1.321-0.483,2.487-1.033,3.501c-0.771,1.356-2.104,3.133-4.001,5.33l-2.731,3.164
			l9.066,7.826L80.944,113.347z M65.164,91.256l6.82,5.888l2.292-2.655c1.651-1.913,2.63-3.3,2.935-4.162s0.348-1.707,0.129-2.536
			c-0.22-0.828-0.685-1.549-1.395-2.162c-0.875-0.755-1.817-1.121-2.829-1.098s-1.929,0.366-2.75,1.031
			c-0.609,0.484-1.669,1.602-3.179,3.35L65.164,91.256z"/>
		<path fill="#FFFFFF" d="M123.006,73.828l-5.491,4.299l-6.629-3.971l-9.994,7.824l2.382,7.294l-5.355,4.192l-9.834-32.625
			l5.338-4.179L123.006,73.828z M105.969,71.213l-10.708-6.581l3.886,11.921L105.969,71.213z"/>
		<path fill="#FFFFFF" d="M128.505,70.83l-13.559-28.71l12.201-5.763c3.068-1.448,5.419-2.243,7.053-2.385
			c1.634-0.141,3.18,0.251,4.639,1.175c1.458,0.924,2.588,2.234,3.39,3.932c1.018,2.154,1.225,4.232,0.621,6.234
			c-0.604,2.002-2.079,3.78-4.426,5.336c1.599,0.139,3.013,0.453,4.242,0.942c1.229,0.49,3.063,1.523,5.501,3.103l6.151,3.945
			l-6.933,3.274l-7.142-4.268c-2.543-1.53-4.226-2.456-5.048-2.778c-0.823-0.321-1.592-0.445-2.307-0.371s-1.739,0.426-3.071,1.055
			l-1.175,0.556l5.66,11.985L128.505,70.83z M126.477,51.524l4.289-2.025c2.781-1.313,4.462-2.251,5.043-2.813
			c0.581-0.563,0.932-1.223,1.052-1.982c0.12-0.76-0.023-1.57-0.43-2.432c-0.456-0.966-1.083-1.624-1.879-1.975
			s-1.701-0.383-2.715-0.096c-0.501,0.157-1.926,0.79-4.276,1.9l-4.524,2.137L126.477,51.524z"/>
		<path fill="#FFFFFF" d="M167.506,55.422l-6.059-25.675l-9.17,2.164l-1.233-5.228l24.557-5.796l1.234,5.228l-9.148,2.159
			l6.059,25.675L167.506,55.422z"/>
		<path fill="#FFFFFF" d="M189.686,50.786l-0.515-31.747l9.594-0.156l6.111,21.563l5.344-21.748l9.615-0.155l0.515,31.747
			l-5.955,0.097l-0.405-24.991l-5.896,25.093l-6.172,0.101l-6.686-24.889l0.405,24.99L189.686,50.786z"/>
		<path fill="#FFFFFF" d="M229.439,51.767l6.937-30.984l22.974,5.143l-1.173,5.242l-16.718-3.743l-1.538,6.869l15.556,3.482
			l-1.169,5.221l-15.555-3.482l-1.888,8.433l17.31,3.875l-1.168,5.221L229.439,51.767z"/>
		<path fill="#FFFFFF" d="M260.919,59.725l13.444-28.764l5.651,2.641l2.794,24.712l8.978-19.209l5.396,2.521l-13.444,28.765
			l-5.828-2.724l-2.829-24.178l-8.767,18.758L260.919,59.725z"/>
		<path fill="#FFFFFF" d="M297.647,79.885l15.866-21.075l-7.527-5.666l3.23-4.292l20.158,15.176l-3.23,4.291l-7.51-5.653
			l-15.866,21.076L297.647,79.885z"/>
		<path fill="#FFFFFF" d="M349.192,109.881c2.828-1.569,5.436-2.463,7.825-2.683c1.764-0.153,3.511,0.005,5.241,0.474
			c1.729,0.469,3.227,1.202,4.491,2.202c1.691,1.323,3.165,3.114,4.419,5.375c2.27,4.091,2.816,8.067,1.642,11.932
			c-1.176,3.863-4.023,7.05-8.543,9.558c-4.482,2.486-8.666,3.214-12.549,2.182s-6.957-3.588-9.219-7.666
			c-2.291-4.128-2.853-8.11-1.686-11.944C341.98,115.475,344.773,112.333,349.192,109.881z M352.586,115.551
			c-3.144,1.744-5.125,3.793-5.941,6.145c-0.817,2.353-0.605,4.646,0.635,6.881c1.24,2.234,3.062,3.622,5.467,4.162
			c2.405,0.539,5.217-0.084,8.437-1.87c3.182-1.766,5.168-3.78,5.96-6.044c0.791-2.264,0.546-4.551-0.736-6.861
			c-1.282-2.311-3.108-3.733-5.477-4.268C358.562,113.161,355.781,113.779,352.586,115.551z"/>
		<path fill="#FFFFFF" d="M352.982,151.945l30.428-9.071l6.219,20.859l-5.147,1.535l-4.387-14.716l-7.202,2.147l3.787,12.702
			l-5.147,1.534l-3.787-12.702l-12.931,3.854L352.982,151.945z"/>
	</g>
	<g>
		<circle fill="none" cx="206.528" cy="206.468" r="188.969"/>
		<path fill="#FFFFFF" d="M31.82,279.498l27.785-13.637l4.418,9.002c1.674,3.412,2.626,5.704,2.857,6.877
			c0.364,1.797,0.112,3.574-0.757,5.334c-0.87,1.759-2.41,3.182-4.621,4.267c-1.706,0.837-3.292,1.231-4.758,1.183
			s-2.765-0.387-3.897-1.016c-1.131-0.628-2.046-1.383-2.745-2.263c-0.922-1.209-2.007-3.083-3.253-5.623l-1.795-3.658
			l-10.481,5.145L31.82,279.498z M57.659,273.778l-7.885,3.869l1.507,3.07c1.085,2.211,1.956,3.618,2.613,4.222
			c0.656,0.603,1.398,0.964,2.225,1.083c0.827,0.119,1.651-0.022,2.472-0.426c1.011-0.495,1.699-1.202,2.064-2.118
			s0.407-1.87,0.125-2.86c-0.202-0.731-0.799-2.108-1.792-4.13L57.659,273.778z"/>
		<path fill="#FFFFFF" d="M73.771,293.12l3.822,4.944l-13.262,10.253c-2.105,1.627-3.422,2.743-3.95,3.348
			c-0.839,0.986-1.254,2.112-1.245,3.378c0.008,1.265,0.546,2.588,1.614,3.969c1.084,1.403,2.189,2.239,3.313,2.509
			s2.16,0.153,3.107-0.348c0.947-0.501,2.389-1.5,4.327-2.998l13.546-10.473l3.822,4.944l-12.862,9.943
			c-2.939,2.272-5.12,3.745-6.54,4.416c-1.42,0.671-2.826,0.97-4.216,0.897s-2.798-0.519-4.224-1.338
			c-1.425-0.82-2.887-2.198-4.385-4.136c-1.808-2.339-2.909-4.321-3.303-5.946c-0.394-1.626-0.431-3.123-0.11-4.492
			c0.32-1.368,0.868-2.53,1.643-3.484c1.153-1.408,3.1-3.171,5.839-5.288L73.771,293.12z"/>
		<path fill="#FFFFFF" d="M94.706,318.805l9.422,8.019c1.865,1.587,3.19,2.849,3.974,3.784s1.328,1.957,1.632,3.066
			c0.304,1.108,0.348,2.278,0.133,3.509s-0.757,2.354-1.623,3.373c-0.94,1.104-2.099,1.864-3.479,2.279
			c-1.379,0.416-2.775,0.421-4.185,0.016c1.081,1.64,1.578,3.293,1.492,4.957c-0.085,1.664-0.708,3.177-1.866,4.538
			c-0.912,1.072-2.048,1.902-3.409,2.491c-1.361,0.589-2.73,0.819-4.108,0.69c-1.378-0.129-2.759-0.662-4.143-1.599
			c-0.866-0.59-2.825-2.164-5.877-4.725l-8.023-6.827L94.706,318.805z M88.149,336.153l-5.364,6.303l4.406,3.749
			c1.715,1.46,2.844,2.338,3.387,2.634c0.817,0.473,1.66,0.649,2.529,0.53c0.869-0.12,1.659-0.599,2.371-1.435
			c0.602-0.707,0.941-1.453,1.018-2.238c0.076-0.785-0.114-1.566-0.57-2.343c-0.458-0.777-1.769-2.087-3.934-3.93L88.149,336.153z
			 M96.126,326.779l-4.638,5.451l3.119,2.654c1.854,1.578,3.029,2.532,3.525,2.861c0.896,0.597,1.777,0.86,2.64,0.791
			c0.863-0.069,1.618-0.484,2.266-1.246c0.62-0.729,0.923-1.491,0.909-2.289c-0.015-0.798-0.377-1.583-1.088-2.354
			c-0.426-0.455-1.759-1.636-4-3.542L96.126,326.779z"/>
		<path fill="#FFFFFF" d="M105.653,366.597l15.007-26.779l5.452,3.055l-12.458,22.23l13.556,7.597l-2.549,4.55L105.653,366.597z"/>
		<path fill="#FFFFFF" d="M135.067,381.488l11.243-28.837l5.823,2.271l-11.244,28.837L135.067,381.488z"/>
		<path fill="#FFFFFF" d="M175.121,381.449l5.5,3.186c-1.637,3.098-3.688,5.213-6.152,6.347s-5.317,1.342-8.561,0.624
			c-4.013-0.889-7.007-2.989-8.984-6.303c-1.977-3.314-2.438-7.349-1.386-12.104c1.113-5.029,3.277-8.648,6.491-10.856
			c3.213-2.207,6.936-2.843,11.169-1.905c3.697,0.818,6.458,2.575,8.283,5.271c1.088,1.597,1.708,3.68,1.859,6.251l-6.359,0.105
			c-0.011-1.646-0.482-3.048-1.415-4.206c-0.933-1.158-2.21-1.916-3.832-2.275c-2.24-0.496-4.236-0.095-5.986,1.205
			c-1.751,1.299-3.025,3.749-3.822,7.349c-0.846,3.821-0.762,6.694,0.254,8.62c1.015,1.926,2.622,3.132,4.821,3.618
			c1.622,0.359,3.13,0.153,4.527-0.619C172.925,384.984,174.123,383.548,175.121,381.449z"/>
		<path fill="#FFFFFF" d="M224.924,384.9l5.888-1.63c0.712,1.947,1.702,3.296,2.969,4.045c1.268,0.751,2.837,0.962,4.708,0.634
			c1.982-0.347,3.403-1.027,4.262-2.042s1.189-2.084,0.993-3.207c-0.126-0.721-0.445-1.297-0.956-1.729
			c-0.512-0.432-1.327-0.743-2.446-0.933c-0.765-0.124-2.485-0.279-5.162-0.469c-3.443-0.24-5.934-0.841-7.474-1.8
			c-2.166-1.351-3.459-3.231-3.881-5.645c-0.271-1.552-0.086-3.082,0.558-4.588s1.732-2.757,3.266-3.754
			c1.533-0.997,3.471-1.7,5.814-2.11c3.827-0.67,6.854-0.335,9.082,1.004c2.228,1.34,3.635,3.401,4.222,6.185l-6.108,1.348
			c-0.538-1.521-1.3-2.549-2.286-3.083c-0.987-0.535-2.347-0.65-4.08-0.348c-1.789,0.313-3.125,0.926-4.008,1.838
			c-0.569,0.586-0.785,1.273-0.646,2.063c0.126,0.721,0.539,1.285,1.239,1.69c0.89,0.517,2.895,0.865,6.013,1.049
			c3.119,0.183,5.461,0.526,7.029,1.031c1.567,0.505,2.871,1.341,3.911,2.509c1.041,1.169,1.729,2.717,2.066,4.644
			c0.306,1.747,0.106,3.468-0.597,5.163c-0.704,1.694-1.878,3.068-3.522,4.12c-1.645,1.053-3.792,1.811-6.439,2.273
			c-3.854,0.675-6.971,0.302-9.348-1.118S225.923,388.241,224.924,384.9z"/>
		<path fill="#FFFFFF" d="M290.365,376.579l-6.322,2.501l-5.099-5.544l-11.505,4.551l0.21,7.478l-6.165,2.438l-0.174-33.216
			l6.145-2.431L290.365,376.579z M275.161,369.424l-8.19-9.111l0.337,12.218L275.161,369.424z"/>
		<path fill="#FFFFFF" d="M300.288,370.881l-16.759-26.021l17.839-11.488l2.835,4.401l-12.585,8.105l3.967,6.159l10.863-6.996
			l2.835,4.402l-10.863,6.996l7.122,11.058L300.288,370.881z"/>
		<path fill="#FFFFFF" d="M328.394,351.336l-21.304-22.453l16.648-15.796l3.604,3.798l-12.115,11.495l4.723,4.978l11.272-10.695
			l3.589,3.782L323.54,337.14l5.798,6.11l12.544-11.901l3.589,3.783L328.394,351.336z"/>
		<path fill="#FFFFFF" d="M358.059,319.437l-20.853-15.048l-5.375,7.448l-4.246-3.064l14.393-19.945l4.246,3.063l-5.362,7.431
			l20.853,15.048L358.059,319.437z"/>
		<path fill="#FFFFFF" d="M376.492,289.221l-11.802-5.515l-21.039,2.684l3.102-6.638l14.177-1.415l-8.073-11.649l3.048-6.522
			l11.46,17.916l11.764,5.496L376.492,289.221z"/>
	</g>
	<circle fill="#F3C727" cx="33.67" cy="206.312" r="7.64"/>
	<circle fill="#F3C727" cx="379.085" cy="206.312" r="7.64"/>
</g>
</svg>
