<?xml version="1.0" encoding="utf-8"?>
<!-- Generator: Adobe Illustrator 19.1.0, SVG Export Plug-In . SVG Version: 6.00 Build 0)  -->
<svg version="1.1" id="Layer_1" xmlns="http://www.w3.org/2000/svg" xmlns:xlink="http://www.w3.org/1999/xlink" x="0px" y="0px"
	 viewBox="0 0 612 792" style="enable-background:new 0 0 612 792;" xml:space="preserve">
<style type="text/css">
	.st0{fill:#B82026;}
	.st1{fill:#1B1B1C;}
</style>
<path class="st0" d="M155.7,342.1L134.9,453h-31.2l-11.5-65.3L80.8,453H51.3L28.7,342.1l25.9-3l14.1,87.1l12.2-77.6l25.6,0l13,77.6
	l13.1-87.2L155.7,342.1z"/>
<path class="st0" d="M191.8,371.3c10,0,17.3,2.8,22.1,8.3c3.9,4.5,6.3,12,7.2,22.5c0.3,4.2,0.5,9.5,0.5,15.8l-10.6,1.5h-30.9
	c0,5.9,1.1,10.3,3.3,13.3c2.2,3,6.1,4.4,11.8,4.4c5.6,0,12.5-1.4,20.5-4.4l4.6,14.1c-9.5,5.4-19.4,8.1-29.7,8.1
	c-23.3,0-34.9-13.8-34.9-41.4c0-13,3-23.3,9.1-30.8C170.6,375.1,179.7,371.3,191.8,371.3z M196.9,392.5c-1-2.3-3.3-3.4-6.8-3.4
	c-3.5,0-6,1.3-7.5,3.8c-1.5,2.6-2.4,6.4-2.5,11.5h18.3C198.4,398.7,197.9,394.8,196.9,392.5z"/>
<path class="st0" d="M290.6,378.9c6.4,6,9.6,16.8,9.6,32.3c0,8.1-1.1,15.1-3.1,21.1c-2.1,6-5,10.5-8.6,13.6c-6.8,6-14.8,9-24,9
	c-12.2,0-22.9-3.4-32.2-10.3V340.2l23-2.6v32.9l0,4.5c4.9-2.7,8.5-3.8,16-3.8C278.6,371.3,285.1,373.8,290.6,378.9z M255.2,434.4
	c2.3,1.7,4.7,2.6,7.2,2.6c2.5,0,4.3-0.2,5.5-0.6c1.1-0.4,2.4-1.4,3.7-2.9c2.8-2.9,4.2-9.4,4.2-19.4c0-10.1-0.9-16.7-2.8-20
	c-1.9-3.3-4.7-4.9-8.6-4.9s-7,1.4-9.1,4V434.4z"/>
<path class="st1" d="M346.7,357.7V453h-26.7v-95.3h-57.5l0-20h249.7l0,20H346.7z"/>
<path class="st1" d="M402.9,371.3c10,0,17.3,2.8,22,8.3c3.9,4.5,6.3,12,7.2,22.5c0.3,4.2,0.4,9.5,0.4,15.8l-10.6,1.5H391
	c0,5.9,1.1,10.3,3.3,13.3c2.2,3,6.1,4.4,11.8,4.4c5.6,0,12.5-1.4,20.5-4.4l4.7,14.1c-9.5,5.4-19.4,8.1-29.7,8.1
	c-23.3,0-35-13.8-35-41.4c0-13,3-23.3,9.1-30.8C381.7,375.1,390.8,371.3,402.9,371.3z M408,392.5c-1-2.3-3.3-3.4-6.8-3.4
	c-3.5,0-6,1.3-7.5,3.8c-1.5,2.6-2.4,6.4-2.5,11.5h18.3C409.5,398.7,409,394.8,408,392.5z"/>
<path class="st1" d="M450.3,382.8c6.3-7.6,15-11.5,26.2-11.5c11.1,0,18.6,2.5,22.4,7.6s5.6,12.9,5.6,23.4l-21.8,0.9
	c0-5.8-0.5-9.6-1.4-11.4c-1-1.8-3.1-2.7-6.5-2.7c-3.4,0-5.8,1.8-7.3,5.5c-1.5,3.7-2.2,9.8-2.2,18.4c0,8.6,1.2,14.8,3.7,18.4
	c2.4,3.7,6.4,5.6,11.9,5.6c5.4,0,12.1-1.5,20-4.5l4.8,13.6c-8.4,5.8-18.5,8.7-30.3,8.7c-23,0-34.5-13.5-34.5-40.6
	C440.8,400.9,444,390.4,450.3,382.8z"/>
<path class="st1" d="M541.1,376.5c6.1-4,10.3-5.2,18-5.2c7.7,0,13.6,2.2,17.7,6.6c4.1,4.4,6.2,10.6,6.2,18.6V453h-23.1v-54.1
	c0-6.5-3.1-9.8-9.3-9.8c-3.7,0-6.9,1.5-9.5,4.4V453h-23V337.7l23,0v34.2L541.1,376.5z"/>
</svg>
